<?xml version="1.0" encoding="utf-8"?>
<!-- Generator: Adobe Illustrator 26.0.2, SVG Export Plug-In . SVG Version: 6.00 Build 0)  -->
<svg version="1.1" id="Livello_1" xmlns="http://www.w3.org/2000/svg" xmlns:xlink="http://www.w3.org/1999/xlink" x="0px" y="0px"
	 viewBox="0 0 102.51 31.4" style="enable-background:new 0 0 102.51 31.4;" xml:space="preserve">
<style type="text/css">
	.st0{fill:#2E63A0;}
	.st1{fill:none;stroke:#3D3935;stroke-width:0.5;}
	.st2{fill:#003D79;}
	.st3{fill:#ABA9A7;}
	.st4{fill:#326094;}
</style>
<g>
	<g>
		<path class="st0" d="M42.63,23.73c-0.19-0.23-0.47-0.37-0.76-0.37c-0.64,0-1.01,0.59-1.01,1.19c0,0.58,0.38,1.16,1.01,1.16
			c0.29,0,0.57-0.15,0.76-0.37v0.8c-0.25,0.12-0.5,0.21-0.78,0.21c-0.97,0-1.68-0.83-1.68-1.78c0-0.98,0.69-1.84,1.7-1.84
			c0.27,0,0.53,0.07,0.77,0.2V23.73z"/>
		<path class="st0" d="M44.12,25.53l-0.28,0.73h-0.71l1.34-3.53h0.52l1.3,3.53h-0.72l-0.26-0.73H44.12z M44.7,23.74L44.7,23.74
			l-0.39,1.25h0.82L44.7,23.74z"/>
		<path class="st0" d="M47.51,26.26h-0.67v-3.44h0.91c0.72,0,1.19,0.29,1.19,1.07c0,0.73-0.4,1.09-1.1,1.09h-0.33V26.26z
			 M47.51,24.42h0.14c0.4,0,0.61-0.09,0.61-0.53c0-0.44-0.26-0.51-0.63-0.51h-0.12V24.42z"/>
		<path class="st0" d="M50.27,26.26H49.6v-3.44h0.67V26.26z"/>
		<path class="st0" d="M52.22,26.26h-0.67V23.4h-0.69v-0.58h2.06v0.58h-0.69V26.26z"/>
		<path class="st0" d="M54.21,25.53l-0.28,0.73h-0.71l1.34-3.53h0.52l1.3,3.53h-0.72l-0.26-0.73H54.21z M54.79,23.74L54.79,23.74
			l-0.39,1.25h0.82L54.79,23.74z"/>
		<path class="st0" d="M57.6,25.67h0.95v0.58h-1.62v-3.44h0.67V25.67z"/>
		<path class="st0" d="M63.34,24.12L63.34,24.12l-0.79,2.18h-0.23l-0.75-2.18h-0.01l-0.31,2.13h-0.68l0.58-3.53h0.47l0.85,2.27
			l0.81-2.27h0.48l0.52,3.53h-0.68L63.34,24.12z"/>
		<path class="st0" d="M65.63,25.53l-0.28,0.73h-0.71l1.34-3.53h0.52l1.3,3.53h-0.72l-0.26-0.73H65.63z M66.21,23.74L66.21,23.74
			l-0.39,1.25h0.82L66.21,23.74z"/>
		<path class="st0" d="M68.36,22.73h0.48l1.81,2.4h0.01v-2.31h0.67v3.51h-0.48l-1.81-2.4h-0.01v2.34h-0.67V22.73z"/>
		<path class="st0" d="M72.87,25.53l-0.28,0.73h-0.71l1.34-3.53h0.52l1.3,3.53h-0.72l-0.26-0.73H72.87z M73.45,23.74L73.45,23.74
			l-0.39,1.25h0.82L73.45,23.74z"/>
		<path class="st0" d="M78.63,24.43v0.09c0,0.97-0.5,1.83-1.56,1.83c-1,0-1.64-0.85-1.64-1.8c0-0.98,0.65-1.82,1.68-1.82
			c0.58,0,1.09,0.3,1.36,0.82l-0.59,0.32c-0.14-0.31-0.43-0.55-0.78-0.55c-0.65,0-0.97,0.66-0.97,1.23s0.32,1.2,0.97,1.2
			c0.42,0,0.77-0.36,0.78-0.78h-0.73v-0.55H78.63z"/>
		<path class="st0" d="M79.98,23.4v0.76h1.07v0.58h-1.07v0.93h1.11v0.58h-1.78v-3.44h1.78v0.58H79.98z"/>
		<path class="st0" d="M84.45,24.12L84.45,24.12l-0.79,2.18h-0.23l-0.75-2.18h-0.01l-0.31,2.13h-0.68l0.58-3.53h0.47l0.85,2.27
			l0.81-2.27h0.48l0.52,3.53h-0.68L84.45,24.12z"/>
		<path class="st0" d="M86.71,23.4v0.76h1.07v0.58h-1.07v0.93h1.11v0.58h-1.78v-3.44h1.78v0.58H86.71z"/>
		<path class="st0" d="M88.61,22.73h0.48l1.81,2.4h0.01v-2.31h0.67v3.51H91.1l-1.81-2.4h-0.01v2.34h-0.67V22.73z"/>
		<path class="st0" d="M93.53,26.26h-0.67V23.4h-0.69v-0.58h2.06v0.58h-0.69V26.26z"/>
	</g>
	<line class="st1" x1="40.16" y1="20.05" x2="94.22" y2="20.05"/>
	<path class="st2" d="M46.89,15.03l1.09,2.39h1.28L44.7,7.47l-4.56,9.96h1.28l1.09-2.39H46.89z M46.4,13.94H43l1.7-3.86L46.4,13.94z
		 M53.23,16.34l4.84-8.46h-6.09v1.09h4.16l-4.84,8.46h6.78v-1.09H53.23z M62.26,7.88h-1.19v9.55h1.19V7.88z M70.56,17.63l2.86-6.51
		h0.03l1.12,6.31h1.23l-1.95-9.96L70.56,15l-3.28-7.53l-1.95,9.96h1.23l1.11-6.31h0.03L70.56,17.63z M78.72,7.88v6.04
		c0,2.1,1.31,3.71,3.5,3.71c2.19,0,3.5-1.61,3.5-3.71V7.88h-1.19v5.64c0,1.56-0.47,3-2.31,3c-1.84,0-2.31-1.44-2.31-3V7.88H78.72z
		 M91.96,8.97h2.27V7.88H88.5v1.09h2.27v8.46h1.19V8.97z"/>
	<line class="st1" x1="36.51" y1="26.26" x2="36.51" y2="7.47"/>
	<path class="st3" d="M14.66,16.09c1.53,1.31,3.49,2.02,5.5,2.02c2,0,3.94-0.72,5.46-2.02c0.04-0.03,0.07-0.06,0.1-0.09
		c0.01-0.01,0.02-0.02,0.03-0.03L24,14.06l-1.69,0.84l-0.77-2.08l0.88-0.42l-0.93-1.07c0,0-0.01,0.01-0.01,0.01
		c-0.37,0.32-0.85,0.5-1.33,0.5c-0.55,0-1.08-0.23-1.47-0.62L14.66,16.09z M20.16,18.21c-2.06,0-4.05-0.74-5.61-2.08l-0.04-0.03
		l0.03-0.04l4.13-4.99l0.04,0.04c0.38,0.4,0.9,0.63,1.44,0.63c0.46,0,0.91-0.17,1.26-0.47c0.01-0.01,0.01-0.01,0.02-0.02
		c0.01-0.01,0.02-0.02,0.03-0.03l0.04-0.03l1.08,1.25l-0.92,0.44l0.7,1.89l1.66-0.82l1.87,2.04l-0.04,0.03
		c-0.02,0.02-0.05,0.04-0.07,0.06c-0.03,0.03-0.07,0.07-0.11,0.1C24.15,17.48,22.18,18.21,20.16,18.21 M11.4,23.62
		c2.6,1.66,5.62,2.54,8.75,2.54c3.91,0,7.69-1.39,10.65-3.92c1.01-0.86,1.96-1.92,2.81-3.14l-1-0.69c-0.37,0.53-0.73,0.97-1.22,1.5
		l-0.04,0.04l-6.2-6.57l2-1c0.02-0.01,0.04-0.01,0.06-0.01c0.1,0,0.24,0.07,0.29,0.11l0.22-0.11l-1-2.14l-0.2,0.1
		c-0.02,0.07-0.07,0.23-0.16,0.28c-0.02,0.01-1.94,0.92-2.53,1.19l-0.03,0.02l-1.73-1.79l0-0.02C22.16,9.45,22,8.9,21.64,8.48
		c-0.38-0.44-0.93-0.69-1.51-0.69c-0.47,0-0.93,0.17-1.29,0.47c-0.43,0.37-0.68,0.91-0.69,1.48l0,0.02l-0.83,1.01L14.32,9
		l-0.68,1.01l2.63,2.04l-0.03,0.04l-4.4,5.34l0.94,0.8c0.08-0.14,0.18-0.26,0.3-0.36c0.25-0.21,0.54-0.32,0.85-0.32
		c0.38,0,0.74,0.17,0.99,0.47c0.28,0.33,0.39,0.78,0.28,1.2l0.66,0.26l0.21-0.92l0.06,0.02c1.25,0.56,2.63,0.85,4,0.85
		c2.32,0,4.57-0.83,6.34-2.34c0.04-0.04,0.08-0.07,0.12-0.11c0.03-0.03,0.06-0.05,0.08-0.08l0.04-0.03l3.69,4.01l-0.04,0.03
		c-0.05,0.05-0.1,0.1-0.15,0.15c-0.06,0.06-0.12,0.12-0.19,0.18c-2.72,2.37-6.22,3.68-9.84,3.68c-2.88,0-5.7-0.81-8.15-2.34
		L11.4,23.62z M20.15,26.26c-3.17,0-6.23-0.89-8.85-2.58l-0.04-0.03l0.75-1.2l0.04,0.03c2.44,1.54,5.25,2.35,8.13,2.35
		c3.6,0,7.07-1.3,9.77-3.66c0.06-0.06,0.13-0.12,0.18-0.18c0.04-0.04,0.08-0.08,0.12-0.12l-3.55-3.87
		c-0.02,0.01-0.03,0.03-0.05,0.04c-0.04,0.04-0.08,0.08-0.13,0.12c-1.78,1.52-4.06,2.36-6.4,2.36c-1.36,0-2.74-0.29-3.99-0.83
		l-0.21,0.92l-0.86-0.33l0.01-0.04c0.11-0.4,0.02-0.83-0.25-1.15c-0.24-0.28-0.57-0.44-0.92-0.44c-0.29,0-0.56,0.1-0.79,0.3
		c-0.13,0.11-0.23,0.24-0.3,0.38l-0.03,0.06l-1.11-0.94l4.43-5.38l-2.63-2.03l0.78-1.17l3.02,1.77l0.75-0.91
		c0.01-0.6,0.27-1.16,0.72-1.54c0.38-0.32,0.86-0.5,1.35-0.5c0.61,0,1.19,0.27,1.58,0.73c0.38,0.44,0.55,1,0.48,1.58l1.65,1.7
		c0.87-0.41,2.46-1.16,2.49-1.18c0.05-0.03,0.1-0.16,0.12-0.24l0.01-0.02l0.33-0.17l1.08,2.32l-0.35,0.18l-0.02-0.01
		c-0.05-0.03-0.19-0.11-0.27-0.11c-0.01,0-0.02,0-0.02,0l-1.88,0.94l6.03,6.39c0.49-0.53,0.84-0.96,1.21-1.49l0.03-0.04l1.16,0.81
		l-0.03,0.04c-0.86,1.24-1.83,2.32-2.86,3.2C27.88,24.86,24.08,26.26,20.15,26.26"/>
	<polygon class="st4" points="9.42,5.05 9.52,6.28 8.28,6.34 9.31,7.03 8.58,8.03 9.76,7.65 10.09,8.84 10.53,7.69 11.67,8.18 
		11.04,7.11 12.13,6.53 10.91,6.35 11.13,5.13 10.23,5.98 	"/>
	<g>
		<path class="st4" d="M20.07,7.74l-6.84,16.89l1.21,0.52l2.43-6.3c2.03,0.75,4.26,0.81,6.34,0.15l2.29,6.28l1.86-0.76L20.09,7.77
			 M20.11,10.45l2.65,7.32c-1.78,0.55-3.68,0.49-5.42-0.14L20.11,10.45z"/>
		<path class="st4" d="M17.41,17.6c1.69,0.61,3.57,0.66,5.29,0.14l-2.59-7.14L17.41,17.6z M20.27,18.19c-1,0-2-0.17-2.94-0.52
			l-0.05-0.02l2.84-7.35l2.72,7.49l-0.05,0.02C21.97,18.07,21.12,18.19,20.27,18.19 M23.24,18.94l0.02,0.05l2.27,6.23l1.77-0.72
			L20.08,7.86L13.3,24.6l1.12,0.48l2.43-6.29l0.05,0.02c2.02,0.74,4.26,0.8,6.31,0.15L23.24,18.94z M25.47,25.35l-0.02-0.05
			l-2.27-6.23c-2.04,0.63-4.27,0.58-6.28-0.15l-2.43,6.3l-1.3-0.56l0.02-0.05l6.84-16.89l0.09,0.03l0.03-0.01l7.29,16.8L25.47,25.35
			z"/>
	</g>
</g>
</svg>
