<?xml version="1.0" encoding="utf-8"?>
<!-- Generator: Adobe Illustrator 26.0.2, SVG Export Plug-In . SVG Version: 6.00 Build 0)  -->
<svg version="1.1" id="Livello_1" xmlns="http://www.w3.org/2000/svg" xmlns:xlink="http://www.w3.org/1999/xlink" x="0px" y="0px"
	 viewBox="0 0 242.58 75.23" style="enable-background:new 0 0 242.58 75.23;" xml:space="preserve">
<style type="text/css">
	.st0{fill:none;stroke:#4C4945;stroke-width:0.399;}
	.st1{fill:#00626A;}
	.st2{fill:#BDBEBA;}
</style>
<g>
	<line class="st0" x1="93.83" y1="48.07" x2="226.39" y2="48.07"/>
	<g>
		<path class="st1" d="M220.83,20.88h5.56v-2.67h-14.04v2.67h5.56v20.75h2.92V20.88z M188.37,18.21v14.82c0,5.16,3.2,9.1,8.57,9.1
			c5.38,0,8.58-3.95,8.58-9.1V18.21h-2.92v13.83c0,3.82-1.15,7.36-5.65,7.36c-4.5,0-5.65-3.54-5.65-7.36V18.21H188.37z
			 M168.36,42.13l7.02-15.97h0.06l2.74,15.47h3.01l-4.78-24.42l-8.05,18.45l-8.05-18.45l-4.78,24.42h3.01l2.73-15.47h0.06
			L168.36,42.13z M148.01,18.21h-2.92v23.42h2.92V18.21z M125.86,38.96l11.87-20.75h-14.94v2.67h10.19l-11.87,20.75h16.62v-2.67
			H125.86z M109.12,33.09h-8.32l4.16-9.48L109.12,33.09z M110.33,35.76l2.67,5.87h3.14l-11.18-24.42L93.77,41.63h3.14l2.67-5.87
			H110.33z"/>
	</g>
	<line class="st0" x1="84.88" y1="63.28" x2="84.88" y2="17.22"/>
	<g>
		<path class="st2" d="M45.33,64.03c-7.78,0-15.3-2.19-21.74-6.34l-0.1-0.07l1.85-2.94l0.1,0.07c6,3.77,12.91,5.77,19.98,5.77
			c8.84,0,17.36-3.19,24-8.98c0.16-0.14,0.31-0.29,0.45-0.44c0.1-0.1,0.19-0.2,0.3-0.29l-8.73-9.5c-0.04,0.03-0.07,0.07-0.11,0.11
			c-0.1,0.1-0.2,0.19-0.31,0.28c-4.38,3.74-9.97,5.8-15.72,5.8c-3.35,0-6.73-0.71-9.8-2.05L35,47.71l-2.1-0.82l0.03-0.11
			c0.28-0.99,0.05-2.04-0.61-2.82c-0.58-0.68-1.4-1.07-2.25-1.07c-0.7,0-1.37,0.25-1.93,0.73c-0.31,0.27-0.56,0.58-0.74,0.94
			l-0.07,0.14l-2.73-2.31l10.88-13.22l-6.45-4.99l1.93-2.87l7.41,4.35l1.85-2.25c0.03-1.47,0.67-2.85,1.77-3.78
			c0.92-0.79,2.1-1.23,3.32-1.23c1.5,0,2.92,0.65,3.89,1.79c0.92,1.08,1.34,2.46,1.18,3.89l4.05,4.19c2.13-1,6.04-2.85,6.11-2.89
			c0.11-0.07,0.24-0.39,0.29-0.6l0.01-0.05l0.81-0.42l2.66,5.7l-0.87,0.43l-0.06-0.04c-0.11-0.07-0.46-0.26-0.65-0.26
			c-0.03,0-0.04,0-0.05,0.01l-4.61,2.3l14.82,15.71c1.19-1.29,2.06-2.36,2.97-3.67l0.07-0.1l2.85,1.98l-0.07,0.1
			c-2.12,3.05-4.49,5.69-7.02,7.85C64.33,60.59,54.99,64.03,45.33,64.03 M23.83,57.55c6.38,4.08,13.81,6.24,21.5,6.24
			c9.59,0,18.88-3.42,26.16-9.64c2.49-2.12,4.81-4.71,6.9-7.7l-2.44-1.7c-0.91,1.3-1.79,2.38-3,3.69l-0.09,0.1L57.63,32.39
			l4.92-2.45c0.05-0.02,0.1-0.03,0.15-0.03c0.25,0,0.58,0.18,0.72,0.26l0.53-0.26l-2.45-5.25l-0.48,0.25
			c-0.05,0.16-0.18,0.57-0.39,0.7c-0.04,0.02-4.76,2.25-6.21,2.93l-0.08,0.04l-4.25-4.4l0.01-0.06c0.17-1.38-0.22-2.72-1.11-3.76
			c-0.93-1.08-2.27-1.7-3.7-1.7c-1.16,0-2.28,0.41-3.16,1.17c-1.05,0.9-1.67,2.23-1.68,3.64l0,0.04l-2.04,2.47l-7.39-4.34
			l-1.67,2.49l6.47,5.01l-0.08,0.1l-10.8,13.13l2.31,1.95c0.19-0.33,0.43-0.63,0.73-0.88c0.61-0.52,1.33-0.79,2.09-0.79
			c0.92,0,1.81,0.42,2.44,1.16c0.69,0.81,0.95,1.91,0.69,2.94l1.63,0.64l0.51-2.27l0.14,0.06c3.07,1.37,6.47,2.09,9.83,2.09
			c5.7,0,11.22-2.04,15.56-5.74c0.11-0.09,0.2-0.18,0.3-0.28c0.07-0.06,0.14-0.13,0.21-0.19l0.09-0.08l9.06,9.86l-0.09,0.08
			c-0.13,0.12-0.25,0.24-0.38,0.37c-0.15,0.15-0.3,0.3-0.47,0.45c-6.69,5.83-15.27,9.04-24.16,9.04c-7.08,0-14-1.99-20.01-5.74
			L23.83,57.55z M45.36,44.26c-5.06,0-9.95-1.81-13.77-5.11l-0.09-0.08l0.08-0.09l10.14-12.26l0.1,0.1
			c0.92,0.98,2.21,1.55,3.54,1.55c1.13,0,2.23-0.41,3.11-1.16c0.02-0.02,0.03-0.03,0.05-0.05c0.02-0.02,0.04-0.05,0.07-0.07
			l0.09-0.09l2.66,3.06l-2.26,1.07l1.73,4.65l4.07-2.02l4.6,5l-0.09,0.08c-0.06,0.05-0.11,0.1-0.17,0.16
			c-0.08,0.08-0.17,0.16-0.26,0.24C55.15,42.48,50.33,44.26,45.36,44.26 M31.84,39.05c3.77,3.21,8.56,4.97,13.52,4.97
			c4.91,0,9.68-1.76,13.42-4.95c0.09-0.07,0.17-0.15,0.25-0.23c0.03-0.02,0.05-0.05,0.08-0.07l-4.31-4.68l-4.15,2.07l-1.9-5.12
			l2.17-1.03l-2.28-2.62c-0.01,0.01-0.02,0.02-0.04,0.03c-0.92,0.78-2.08,1.22-3.27,1.22c-1.35,0-2.66-0.55-3.62-1.53L31.84,39.05z"
			/>
	</g>
	<polygon class="st1" points="18.97,11.94 19.22,14.97 16.18,15.1 18.7,16.79 16.92,19.25 19.81,18.33 20.62,21.26 21.71,18.42 
		24.5,19.62 22.96,17 25.63,15.56 22.63,15.13 23.17,12.15 20.96,14.23 	"/>
	<g>
		<path class="st1" d="M58.41,61.8l-0.04-0.12l-5.58-15.31C47.77,47.92,42.3,47.79,37.35,46l-5.97,15.47l-3.2-1.37l0.04-0.11
			l16.8-41.48l0.21,0.09l0.07-0.03l17.91,41.27L58.41,61.8z M52.93,46.06l0.04,0.11l5.58,15.3l4.35-1.78L45.16,18.84L28.5,59.97
			l2.74,1.17l5.97-15.46l0.11,0.04c4.96,1.82,10.47,1.96,15.5,0.38L52.93,46.06z M45.63,44.22c-2.46,0-4.91-0.42-7.23-1.27
			l-0.12-0.04l6.97-18.05l6.67,18.4l-0.13,0.04C49.79,43.92,47.71,44.22,45.63,44.22 M38.6,42.76c4.16,1.49,8.76,1.61,13,0.34
			l-6.36-17.54L38.6,42.76z"/>
		<path class="st1" d="M45.24,25.21l6.52,17.97c-4.37,1.34-9.05,1.21-13.32-0.35L45.24,25.21z M45.14,18.55l-16.8,41.48l2.97,1.27
			l5.97-15.47c4.99,1.83,10.47,1.98,15.58,0.38l5.62,15.42l4.58-1.88L45.2,18.61"/>
		<path class="st1" d="M224.7,56.63h1.7V55.2h-5.04v1.43h1.7v6.99h1.64V56.63z M212.59,63.62h1.64V57.9h0.02l4.43,5.88h1.18V55.2
			h-1.64v5.66h-0.02l-4.43-5.88h-1.18V63.62z M210.59,56.63V55.2h-4.35v8.42h4.35v-1.43h-2.71v-2.28h2.61v-1.43h-2.61v-1.85H210.59z
			 M202.87,63.62h1.65l-1.26-8.64h-1.18l-1.99,5.55l-2.08-5.55h-1.16l-1.42,8.64h1.65l0.75-5.23h0.02l1.84,5.34h0.57l1.91-5.34h0.02
			L202.87,63.62z M193.94,56.63V55.2h-4.35v8.42h4.35v-1.43h-2.71v-2.28h2.61v-1.43h-2.61v-1.85H193.94z M184.22,59.14v1.34H186
			c-0.03,1.02-0.89,1.91-1.92,1.91c-1.59,0-2.38-1.55-2.38-2.95c0-1.4,0.78-3.02,2.37-3.02c0.87,0,1.59,0.58,1.92,1.34l1.45-0.78
			c-0.65-1.28-1.9-2.01-3.33-2.01c-2.51,0-4.11,2.06-4.11,4.47c0,2.32,1.55,4.4,4.01,4.4c2.61,0,3.83-2.11,3.83-4.49v-0.21H184.22z
			 M176.47,60.51h-2l0.93-3.06h0.02L176.47,60.51z M176.93,61.84l0.65,1.78h1.75l-3.19-8.64h-1.27l-3.28,8.64h1.73l0.69-1.78H176.93
			z M162.86,63.62h1.64V57.9h0.02l4.43,5.88h1.18V55.2h-1.64v5.66h-0.02l-4.43-5.88h-1.18V63.62z M158.56,60.51h-2l0.93-3.06h0.02
			L158.56,60.51z M159.01,61.84l0.65,1.78h1.75l-3.19-8.64h-1.27l-3.28,8.64h1.73l0.69-1.78H159.01z M150.8,63.62h1.65l-1.26-8.64
			H150l-1.99,5.55l-2.08-5.55h-1.16l-1.42,8.64h1.65l0.75-5.23h0.02l1.84,5.34h0.57l1.91-5.34h0.02L150.8,63.62z M133.56,58.52V55.2
			h-1.64v8.42h1.64v-3.76h3.04v3.76h1.64V55.2h-1.64v3.32H133.56z M128.73,56.63h1.7V55.2h-5.03v1.43h1.7v6.99h1.64V56.63z
			 M122.79,55.2h-1.64v8.42h3.96v-1.43h-2.32V55.2z M116.85,60.51h-2l0.93-3.06h0.02L116.85,60.51z M117.3,61.84l0.65,1.78h1.75
			l-3.19-8.64h-1.27l-3.28,8.64h1.73l0.69-1.78H117.3z M110.57,56.63V55.2h-4.35v8.42h4.35v-1.43h-2.71v-2.28h2.61v-1.43h-2.61
			v-1.85H110.57z M95.33,55.2h-1.72l2.68,8.59h1.21l1.59-5.51h0.02l1.68,5.51h1.21l2.85-8.59h-1.72l-1.65,5.74h-0.02l-1.74-5.85
			h-0.97l-1.68,5.85h-0.02L95.33,55.2z"/>
	</g>
</g>
</svg>
