<?xml version="1.0" encoding="utf-8"?>
<!-- Generator: Adobe Illustrator 26.0.2, SVG Export Plug-In . SVG Version: 6.00 Build 0)  -->
<svg version="1.1" id="Livello_1" xmlns="http://www.w3.org/2000/svg" xmlns:xlink="http://www.w3.org/1999/xlink" x="0px" y="0px"
	 viewBox="0 0 401.67 708.66" style="enable-background:new 0 0 401.67 708.66;" xml:space="preserve">
<style type="text/css">
	.st0{opacity:0.45;}
	.st1{fill:#BDBEBA;}
	.st2{fill:#00626A;}
</style>
<g>
	<g>
		<g>
			<g class="st0">
				<g>
					<path class="st1" d="M190.04,634.96c-37.68,0-74.08-10.61-105.26-30.71l-0.5-0.32l8.95-14.23l0.5,0.32
						c29.05,18.27,62.51,27.93,96.78,27.93c42.79,0,84.07-15.45,116.23-43.5c0.77-0.67,1.49-1.4,2.19-2.11
						c0.47-0.47,0.94-0.95,1.44-1.42l-42.27-46.01c-0.18,0.17-0.36,0.35-0.54,0.51c-0.49,0.47-0.98,0.93-1.5,1.38
						c-21.22,18.12-48.26,28.1-76.14,28.1c-16.22,0-32.6-3.43-47.43-9.93l-2.47,10.94l-10.18-3.98l0.15-0.52
						c1.36-4.77,0.25-9.88-2.98-13.66c-2.81-3.3-6.79-5.18-10.92-5.18c-3.41,0-6.65,1.23-9.37,3.55c-1.5,1.29-2.71,2.83-3.59,4.57
						l-0.34,0.67l-13.21-11.19l52.68-64.02l-31.25-24.17l9.33-13.91l35.91,21.09l8.95-10.87c0.15-7.12,3.26-13.78,8.57-18.32
						c4.48-3.82,10.18-5.93,16.07-5.93c7.25,0,14.12,3.17,18.83,8.68c4.47,5.23,6.48,11.9,5.69,18.84l19.6,20.28
						c10.31-4.86,29.23-13.79,29.61-13.98c0.54-0.33,1.15-1.9,1.41-2.9l0.07-0.26l3.91-2.03l12.87,27.59l-4.2,2.09l-0.28-0.18
						c-0.56-0.35-2.21-1.26-3.15-1.26c-0.13,0-0.21,0.02-0.25,0.03l-22.34,11.12l71.76,76.07c5.78-6.27,9.97-11.45,14.36-17.75
						l0.34-0.49l13.8,9.62l-0.34,0.49c-10.29,14.76-21.72,27.55-33.98,38.01C282.05,618.29,236.78,634.96,190.04,634.96
						 M85.92,603.57c30.88,19.76,66.86,30.2,104.12,30.2c46.46,0,91.45-16.57,126.68-46.67c12.04-10.28,23.29-22.83,33.43-37.3
						l-11.84-8.25c-4.41,6.29-8.66,11.5-14.55,17.86l-0.43,0.47l-73.74-78.16l23.84-11.87c0.26-0.09,0.48-0.13,0.72-0.13
						c1.19,0,2.83,0.87,3.5,1.27l2.57-1.28l-11.85-25.41l-2.34,1.21c-0.23,0.8-0.87,2.74-1.92,3.39
						c-0.21,0.12-23.07,10.9-30.07,14.2l-0.38,0.18l-20.59-21.3l0.03-0.28c0.83-6.7-1.08-13.16-5.38-18.19
						c-4.49-5.25-11.02-8.26-17.92-8.26c-5.6,0-11.03,2.01-15.29,5.65c-5.1,4.35-8.07,10.77-8.16,17.63l0,0.21l-9.86,11.98
						l-35.81-21.03l-8.08,12.05l31.34,24.24l-0.39,0.47l-52.32,63.59l11.18,9.47c0.91-1.61,2.09-3.04,3.52-4.27
						c2.94-2.51,6.44-3.83,10.14-3.83c4.48,0,8.78,2.04,11.83,5.6c3.37,3.94,4.6,9.23,3.36,14.24l7.89,3.09l2.49-11l0.66,0.29
						c14.85,6.62,31.31,10.12,47.61,10.12c27.59,0,54.36-9.88,75.36-27.82c0.51-0.43,0.98-0.88,1.46-1.33
						c0.33-0.31,0.66-0.62,1-0.93l0.44-0.4L312.05,571l-0.44,0.4c-0.63,0.57-1.23,1.18-1.83,1.78c-0.71,0.73-1.45,1.47-2.25,2.17
						c-32.38,28.24-73.94,43.79-117.01,43.8c-34.29,0-67.79-9.61-96.91-27.81L85.92,603.57z M190.15,539.21
						c-24.48,0-48.17-8.78-66.7-24.74l-0.44-0.38l0.37-0.45l49.11-59.35l0.46,0.49c4.46,4.77,10.7,7.51,17.12,7.51
						c5.47,0,10.82-1.99,15.05-5.6c0.09-0.08,0.17-0.17,0.25-0.26c0.1-0.12,0.2-0.23,0.31-0.34l0.45-0.41l12.89,14.82l-10.94,5.18
						l8.37,22.52l19.71-9.81l22.26,24.23l-0.44,0.4c-0.28,0.25-0.54,0.5-0.81,0.76c-0.41,0.39-0.82,0.78-1.25,1.15
						C237.58,530.59,214.22,539.21,190.15,539.21 M124.68,513.95c18.25,15.53,41.48,24.07,65.48,24.07
						c23.79,0,46.87-8.52,64.99-23.99c0.42-0.36,0.81-0.73,1.21-1.11c0.13-0.12,0.26-0.24,0.38-0.36l-20.85-22.69l-20.09,10
						l-9.2-24.78l10.5-4.98l-11.03-12.67c-0.05,0.06-0.11,0.11-0.17,0.16c-4.45,3.8-10.07,5.89-15.82,5.89
						c-6.52,0-12.87-2.69-17.52-7.4L124.68,513.95z"/>
					<path class="st2" d="M253.34,624.15l-0.21-0.59l-27.03-74.13c-24.29,7.49-50.77,6.85-74.72-1.81l-28.93,74.93l-15.49-6.63
						l0.22-0.55l81.37-200.89l1.01,0.41l0.35-0.15l86.75,199.85L253.34,624.15z M226.83,547.94l0.19,0.54l27.01,74.08l21.04-8.62
						L189.2,416.08l-80.68,199.19l13.26,5.68l28.9-74.87l0.56,0.2c24.03,8.83,50.68,9.48,75.05,1.83L226.83,547.94z M191.45,539.01
						c-11.9,0-23.79-2.05-35.01-6.15l-0.58-0.21l33.74-87.4l32.32,89.12l-0.61,0.18C211.63,537.53,201.54,539.01,191.45,539.01
						 M157.42,531.94c20.15,7.21,42.45,7.79,62.93,1.65l-30.79-84.92L157.42,531.94z"/>
					<path class="st2" d="M189.58,446.96l31.56,87.03c-21.16,6.48-43.82,5.85-64.49-1.69L189.58,446.96z M189.11,414.71
						l-81.37,200.89l14.38,6.16l28.91-74.91c24.17,8.88,50.73,9.6,75.44,1.84l27.22,74.67l22.18-9.09l-86.5-199.29"/>
				</g>
			</g>
		</g>
	</g>
</g>
</svg>
