<?xml version="1.0" encoding="utf-8"?>
<!-- Generator: Adobe Illustrator 26.0.2, SVG Export Plug-In . SVG Version: 6.00 Build 0)  -->
<svg version="1.1" id="Livello_1" xmlns="http://www.w3.org/2000/svg" xmlns:xlink="http://www.w3.org/1999/xlink" x="0px" y="0px"
	 viewBox="0 0 332.41 103.98" style="enable-background:new 0 0 332.41 103.98;" xml:space="preserve">
<style type="text/css">
	.st0{fill:none;stroke:#20747C;stroke-width:0.751;stroke-miterlimit:97.346;}
	.st1{fill:#20747C;}
</style>
<path class="st0" d="M65.78,64.99c-1.19,0.84-2.46,1.9-3.79,3.2c-1.34,1.3-2.72,2.67-4.15,4.11c-1.43,1.45-2.87,2.91-4.33,4.4
	c-1.46,1.49-2.87,2.82-4.24,4.02c-1.37,1.19-2.67,2.2-3.92,3.02s-2.38,1.29-3.4,1.4c-0.77,0.08-1.34-0.05-1.69-0.38
	c-0.36-0.34-0.59-0.82-0.71-1.44s-0.12-1.34-0.01-2.13c0.11-0.79,0.26-1.6,0.44-2.42c0.18-0.82,0.38-1.59,0.61-2.3
	c0.23-0.72,0.42-1.31,0.58-1.79c0.51-1.55,1.08-3.17,1.7-4.87c0.62-1.7,1.24-3.35,1.85-4.96c0.61-1.61,1.19-3.1,1.74-4.47
	c0.55-1.37,1.02-2.51,1.43-3.4c-0.91,1.13-2.13,2.44-3.66,3.96c-1.53,1.51-3.28,2.97-5.24,4.39c-1.97,1.41-4.12,2.66-6.45,3.74
	c-2.34,1.08-4.77,1.75-7.3,2.02c-0.02,0.53-0.14,1.06-0.37,1.58c-0.23,0.52-0.53,1.01-0.89,1.45c-0.36,0.45-0.78,0.82-1.27,1.12
	c-0.48,0.3-1.01,0.48-1.57,0.54c-1.12,0.12-1.86-0.16-2.19-0.84c-0.34-0.68-0.4-1.49-0.18-2.43c0.22-0.95,0.64-1.92,1.26-2.93
	c0.62-1.01,1.33-1.77,2.13-2.28c0.37-0.22,0.67-0.26,0.89-0.12c0.23,0.14,0.09,0.39-0.4,0.76c-0.69,0.53-1.33,1.24-1.94,2.12
	c-0.6,0.88-1.02,1.74-1.27,2.59c-0.25,0.84-0.26,1.55-0.04,2.14c0.22,0.58,0.81,0.82,1.75,0.72c1.05-0.11,1.93-0.61,2.61-1.5
	c0.69-0.89,1.07-1.85,1.14-2.89c-0.18,0.02-0.39,0.05-0.66,0.1c-0.26,0.05-0.54,0.07-0.82,0.06c-0.64,0.03-1.09-0.07-1.36-0.31
	c-0.27-0.24-0.39-0.49-0.35-0.76c0.04-0.27,0.22-0.54,0.53-0.8c0.31-0.26,0.73-0.42,1.26-0.48c0.6-0.06,1.02,0.11,1.28,0.51
	c0.26,0.4,0.39,0.85,0.41,1.34c2.71-0.28,5.28-1.02,7.74-2.2c2.45-1.18,4.68-2.53,6.69-4.06c2.01-1.52,3.76-3.07,5.27-4.63
	c1.51-1.56,2.66-2.86,3.48-3.91l-0.01-0.05c0.14-0.33,0.44-0.98,0.89-1.93c0.45-0.95,0.97-2.06,1.57-3.31
	c0.6-1.25,1.25-2.56,1.96-3.94c0.71-1.37,1.39-2.63,2.05-3.79c0.66-1.15,1.27-2.11,1.83-2.86s1-1.14,1.32-1.18
	c0.35-0.04,0.4,0.3,0.16,1c-0.25,0.7-0.65,1.6-1.21,2.69c-0.56,1.09-1.23,2.29-1.99,3.59c-0.77,1.31-1.51,2.53-2.23,3.67
	c-0.72,1.14-1.34,2.12-1.88,2.94c-0.54,0.82-0.85,1.31-0.94,1.46c-0.17,0.37-0.56,1.28-1.15,2.71c-0.6,1.43-1.28,3.12-2.05,5.07
	c-0.77,1.95-1.57,4.05-2.4,6.3c-0.83,2.25-1.58,4.39-2.26,6.42c-0.19,0.59-0.47,1.45-0.85,2.59c-0.38,1.14-0.67,2.28-0.87,3.42
	c-0.2,1.14-0.2,2.12-0.01,2.93c0.19,0.81,0.76,1.17,1.71,1.07s2.02-0.53,3.22-1.3c1.2-0.77,2.46-1.74,3.8-2.93
	c1.33-1.19,2.71-2.51,4.14-3.95c1.43-1.45,2.86-2.89,4.29-4.34c1.43-1.45,2.84-2.83,4.23-4.15c1.39-1.32,2.71-2.43,3.96-3.35
	L65.78,64.99z M24.92,70.77c-0.04-0.42-0.17-0.8-0.39-1.13c-0.21-0.33-0.57-0.47-1.06-0.42c-0.42,0.04-0.77,0.16-1.03,0.35
	c-0.27,0.19-0.41,0.39-0.44,0.61c-0.03,0.22,0.07,0.4,0.3,0.55c0.23,0.15,0.61,0.22,1.14,0.2c0.28,0.01,0.56-0.01,0.82-0.06
	C24.53,70.82,24.75,70.79,24.92,70.77z M57.9,39.22c-0.21,0.02-0.52,0.32-0.92,0.9c-0.4,0.58-0.85,1.31-1.34,2.22
	c-0.49,0.9-1.01,1.88-1.56,2.93c-0.55,1.05-1.04,2.06-1.49,3.03c-0.45,0.97-0.85,1.83-1.19,2.58c-0.35,0.75-0.58,1.25-0.69,1.51
	c0.09-0.12,0.36-0.53,0.8-1.23c0.44-0.7,0.96-1.55,1.57-2.54c0.61-0.99,1.23-2.03,1.88-3.13c0.65-1.1,1.22-2.12,1.73-3.06
	c0.5-0.94,0.89-1.72,1.14-2.33C58.09,39.5,58.11,39.2,57.9,39.22z M96.85,48.77c0.18-0.02,0.25,0.02,0.22,0.11
	c-0.03,0.09-0.13,0.16-0.3,0.22l-23.71,3.08c-0.25,0.63-0.68,1.67-1.27,3.12c-0.59,1.45-1.26,3.12-2.01,5.01
	c-0.74,1.89-1.51,3.88-2.3,5.97c-0.79,2.09-1.5,4.09-2.11,6c-0.19,0.59-0.47,1.45-0.85,2.59c-0.38,1.14-0.67,2.28-0.87,3.42
	c-0.2,1.14-0.2,2.12-0.01,2.93c0.19,0.81,0.76,1.17,1.71,1.07c0.98-0.1,2.08-0.54,3.27-1.3c1.2-0.77,2.45-1.74,3.77-2.93
	c1.31-1.19,2.69-2.5,4.11-3.95c1.43-1.45,2.86-2.89,4.29-4.34c1.43-1.45,2.84-2.83,4.23-4.15c1.39-1.32,2.71-2.43,3.96-3.35
	l0.13,0.25c-1.16,0.83-2.41,1.9-3.77,3.19c-1.36,1.3-2.75,2.67-4.18,4.12c-1.43,1.45-2.87,2.91-4.33,4.4
	c-1.46,1.49-2.87,2.82-4.24,4.02c-1.37,1.19-2.67,2.2-3.92,3.02c-1.25,0.82-2.38,1.29-3.4,1.4c-1.12,0.12-1.84-0.22-2.16-1.03
	c-0.31-0.8-0.4-1.79-0.26-2.96c0.14-1.17,0.4-2.37,0.77-3.6c0.37-1.23,0.68-2.19,0.92-2.89c0.56-1.73,1.19-3.54,1.88-5.42
	c0.69-1.88,1.37-3.7,2.04-5.44c0.67-1.74,1.3-3.31,1.88-4.7c0.58-1.39,1.03-2.46,1.34-3.21l0.57-1.18l-11.9,1.89
	c-0.18,0.02-0.25-0.09-0.22-0.32c0.03-0.23,0.15-0.36,0.36-0.38l11.98-1.63c0.35-0.75,0.77-1.63,1.27-2.66
	c0.5-1.03,1.02-2.11,1.58-3.23c0.56-1.12,1.13-2.25,1.72-3.38c0.59-1.13,1.16-2.14,1.71-3.03c0.55-0.89,1.05-1.62,1.5-2.18
	c0.46-0.56,0.82-0.86,1.11-0.89c0.32-0.03,0.36,0.29,0.13,0.97c-0.23,0.68-0.62,1.55-1.17,2.6c-0.55,1.05-1.19,2.21-1.93,3.48
	c-0.74,1.27-1.46,2.47-2.18,3.61c-0.72,1.14-1.35,2.14-1.9,3c-0.55,0.86-0.9,1.4-1.05,1.63L96.85,48.77z M81.25,36.77
	c-0.21,0.02-0.52,0.32-0.92,0.9c-0.4,0.58-0.85,1.31-1.34,2.22c-0.49,0.9-1,1.88-1.53,2.93c-0.53,1.05-1.03,2.06-1.49,3.03
	c-0.47,0.97-0.87,1.83-1.22,2.58c-0.35,0.75-0.58,1.25-0.69,1.51c0.09-0.12,0.36-0.53,0.8-1.23c0.44-0.7,0.96-1.55,1.57-2.54
	c0.61-0.99,1.23-2.03,1.88-3.13c0.65-1.1,1.22-2.12,1.73-3.06c0.5-0.94,0.89-1.72,1.14-2.33C81.44,37.04,81.47,36.75,81.25,36.77z
	 M97.57,59.35c0.08,0.1,0.08,0.18,0,0.24c-0.08,0.06-0.16,0.06-0.24,0c-0.12-0.16-0.29-0.26-0.48-0.3c-0.2-0.03-0.4-0.04-0.61-0.02
	c-0.84,0.09-1.66,0.57-2.46,1.43c-0.8,0.87-1.53,1.88-2.21,3.03c-0.68,1.16-1.27,2.33-1.79,3.52c-0.51,1.19-0.91,2.16-1.19,2.9
	l-0.16,0.55c-0.07,0.33-0.24,0.5-0.51,0.51c-0.27,0.01-0.38-0.13-0.34-0.42c0.4-1.96,0.8-3.79,1.21-5.48s0.81-3.52,1.21-5.48
	c0.07-0.36,0.24-0.54,0.53-0.54c0.28,0.01,0.39,0.15,0.31,0.45c-0.28,1.38-0.56,2.65-0.82,3.82c-0.27,1.17-0.56,2.44-0.88,3.82
	c0.36-0.93,0.82-1.87,1.35-2.83c0.54-0.96,1.12-1.84,1.75-2.64c0.63-0.79,1.28-1.46,1.95-1.99c0.67-0.53,1.36-0.84,2.06-0.91
	c0.28-0.03,0.53-0.02,0.75,0.03C97.22,59.09,97.41,59.19,97.57,59.35z M108.85,60.41c-0.26,0.21-0.88,0.61-1.84,1.21
	c-0.97,0.6-2.05,1.24-3.26,1.92c-1.21,0.68-2.43,1.29-3.67,1.85s-2.26,0.89-3.06,1.01c-0.63,0.1-1.04,0.01-1.23-0.27
	c-0.19-0.28-0.22-0.66-0.09-1.14c0.13-0.47,0.39-1.01,0.79-1.6c0.4-0.59,0.87-1.15,1.4-1.67c0.53-0.52,1.09-0.97,1.67-1.35
	c0.58-0.38,1.14-0.6,1.66-0.65c0.81-0.08,1.17,0.12,1.08,0.61c-0.09,0.49-0.52,0.99-1.28,1.49c-0.46,0.33-1.04,0.63-1.74,0.9
	c-0.7,0.27-1.47,0.47-2.31,0.59c-0.28,0.38-0.51,0.77-0.71,1.14c-0.19,0.38-0.3,0.7-0.32,0.97c-0.03,0.27,0.05,0.47,0.22,0.59
	c0.17,0.12,0.47,0.16,0.89,0.12c0.73-0.11,1.72-0.45,2.96-1s2.46-1.17,3.67-1.85c1.21-0.68,2.29-1.32,3.26-1.92
	c0.97-0.6,1.57-0.98,1.8-1.15L108.85,60.41z M101.12,60.42c-0.63,0.07-1.3,0.35-1.99,0.85c-0.69,0.5-1.31,1.06-1.85,1.69
	c0.73-0.11,1.41-0.29,2.02-0.53c0.61-0.24,1.14-0.51,1.57-0.8c0.13-0.12,0.28-0.25,0.44-0.39c0.16-0.14,0.28-0.28,0.36-0.41
	c0.07-0.13,0.08-0.24,0.02-0.32C101.63,60.41,101.44,60.39,101.12,60.42z M160.56,55.02c-1.16,0.83-2.41,1.9-3.77,3.19
	c-1.36,1.3-2.75,2.67-4.18,4.12c-1.43,1.45-2.87,2.91-4.33,4.4c-1.46,1.49-2.87,2.82-4.24,4.02c-1.37,1.19-2.67,2.2-3.92,3.02
	c-1.25,0.82-2.38,1.29-3.4,1.4c-0.74,0.08-1.29-0.05-1.67-0.38c-0.37-0.33-0.61-0.82-0.71-1.44c-0.1-0.63-0.1-1.34,0.02-2.13
	c0.11-0.79,0.26-1.6,0.44-2.42c0.18-0.82,0.38-1.59,0.61-2.3c0.23-0.72,0.42-1.31,0.58-1.79c0.53-1.69,1.14-3.46,1.81-5.31
	c0.68-1.85,1.35-3.62,2.02-5.33c0.67-1.7,1.29-3.25,1.86-4.65c0.56-1.39,1.02-2.48,1.36-3.26c-1.28,1.73-2.74,3.56-4.38,5.47
	c-1.65,1.91-3.37,3.69-5.17,5.34c-1.8,1.65-3.63,3.05-5.5,4.2c-1.87,1.16-3.68,1.83-5.44,2.01c-0.74,0.08-1.16-0.2-1.26-0.83
	c-0.1-0.63-0.05-1.38,0.16-2.26c0.21-0.87,0.49-1.74,0.85-2.59c0.35-0.85,0.6-1.45,0.75-1.78c0.08-0.22,0.27-0.29,0.56-0.22
	c0.29,0.08,0.38,0.24,0.27,0.5c-0.15,0.3-0.41,0.83-0.79,1.6c-0.38,0.77-0.71,1.56-0.98,2.37c-0.27,0.81-0.41,1.51-0.42,2.1
	c-0.01,0.59,0.3,0.85,0.93,0.78c1.76-0.18,3.59-0.89,5.51-2.12c1.91-1.23,3.81-2.73,5.68-4.49c1.88-1.76,3.66-3.64,5.35-5.65
	c1.69-2.01,3.17-3.88,4.45-5.61c0.28-0.67,0.67-1.52,1.17-2.55c0.5-1.03,1.03-2.13,1.6-3.31c0.57-1.18,1.17-2.37,1.81-3.57
	c0.64-1.2,1.24-2.29,1.82-3.26c0.57-0.97,1.1-1.76,1.59-2.38c0.49-0.62,0.89-0.95,1.2-0.98c0.32-0.03,0.37,0.27,0.15,0.92
	c-0.22,0.64-0.58,1.48-1.09,2.51c-0.51,1.03-1.14,2.16-1.88,3.4c-0.74,1.23-1.47,2.43-2.18,3.59c-0.71,1.16-1.36,2.19-1.94,3.08
	c-0.58,0.9-0.98,1.52-1.19,1.86c-0.17,0.37-0.56,1.28-1.15,2.71c-0.6,1.43-1.28,3.12-2.05,5.07c-0.77,1.95-1.57,4.05-2.4,6.3
	c-0.83,2.25-1.56,4.39-2.2,6.41c-0.14,0.37-0.31,0.89-0.53,1.57c-0.21,0.68-0.43,1.4-0.65,2.15c-0.22,0.75-0.41,1.52-0.56,2.3
	c-0.15,0.78-0.2,1.48-0.15,2.09c0.05,0.62,0.2,1.11,0.47,1.47c0.27,0.36,0.72,0.51,1.35,0.44c0.98-0.1,2.08-0.54,3.27-1.3
	c1.2-0.77,2.45-1.74,3.77-2.93c1.31-1.19,2.69-2.5,4.11-3.95c1.43-1.45,2.86-2.89,4.29-4.34c1.43-1.45,2.84-2.83,4.23-4.15
	c1.39-1.32,2.71-2.43,3.96-3.35L160.56,55.02z M124.42,53.39c-0.12-0.09-0.05-0.44,0.21-1.03c0.11-0.26,0.24-0.48,0.38-0.65
	s0.23-0.26,0.26-0.27c0.15,0.06,0.08,0.4-0.21,1.03c-0.11,0.26-0.23,0.48-0.36,0.65C124.59,53.29,124.49,53.38,124.42,53.39z
	 M152.69,29.26c-0.21,0.02-0.49,0.29-0.85,0.81c-0.35,0.52-0.76,1.18-1.23,1.99c-0.47,0.81-0.94,1.72-1.42,2.71
	c-0.48,0.99-0.95,1.96-1.4,2.89c-0.45,0.94-0.87,1.81-1.24,2.61c-0.38,0.8-0.65,1.41-0.82,1.82c0.19-0.27,0.51-0.78,0.98-1.54
	c0.47-0.76,1-1.62,1.6-2.57c0.59-0.95,1.19-1.95,1.79-2.99c0.6-1.04,1.12-1.98,1.57-2.83c0.44-0.85,0.77-1.55,0.98-2.1
	C152.85,29.51,152.86,29.24,152.69,29.26z M187.18,52.23c-1.63,1.02-3.27,2.08-4.91,3.18c-1.64,1.1-3.26,2.23-4.84,3.39
	c-0.48,0.8-1.01,1.55-1.58,2.24s-1.12,1.31-1.67,1.83c-0.52,0.45-0.98,0.75-1.37,0.92c-0.39,0.17-0.65,0.2-0.79,0.11
	c-0.13-0.09-0.1-0.33,0.11-0.7c0.21-0.38,0.65-0.89,1.33-1.53c0.45-0.44,1-0.91,1.64-1.42c0.64-0.51,1.35-1.06,2.15-1.64
	c0.18-0.3,0.46-0.82,0.85-1.55c0.38-0.73,0.69-1.48,0.91-2.23c0.22-0.75,0.29-1.4,0.2-1.94c-0.09-0.54-0.49-0.77-1.19-0.7
	c-0.49,0.05-1.07,0.34-1.75,0.88c-0.67,0.53-1.49,1.51-2.44,2.92c-0.28,1.09-0.57,2.16-0.89,3.18c-0.32,1.03-0.63,1.93-0.94,2.71
	l-0.21,0.55c-0.34,0.85-0.76,1.79-1.28,2.83c-0.51,1.03-1.07,2.08-1.67,3.16c-0.6,1.08-1.21,2.12-1.83,3.12
	c-0.62,1.01-1.23,1.9-1.82,2.67c-1.09,1.43-2.14,2.56-3.13,3.39c-1,0.83-1.73,1.25-2.21,1.25c-0.48,0-0.57-0.48-0.28-1.44
	c0.29-0.95,1.21-2.51,2.76-4.66c1.29-1.88,2.66-3.64,4.11-5.28c1.44-1.64,3.01-3.25,4.69-4.81c0.65-1.56,1.2-3.36,1.64-5.4
	c0.44-2.04,0.81-3.9,1.09-5.6c0.07-0.36,0.25-0.56,0.55-0.59c0.3-0.03,0.41,0.13,0.35,0.5c-0.11,0.62-0.24,1.23-0.37,1.85
	c-0.13,0.62-0.27,1.24-0.42,1.86c0.99-1.38,1.81-2.34,2.47-2.87c0.65-0.53,1.23-0.82,1.72-0.87c0.77-0.08,1.23,0.15,1.38,0.68
	c0.14,0.54,0.12,1.19-0.06,1.95c-0.19,0.77-0.45,1.54-0.8,2.32c-0.34,0.78-0.62,1.36-0.83,1.74c1.48-1.11,2.99-2.19,4.54-3.22
	c1.54-1.03,3.12-2.04,4.72-3.03L187.18,52.23z M164.96,74.07c0.56-0.77,1.11-1.61,1.65-2.52c0.54-0.91,1.07-1.84,1.57-2.78
	c0.51-0.94,0.98-1.88,1.44-2.82c0.45-0.94,0.86-1.83,1.24-2.69c-1.58,1.48-3.05,3-4.4,4.57c-1.35,1.56-2.65,3.23-3.92,5
	c-1.49,2.07-2.37,3.55-2.65,4.44c-0.28,0.88-0.21,1.3,0.21,1.26c0.42-0.04,1.1-0.47,2.02-1.28C163.05,76.43,164,75.38,164.96,74.07z
	 M174.05,62.61c0.46-0.4,0.93-0.9,1.42-1.48c0.49-0.58,0.95-1.2,1.38-1.85c-1.35,0.99-2.43,1.85-3.25,2.58
	c-0.58,0.56-0.96,0.98-1.15,1.27c-0.18,0.29-0.24,0.46-0.16,0.52c0.08,0.06,0.28,0.01,0.6-0.17
	C173.2,63.31,173.59,63.02,174.05,62.61z M195.78,49.03c0.08,0.1,0.08,0.18,0,0.24c-0.08,0.06-0.16,0.06-0.24,0
	c-0.12-0.16-0.29-0.26-0.48-0.3c-0.2-0.03-0.4-0.04-0.61-0.02c-0.84,0.09-1.66,0.57-2.46,1.43c-0.8,0.87-1.53,1.88-2.21,3.03
	c-0.68,1.16-1.27,2.33-1.79,3.52c-0.51,1.19-0.91,2.16-1.19,2.9l-0.16,0.55c-0.07,0.33-0.24,0.5-0.51,0.51
	c-0.27,0.01-0.38-0.13-0.34-0.42c0.4-1.96,0.8-3.79,1.21-5.48s0.81-3.52,1.21-5.48c0.07-0.36,0.24-0.54,0.53-0.54
	c0.28,0.01,0.39,0.15,0.31,0.45c-0.28,1.38-0.56,2.65-0.82,3.82c-0.27,1.17-0.56,2.44-0.88,3.82c0.36-0.93,0.82-1.87,1.35-2.83
	c0.54-0.96,1.12-1.84,1.75-2.64c0.63-0.79,1.28-1.46,1.95-1.99c0.67-0.53,1.36-0.84,2.06-0.91c0.28-0.03,0.53-0.02,0.75,0.03
	C195.43,48.77,195.62,48.87,195.78,49.03z M206.41,50.21c-1.09,0.79-2.1,1.49-3.03,2.1c-0.93,0.61-1.78,1.14-2.55,1.57
	c-1.65,0.88-2.91,1.37-3.79,1.46c-0.74,0.08-1.16-0.2-1.26-0.83c-0.1-0.63-0.05-1.38,0.16-2.26c0.21-0.87,0.49-1.74,0.85-2.59
	c0.35-0.85,0.6-1.45,0.75-1.78c0.08-0.22,0.27-0.29,0.56-0.22c0.29,0.08,0.38,0.24,0.27,0.5c-0.15,0.3-0.41,0.83-0.79,1.6
	c-0.38,0.77-0.71,1.56-0.98,2.37c-0.27,0.81-0.41,1.51-0.42,2.1c-0.01,0.59,0.3,0.85,0.93,0.78c0.88-0.09,2.09-0.57,3.63-1.45
	c0.77-0.4,1.63-0.91,2.56-1.52c0.93-0.61,1.92-1.31,2.98-2.1L206.41,50.21z M198.88,45.56c-0.12-0.09-0.05-0.44,0.21-1.03
	c0.15-0.26,0.29-0.48,0.41-0.66c0.12-0.17,0.2-0.26,0.24-0.26c0.15,0.06,0.08,0.4-0.21,1.03c-0.11,0.26-0.23,0.48-0.36,0.65
	C199.05,45.46,198.95,45.55,198.88,45.56z M217.62,41.78c0.13-0.12,0.22-0.15,0.28-0.08c0.06,0.07,0.01,0.18-0.15,0.34
	c-0.36,0.32-0.77,0.85-1.24,1.6c-0.47,0.74-1.01,1.58-1.6,2.51c-0.59,0.93-1.23,1.91-1.9,2.94c-0.67,1.03-1.36,1.97-2.07,2.83
	c-0.71,0.86-1.44,1.57-2.2,2.15c-0.76,0.58-1.49,0.9-2.19,0.98c-0.46,0.05-0.76-0.08-0.92-0.38c-0.16-0.3-0.22-0.7-0.21-1.2
	c0.02-0.5,0.11-1.07,0.27-1.71c0.16-0.64,0.36-1.25,0.58-1.85c0.22-0.59,0.43-1.13,0.63-1.61c0.2-0.48,0.36-0.84,0.47-1.06
	c0.11-0.26,0.28-0.38,0.5-0.35s0.3,0.14,0.25,0.32c-0.11,0.3-0.36,0.86-0.75,1.7c-0.39,0.84-0.75,1.7-1.06,2.59
	c-0.31,0.89-0.49,1.67-0.53,2.35s0.23,0.99,0.79,0.93c0.67-0.07,1.36-0.39,2.08-0.97c0.72-0.57,1.44-1.29,2.15-2.14
	c0.71-0.86,1.39-1.79,2.05-2.8c0.66-1.01,1.28-1.98,1.88-2.92c0.59-0.93,1.14-1.78,1.62-2.54C216.84,42.64,217.26,42.1,217.62,41.78
	z M256.64,44.93c-1.16,0.83-2.41,1.9-3.77,3.19c-1.36,1.3-2.75,2.67-4.18,4.12c-1.43,1.45-2.87,2.91-4.33,4.4
	c-1.46,1.49-2.87,2.82-4.24,4.02c-1.37,1.19-2.67,2.2-3.92,3.02s-2.38,1.29-3.4,1.4c-0.74,0.08-1.29-0.05-1.67-0.38
	c-0.37-0.33-0.61-0.82-0.71-1.44c-0.1-0.63-0.1-1.34,0.02-2.13c0.11-0.79,0.26-1.6,0.44-2.42c0.18-0.82,0.38-1.59,0.61-2.3
	c0.23-0.72,0.42-1.31,0.58-1.79c0.53-1.69,1.14-3.46,1.81-5.31c0.68-1.85,1.35-3.62,2.02-5.33c0.67-1.7,1.29-3.25,1.86-4.65
	c0.56-1.39,1.02-2.48,1.36-3.26c-1.28,1.73-2.74,3.56-4.38,5.47c-1.65,1.91-3.37,3.69-5.17,5.34c-1.8,1.65-3.63,3.05-5.5,4.2
	c-1.87,1.16-3.68,1.83-5.44,2.01c-0.74,0.08-1.16-0.2-1.26-0.83c-0.1-0.63-0.05-1.38,0.16-2.26c0.21-0.87,0.49-1.74,0.85-2.59
	c0.35-0.85,0.6-1.45,0.75-1.78c0.08-0.22,0.27-0.29,0.56-0.22c0.29,0.08,0.38,0.24,0.27,0.5c-0.15,0.3-0.41,0.83-0.79,1.6
	c-0.38,0.77-0.71,1.56-0.98,2.37c-0.27,0.81-0.41,1.51-0.42,2.1c-0.01,0.59,0.3,0.85,0.93,0.78c1.76-0.18,3.59-0.89,5.51-2.12
	c1.91-1.23,3.81-2.73,5.68-4.49c1.88-1.76,3.66-3.64,5.35-5.65c1.69-2.01,3.17-3.88,4.45-5.61c0.28-0.67,0.67-1.52,1.17-2.55
	c0.5-1.03,1.03-2.13,1.6-3.31s1.17-2.37,1.81-3.57c0.64-1.2,1.24-2.29,1.82-3.26c0.57-0.97,1.1-1.76,1.59-2.38
	c0.49-0.62,0.89-0.95,1.2-0.98c0.32-0.03,0.37,0.27,0.15,0.92c-0.22,0.64-0.58,1.48-1.09,2.51c-0.51,1.03-1.14,2.16-1.88,3.4
	c-0.74,1.23-1.47,2.43-2.18,3.59c-0.71,1.16-1.36,2.19-1.94,3.08c-0.58,0.9-0.98,1.52-1.19,1.86c-0.17,0.37-0.56,1.28-1.15,2.71
	c-0.6,1.43-1.28,3.12-2.05,5.07c-0.77,1.95-1.57,4.05-2.4,6.3c-0.83,2.25-1.56,4.39-2.2,6.41c-0.14,0.37-0.31,0.89-0.53,1.57
	c-0.21,0.68-0.43,1.4-0.65,2.15c-0.22,0.75-0.41,1.52-0.56,2.3c-0.15,0.78-0.2,1.48-0.15,2.09c0.05,0.62,0.2,1.11,0.47,1.47
	c0.27,0.36,0.72,0.51,1.35,0.44c0.98-0.1,2.08-0.54,3.27-1.3s2.45-1.74,3.77-2.93c1.31-1.19,2.69-2.5,4.11-3.95
	c1.43-1.45,2.86-2.89,4.29-4.34c1.43-1.45,2.84-2.83,4.23-4.15c1.39-1.32,2.71-2.43,3.96-3.35L256.64,44.93z M220.49,43.29
	c-0.12-0.09-0.05-0.44,0.21-1.03c0.11-0.26,0.24-0.48,0.38-0.65s0.23-0.26,0.26-0.27c0.15,0.06,0.08,0.4-0.21,1.03
	c-0.11,0.26-0.23,0.48-0.36,0.65C220.66,43.19,220.56,43.28,220.49,43.29z M248.76,19.16c-0.21,0.02-0.49,0.29-0.85,0.81
	c-0.35,0.52-0.76,1.18-1.23,1.99c-0.47,0.81-0.94,1.72-1.42,2.71c-0.48,0.99-0.95,1.96-1.4,2.89c-0.45,0.94-0.87,1.81-1.24,2.61
	c-0.38,0.8-0.65,1.41-0.82,1.82c0.19-0.27,0.51-0.78,0.98-1.54c0.47-0.76,1-1.62,1.6-2.57c0.59-0.95,1.19-1.95,1.79-2.99
	c0.6-1.04,1.12-1.98,1.57-2.83c0.44-0.85,0.77-1.55,0.98-2.1C248.92,19.41,248.94,19.14,248.76,19.16z M269.53,43.52
	c-0.26,0.21-0.88,0.61-1.85,1.21c-0.97,0.6-2.05,1.24-3.26,1.92c-1.21,0.68-2.43,1.29-3.67,1.85s-2.26,0.89-3.06,1.01
	c-0.63,0.1-1.04,0.01-1.23-0.27c-0.19-0.28-0.22-0.66-0.09-1.14c0.13-0.47,0.39-1.01,0.79-1.6c0.4-0.59,0.87-1.15,1.4-1.67
	c0.53-0.52,1.09-0.97,1.67-1.35c0.58-0.38,1.14-0.6,1.66-0.65c0.81-0.08,1.17,0.12,1.08,0.61c-0.09,0.49-0.52,0.99-1.28,1.49
	c-0.46,0.33-1.04,0.63-1.74,0.9c-0.7,0.27-1.47,0.47-2.31,0.59c-0.28,0.38-0.51,0.77-0.71,1.14c-0.19,0.38-0.3,0.7-0.32,0.97
	c-0.03,0.27,0.05,0.47,0.22,0.59s0.47,0.16,0.89,0.12c0.73-0.11,1.72-0.45,2.96-1c1.24-0.56,2.46-1.17,3.67-1.85
	c1.21-0.68,2.29-1.32,3.26-1.92c0.97-0.6,1.57-0.98,1.8-1.15L269.53,43.52z M261.8,43.53c-0.63,0.07-1.3,0.35-1.99,0.85
	c-0.69,0.5-1.31,1.06-1.85,1.69c0.73-0.11,1.41-0.29,2.02-0.53c0.61-0.24,1.14-0.51,1.57-0.8c0.13-0.12,0.28-0.25,0.44-0.39
	c0.16-0.14,0.28-0.28,0.36-0.41c0.07-0.13,0.08-0.24,0.02-0.32C262.31,43.52,262.12,43.5,261.8,43.53z M285.29,41.92
	c-2.18,1.58-4.24,3.16-6.19,4.73c-1.95,1.57-3.93,3.28-5.94,5.13c-0.34,0.85-0.76,1.79-1.28,2.83c-0.51,1.03-1.07,2.08-1.67,3.16
	s-1.21,2.12-1.83,3.12c-0.62,1.01-1.23,1.9-1.82,2.67c-1.09,1.43-2.14,2.56-3.13,3.39c-1,0.83-1.73,1.25-2.21,1.25
	c-0.48,0-0.57-0.48-0.28-1.44c0.29-0.95,1.21-2.51,2.76-4.66c1.29-1.88,2.66-3.64,4.11-5.28c1.44-1.64,3.01-3.25,4.69-4.81
	c0.59-1.45,1.08-2.97,1.46-4.58c0.38-1.6,0.72-3.34,1.02-5.22c-0.35,0.43-0.77,0.91-1.26,1.44c-0.5,0.53-1.02,1.04-1.57,1.52
	c-0.36,0.32-0.86,0.69-1.51,1.09c-0.65,0.41-1.22,0.63-1.71,0.69c-0.67,0.07-0.96-0.23-0.87-0.89c0.09-0.67,0.41-1.41,0.96-2.23
	c0.55-0.82,1.25-1.61,2.1-2.35c0.85-0.75,1.71-1.17,2.59-1.26c0.67-0.07,1.12,0.2,1.36,0.82c0.05,0.17-0.04,0.34-0.27,0.51
	c-0.23,0.17-0.37,0.16-0.43-0.01c-0.15-0.45-0.49-0.64-1.02-0.59c-0.77,0.08-1.54,0.44-2.29,1.07c-0.75,0.63-1.37,1.29-1.84,1.98
	c-0.48,0.69-0.77,1.32-0.87,1.88c-0.1,0.56,0.09,0.82,0.59,0.76c0.21-0.02,0.47-0.1,0.77-0.24c0.31-0.14,0.61-0.29,0.91-0.47
	c0.3-0.17,0.58-0.34,0.83-0.51c0.25-0.17,0.44-0.31,0.57-0.43c0.65-0.57,1.26-1.16,1.84-1.79c0.57-0.63,0.98-1.15,1.22-1.57
	l0.05-0.06c0.02-0.14,0.09-0.27,0.2-0.37c0.11-0.1,0.22-0.16,0.33-0.17c0.11-0.01,0.2,0.02,0.27,0.08c0.08,0.06,0.11,0.2,0.1,0.42
	c-0.3,1.91-0.66,3.65-1.1,5.21c-0.44,1.56-0.96,3.06-1.55,4.51c1.04-0.96,2.03-1.85,3-2.66c0.96-0.81,1.92-1.61,2.87-2.38
	c0.95-0.77,1.91-1.52,2.88-2.25c0.97-0.72,1.98-1.48,3.04-2.26L285.29,41.92z M266.34,63.41c0.56-0.77,1.11-1.61,1.65-2.52
	c0.54-0.91,1.07-1.84,1.57-2.78c0.51-0.94,0.98-1.88,1.44-2.82c0.45-0.94,0.86-1.83,1.24-2.69c-1.59,1.48-3.05,3-4.4,4.57
	c-1.35,1.56-2.65,3.23-3.92,5c-1.49,2.07-2.37,3.55-2.65,4.44c-0.28,0.88-0.21,1.3,0.21,1.26c0.42-0.04,1.1-0.47,2.02-1.28
	C264.43,65.78,265.38,64.72,266.34,63.41z M295.72,40.82c-1.09,0.79-2.1,1.49-3.03,2.1c-0.93,0.61-1.78,1.14-2.55,1.57
	c-1.65,0.88-2.91,1.37-3.79,1.46c-0.74,0.08-1.16-0.2-1.26-0.83c-0.1-0.63-0.05-1.38,0.16-2.26c0.21-0.87,0.49-1.74,0.85-2.59
	c0.35-0.85,0.6-1.45,0.75-1.78c0.08-0.22,0.27-0.29,0.56-0.22c0.29,0.08,0.38,0.24,0.27,0.5c-0.15,0.3-0.41,0.83-0.79,1.6
	c-0.38,0.77-0.71,1.56-0.98,2.37c-0.27,0.81-0.41,1.51-0.42,2.1c-0.01,0.59,0.3,0.85,0.93,0.78c0.88-0.09,2.09-0.57,3.63-1.45
	c0.77-0.4,1.63-0.91,2.56-1.52c0.93-0.61,1.92-1.31,2.98-2.1L295.72,40.82z M288.2,36.17c-0.12-0.09-0.05-0.44,0.21-1.03
	c0.15-0.26,0.29-0.48,0.41-0.66c0.12-0.17,0.2-0.26,0.24-0.26c0.15,0.06,0.08,0.4-0.21,1.03c-0.11,0.26-0.23,0.48-0.36,0.65
	C288.37,36.08,288.27,36.17,288.2,36.17z M313.78,38.92c-0.6,0.38-1.47,0.74-2.61,1.07c-1.14,0.33-2.33,0.64-3.58,0.91
	c-1.25,0.27-2.45,0.52-3.6,0.72c-1.15,0.21-2.02,0.35-2.62,0.41c-0.02,0.53-0.14,1.07-0.36,1.61c-0.23,0.54-0.52,1.03-0.88,1.48
	c-0.36,0.45-0.78,0.83-1.27,1.15c-0.48,0.32-1,0.51-1.57,0.56c-1.12,0.12-1.86-0.16-2.19-0.84c-0.34-0.68-0.4-1.5-0.18-2.49
	c0.22-0.98,0.64-1.98,1.26-2.98c0.62-1.01,1.33-1.77,2.13-2.28c0.37-0.22,0.67-0.26,0.89-0.12c0.23,0.14,0.09,0.39-0.4,0.76
	c-0.69,0.53-1.33,1.25-1.93,2.15c-0.6,0.9-1.02,1.78-1.27,2.64c-0.25,0.86-0.26,1.58-0.04,2.16c0.22,0.58,0.81,0.82,1.75,0.72
	c0.53-0.06,1.01-0.22,1.44-0.5c0.43-0.28,0.81-0.63,1.14-1.05c0.33-0.43,0.59-0.9,0.78-1.41c0.19-0.52,0.32-1.03,0.37-1.53
	c-0.18,0.02-0.39,0.05-0.66,0.1c-0.26,0.05-0.54,0.07-0.82,0.06c-0.64,0.03-1.09-0.07-1.36-0.31c-0.27-0.24-0.39-0.49-0.35-0.76
	c0.04-0.27,0.22-0.54,0.53-0.8c0.31-0.26,0.73-0.42,1.26-0.48c0.6-0.06,1.03,0.1,1.31,0.5c0.27,0.4,0.4,0.85,0.38,1.35
	c0.6-0.06,1.46-0.19,2.6-0.38c1.13-0.19,2.33-0.42,3.58-0.7c1.25-0.27,2.44-0.58,3.58-0.91c1.14-0.33,2.01-0.69,2.61-1.07
	L313.78,38.92z M301.08,41.75c-0.04-0.42-0.17-0.8-0.39-1.13c-0.21-0.33-0.57-0.47-1.06-0.42c-0.42,0.04-0.77,0.16-1.03,0.35
	c-0.27,0.19-0.41,0.39-0.44,0.61c-0.03,0.22,0.07,0.4,0.3,0.55c0.23,0.15,0.61,0.22,1.14,0.2c0.28,0.01,0.56-0.01,0.82-0.06
	C300.68,41.8,300.9,41.77,301.08,41.75z"/>
<path class="st1" d="M65.78,64.99c-1.19,0.84-2.46,1.9-3.79,3.2c-1.34,1.3-2.72,2.67-4.15,4.11c-1.43,1.45-2.87,2.91-4.33,4.4
	c-1.46,1.49-2.87,2.82-4.24,4.02c-1.37,1.19-2.67,2.2-3.92,3.02s-2.38,1.29-3.4,1.4c-0.77,0.08-1.34-0.05-1.69-0.38
	c-0.36-0.34-0.59-0.82-0.71-1.44s-0.12-1.34-0.01-2.13c0.11-0.79,0.26-1.6,0.44-2.42c0.18-0.82,0.38-1.59,0.61-2.3
	c0.23-0.72,0.42-1.31,0.58-1.79c0.51-1.55,1.08-3.17,1.7-4.87c0.62-1.7,1.24-3.35,1.85-4.96c0.61-1.61,1.19-3.1,1.74-4.47
	c0.55-1.37,1.02-2.51,1.43-3.4c-0.91,1.13-2.13,2.44-3.66,3.96c-1.53,1.51-3.28,2.97-5.24,4.39c-1.97,1.41-4.12,2.66-6.45,3.74
	c-2.34,1.08-4.77,1.75-7.3,2.02c-0.02,0.53-0.14,1.06-0.37,1.58c-0.23,0.52-0.53,1.01-0.89,1.45c-0.36,0.45-0.78,0.82-1.27,1.12
	c-0.48,0.3-1.01,0.48-1.57,0.54c-1.12,0.12-1.86-0.16-2.19-0.84c-0.34-0.68-0.4-1.49-0.18-2.43c0.22-0.95,0.64-1.92,1.26-2.93
	c0.62-1.01,1.33-1.77,2.13-2.28c0.37-0.22,0.67-0.26,0.89-0.12c0.23,0.14,0.09,0.39-0.4,0.76c-0.69,0.53-1.33,1.24-1.94,2.12
	c-0.6,0.88-1.02,1.74-1.27,2.59c-0.25,0.84-0.26,1.55-0.04,2.14c0.22,0.58,0.81,0.82,1.75,0.72c1.05-0.11,1.93-0.61,2.61-1.5
	c0.69-0.89,1.07-1.85,1.14-2.89c-0.18,0.02-0.39,0.05-0.66,0.1c-0.26,0.05-0.54,0.07-0.82,0.06c-0.64,0.03-1.09-0.07-1.36-0.31
	c-0.27-0.24-0.39-0.49-0.35-0.76c0.04-0.27,0.22-0.54,0.53-0.8c0.31-0.26,0.73-0.42,1.26-0.48c0.6-0.06,1.02,0.11,1.28,0.51
	c0.26,0.4,0.39,0.85,0.41,1.34c2.71-0.28,5.28-1.02,7.74-2.2c2.45-1.18,4.68-2.53,6.69-4.06c2.01-1.52,3.76-3.07,5.27-4.63
	c1.51-1.56,2.66-2.86,3.48-3.91l-0.01-0.05c0.14-0.33,0.44-0.98,0.89-1.93c0.45-0.95,0.97-2.06,1.57-3.31
	c0.6-1.25,1.25-2.56,1.96-3.94c0.71-1.37,1.39-2.63,2.05-3.79c0.66-1.15,1.27-2.11,1.83-2.86s1-1.14,1.32-1.18
	c0.35-0.04,0.4,0.3,0.16,1c-0.25,0.7-0.65,1.6-1.21,2.69c-0.56,1.09-1.23,2.29-1.99,3.59c-0.77,1.31-1.51,2.53-2.23,3.67
	c-0.72,1.14-1.34,2.12-1.88,2.94c-0.54,0.82-0.85,1.31-0.94,1.46c-0.17,0.37-0.56,1.28-1.15,2.71c-0.6,1.43-1.28,3.12-2.05,5.07
	c-0.77,1.95-1.57,4.05-2.4,6.3c-0.83,2.25-1.58,4.39-2.26,6.42c-0.19,0.59-0.47,1.45-0.85,2.59c-0.38,1.14-0.67,2.28-0.87,3.42
	c-0.2,1.14-0.2,2.12-0.01,2.93c0.19,0.81,0.76,1.17,1.71,1.07s2.02-0.53,3.22-1.3c1.2-0.77,2.46-1.74,3.8-2.93
	c1.33-1.19,2.71-2.51,4.14-3.95c1.43-1.45,2.86-2.89,4.29-4.34c1.43-1.45,2.84-2.83,4.23-4.15c1.39-1.32,2.71-2.43,3.96-3.35
	L65.78,64.99z M24.92,70.77c-0.04-0.42-0.17-0.8-0.39-1.13c-0.21-0.33-0.57-0.47-1.06-0.42c-0.42,0.04-0.77,0.16-1.03,0.35
	c-0.27,0.19-0.41,0.39-0.44,0.61c-0.03,0.22,0.07,0.4,0.3,0.55c0.23,0.15,0.61,0.22,1.14,0.2c0.28,0.01,0.56-0.01,0.82-0.06
	C24.53,70.82,24.75,70.79,24.92,70.77z M57.9,39.22c-0.21,0.02-0.52,0.32-0.92,0.9c-0.4,0.58-0.85,1.31-1.34,2.22
	c-0.49,0.9-1.01,1.88-1.56,2.93c-0.55,1.05-1.04,2.06-1.49,3.03c-0.45,0.97-0.85,1.83-1.19,2.58c-0.35,0.75-0.58,1.25-0.69,1.51
	c0.09-0.12,0.36-0.53,0.8-1.23c0.44-0.7,0.96-1.55,1.57-2.54c0.61-0.99,1.23-2.03,1.88-3.13c0.65-1.1,1.22-2.12,1.73-3.06
	c0.5-0.94,0.89-1.72,1.14-2.33C58.09,39.5,58.11,39.2,57.9,39.22z M96.85,48.77c0.18-0.02,0.25,0.02,0.22,0.11
	c-0.03,0.09-0.13,0.16-0.3,0.22l-23.71,3.08c-0.25,0.63-0.68,1.67-1.27,3.12c-0.59,1.45-1.26,3.12-2.01,5.01
	c-0.74,1.89-1.51,3.88-2.3,5.97c-0.79,2.09-1.5,4.09-2.11,6c-0.19,0.59-0.47,1.45-0.85,2.59c-0.38,1.14-0.67,2.28-0.87,3.42
	c-0.2,1.14-0.2,2.12-0.01,2.93c0.19,0.81,0.76,1.17,1.71,1.07c0.98-0.1,2.08-0.54,3.27-1.3c1.2-0.77,2.45-1.74,3.77-2.93
	c1.31-1.19,2.69-2.5,4.11-3.95c1.43-1.45,2.86-2.89,4.29-4.34c1.43-1.45,2.84-2.83,4.23-4.15c1.39-1.32,2.71-2.43,3.96-3.35
	l0.13,0.25c-1.16,0.83-2.41,1.9-3.77,3.19c-1.36,1.3-2.75,2.67-4.18,4.12c-1.43,1.45-2.87,2.91-4.33,4.4
	c-1.46,1.49-2.87,2.82-4.24,4.02c-1.37,1.19-2.67,2.2-3.92,3.02c-1.25,0.82-2.38,1.29-3.4,1.4c-1.12,0.12-1.84-0.22-2.16-1.03
	c-0.31-0.8-0.4-1.79-0.26-2.96c0.14-1.17,0.4-2.37,0.77-3.6c0.37-1.23,0.68-2.19,0.92-2.89c0.56-1.73,1.19-3.54,1.88-5.42
	c0.69-1.88,1.37-3.7,2.04-5.44c0.67-1.74,1.3-3.31,1.88-4.7c0.58-1.39,1.03-2.46,1.34-3.21l0.57-1.18l-11.9,1.89
	c-0.18,0.02-0.25-0.09-0.22-0.32c0.03-0.23,0.15-0.36,0.36-0.38l11.98-1.63c0.35-0.75,0.77-1.63,1.27-2.66
	c0.5-1.03,1.02-2.11,1.58-3.23c0.56-1.12,1.13-2.25,1.72-3.38c0.59-1.13,1.16-2.14,1.71-3.03c0.55-0.89,1.05-1.62,1.5-2.18
	c0.46-0.56,0.82-0.86,1.11-0.89c0.32-0.03,0.36,0.29,0.13,0.97c-0.23,0.68-0.62,1.55-1.17,2.6c-0.55,1.05-1.19,2.21-1.93,3.48
	c-0.74,1.27-1.46,2.47-2.18,3.61c-0.72,1.14-1.35,2.14-1.9,3c-0.55,0.86-0.9,1.4-1.05,1.63L96.85,48.77z M81.25,36.77
	c-0.21,0.02-0.52,0.32-0.92,0.9c-0.4,0.58-0.85,1.31-1.34,2.22c-0.49,0.9-1,1.88-1.53,2.93c-0.53,1.05-1.03,2.06-1.49,3.03
	c-0.47,0.97-0.87,1.83-1.22,2.58c-0.35,0.75-0.58,1.25-0.69,1.51c0.09-0.12,0.36-0.53,0.8-1.23c0.44-0.7,0.96-1.55,1.57-2.54
	c0.61-0.99,1.23-2.03,1.88-3.13c0.65-1.1,1.22-2.12,1.73-3.06c0.5-0.94,0.89-1.72,1.14-2.33C81.44,37.04,81.47,36.75,81.25,36.77z
	 M97.57,59.35c0.08,0.1,0.08,0.18,0,0.24c-0.08,0.06-0.16,0.06-0.24,0c-0.12-0.16-0.29-0.26-0.48-0.3c-0.2-0.03-0.4-0.04-0.61-0.02
	c-0.84,0.09-1.66,0.57-2.46,1.43c-0.8,0.87-1.53,1.88-2.21,3.03c-0.68,1.16-1.27,2.33-1.79,3.52c-0.51,1.19-0.91,2.16-1.19,2.9
	l-0.16,0.55c-0.07,0.33-0.24,0.5-0.51,0.51c-0.27,0.01-0.38-0.13-0.34-0.42c0.4-1.96,0.8-3.79,1.21-5.48s0.81-3.52,1.21-5.48
	c0.07-0.36,0.24-0.54,0.53-0.54c0.28,0.01,0.39,0.15,0.31,0.45c-0.28,1.38-0.56,2.65-0.82,3.82c-0.27,1.17-0.56,2.44-0.88,3.82
	c0.36-0.93,0.82-1.87,1.35-2.83c0.54-0.96,1.12-1.84,1.75-2.64c0.63-0.79,1.28-1.46,1.95-1.99c0.67-0.53,1.36-0.84,2.06-0.91
	c0.28-0.03,0.53-0.02,0.75,0.03C97.22,59.09,97.41,59.19,97.57,59.35z M108.85,60.41c-0.26,0.21-0.88,0.61-1.84,1.21
	c-0.97,0.6-2.05,1.24-3.26,1.92c-1.21,0.68-2.43,1.29-3.67,1.85s-2.26,0.89-3.06,1.01c-0.63,0.1-1.04,0.01-1.23-0.27
	c-0.19-0.28-0.22-0.66-0.09-1.14c0.13-0.47,0.39-1.01,0.79-1.6c0.4-0.59,0.87-1.15,1.4-1.67c0.53-0.52,1.09-0.97,1.67-1.35
	c0.58-0.38,1.14-0.6,1.66-0.65c0.81-0.08,1.17,0.12,1.08,0.61c-0.09,0.49-0.52,0.99-1.28,1.49c-0.46,0.33-1.04,0.63-1.74,0.9
	c-0.7,0.27-1.47,0.47-2.31,0.59c-0.28,0.38-0.51,0.77-0.71,1.14c-0.19,0.38-0.3,0.7-0.32,0.97c-0.03,0.27,0.05,0.47,0.22,0.59
	c0.17,0.12,0.47,0.16,0.89,0.12c0.73-0.11,1.72-0.45,2.96-1s2.46-1.17,3.67-1.85c1.21-0.68,2.29-1.32,3.26-1.92
	c0.97-0.6,1.57-0.98,1.8-1.15L108.85,60.41z M101.12,60.42c-0.63,0.07-1.3,0.35-1.99,0.85c-0.69,0.5-1.31,1.06-1.85,1.69
	c0.73-0.11,1.41-0.29,2.02-0.53c0.61-0.24,1.14-0.51,1.57-0.8c0.13-0.12,0.28-0.25,0.44-0.39c0.16-0.14,0.28-0.28,0.36-0.41
	c0.07-0.13,0.08-0.24,0.02-0.32C101.63,60.41,101.44,60.39,101.12,60.42z M160.56,55.02c-1.16,0.83-2.41,1.9-3.77,3.19
	c-1.36,1.3-2.75,2.67-4.18,4.12c-1.43,1.45-2.87,2.91-4.33,4.4c-1.46,1.49-2.87,2.82-4.24,4.02c-1.37,1.19-2.67,2.2-3.92,3.02
	c-1.25,0.82-2.38,1.29-3.4,1.4c-0.74,0.08-1.29-0.05-1.67-0.38c-0.37-0.33-0.61-0.82-0.71-1.44c-0.1-0.63-0.1-1.34,0.02-2.13
	c0.11-0.79,0.26-1.6,0.44-2.42c0.18-0.82,0.38-1.59,0.61-2.3c0.23-0.72,0.42-1.31,0.58-1.79c0.53-1.69,1.14-3.46,1.81-5.31
	c0.68-1.85,1.35-3.62,2.02-5.33c0.67-1.7,1.29-3.25,1.86-4.65c0.56-1.39,1.02-2.48,1.36-3.26c-1.28,1.73-2.74,3.56-4.38,5.47
	c-1.65,1.91-3.37,3.69-5.17,5.34c-1.8,1.65-3.63,3.05-5.5,4.2c-1.87,1.16-3.68,1.83-5.44,2.01c-0.74,0.08-1.16-0.2-1.26-0.83
	c-0.1-0.63-0.05-1.38,0.16-2.26c0.21-0.87,0.49-1.74,0.85-2.59c0.35-0.85,0.6-1.45,0.75-1.78c0.08-0.22,0.27-0.29,0.56-0.22
	c0.29,0.08,0.38,0.24,0.27,0.5c-0.15,0.3-0.41,0.83-0.79,1.6c-0.38,0.77-0.71,1.56-0.98,2.37c-0.27,0.81-0.41,1.51-0.42,2.1
	c-0.01,0.59,0.3,0.85,0.93,0.78c1.76-0.18,3.59-0.89,5.51-2.12c1.91-1.23,3.81-2.73,5.68-4.49c1.88-1.76,3.66-3.64,5.35-5.65
	c1.69-2.01,3.17-3.88,4.45-5.61c0.28-0.67,0.67-1.52,1.17-2.55c0.5-1.03,1.03-2.13,1.6-3.31c0.57-1.18,1.17-2.37,1.81-3.57
	c0.64-1.2,1.24-2.29,1.82-3.26c0.57-0.97,1.1-1.76,1.59-2.38c0.49-0.62,0.89-0.95,1.2-0.98c0.32-0.03,0.37,0.27,0.15,0.92
	c-0.22,0.64-0.58,1.48-1.09,2.51c-0.51,1.03-1.14,2.16-1.88,3.4c-0.74,1.23-1.47,2.43-2.18,3.59c-0.71,1.16-1.36,2.19-1.94,3.08
	c-0.58,0.9-0.98,1.52-1.19,1.86c-0.17,0.37-0.56,1.28-1.15,2.71c-0.6,1.43-1.28,3.12-2.05,5.07c-0.77,1.95-1.57,4.05-2.4,6.3
	c-0.83,2.25-1.56,4.39-2.2,6.41c-0.14,0.37-0.31,0.89-0.53,1.57c-0.21,0.68-0.43,1.4-0.65,2.15c-0.22,0.75-0.41,1.52-0.56,2.3
	c-0.15,0.78-0.2,1.48-0.15,2.09c0.05,0.62,0.2,1.11,0.47,1.47c0.27,0.36,0.72,0.51,1.35,0.44c0.98-0.1,2.08-0.54,3.27-1.3
	c1.2-0.77,2.45-1.74,3.77-2.93c1.31-1.19,2.69-2.5,4.11-3.95c1.43-1.45,2.86-2.89,4.29-4.34c1.43-1.45,2.84-2.83,4.23-4.15
	c1.39-1.32,2.71-2.43,3.96-3.35L160.56,55.02z M124.42,53.39c-0.12-0.09-0.05-0.44,0.21-1.03c0.11-0.26,0.24-0.48,0.38-0.65
	s0.23-0.26,0.26-0.27c0.15,0.06,0.08,0.4-0.21,1.03c-0.11,0.26-0.23,0.48-0.36,0.65C124.59,53.29,124.49,53.38,124.42,53.39z
	 M152.69,29.26c-0.21,0.02-0.49,0.29-0.85,0.81c-0.35,0.52-0.76,1.18-1.23,1.99c-0.47,0.81-0.94,1.72-1.42,2.71
	c-0.48,0.99-0.95,1.96-1.4,2.89c-0.45,0.94-0.87,1.81-1.24,2.61c-0.38,0.8-0.65,1.41-0.82,1.82c0.19-0.27,0.51-0.78,0.98-1.54
	c0.47-0.76,1-1.62,1.6-2.57c0.59-0.95,1.19-1.95,1.79-2.99c0.6-1.04,1.12-1.98,1.57-2.83c0.44-0.85,0.77-1.55,0.98-2.1
	C152.85,29.51,152.86,29.24,152.69,29.26z M187.18,52.23c-1.63,1.02-3.27,2.08-4.91,3.18c-1.64,1.1-3.26,2.23-4.84,3.39
	c-0.48,0.8-1.01,1.55-1.58,2.24s-1.12,1.31-1.67,1.83c-0.52,0.45-0.98,0.75-1.37,0.92c-0.39,0.17-0.65,0.2-0.79,0.11
	c-0.13-0.09-0.1-0.33,0.11-0.7c0.21-0.38,0.65-0.89,1.33-1.53c0.45-0.44,1-0.91,1.64-1.42c0.64-0.51,1.35-1.06,2.15-1.64
	c0.18-0.3,0.46-0.82,0.85-1.55c0.38-0.73,0.69-1.48,0.91-2.23c0.22-0.75,0.29-1.4,0.2-1.94c-0.09-0.54-0.49-0.77-1.19-0.7
	c-0.49,0.05-1.07,0.34-1.75,0.88c-0.67,0.53-1.49,1.51-2.44,2.92c-0.28,1.09-0.57,2.16-0.89,3.18c-0.32,1.03-0.63,1.93-0.94,2.71
	l-0.21,0.55c-0.34,0.85-0.76,1.79-1.28,2.83c-0.51,1.03-1.07,2.08-1.67,3.16c-0.6,1.08-1.21,2.12-1.83,3.12
	c-0.62,1.01-1.23,1.9-1.82,2.67c-1.09,1.43-2.14,2.56-3.13,3.39c-1,0.83-1.73,1.25-2.21,1.25c-0.48,0-0.57-0.48-0.28-1.44
	c0.29-0.95,1.21-2.51,2.76-4.66c1.29-1.88,2.66-3.64,4.11-5.28c1.44-1.64,3.01-3.25,4.69-4.81c0.65-1.56,1.2-3.36,1.64-5.4
	c0.44-2.04,0.81-3.9,1.09-5.6c0.07-0.36,0.25-0.56,0.55-0.59c0.3-0.03,0.41,0.13,0.35,0.5c-0.11,0.62-0.24,1.23-0.37,1.85
	c-0.13,0.62-0.27,1.24-0.42,1.86c0.99-1.38,1.81-2.34,2.47-2.87c0.65-0.53,1.23-0.82,1.72-0.87c0.77-0.08,1.23,0.15,1.38,0.68
	c0.14,0.54,0.12,1.19-0.06,1.95c-0.19,0.77-0.45,1.54-0.8,2.32c-0.34,0.78-0.62,1.36-0.83,1.74c1.48-1.11,2.99-2.19,4.54-3.22
	c1.54-1.03,3.12-2.04,4.72-3.03L187.18,52.23z M164.96,74.07c0.56-0.77,1.11-1.61,1.65-2.52c0.54-0.91,1.07-1.84,1.57-2.78
	c0.51-0.94,0.98-1.88,1.44-2.82c0.45-0.94,0.86-1.83,1.24-2.69c-1.58,1.48-3.05,3-4.4,4.57c-1.35,1.56-2.65,3.23-3.92,5
	c-1.49,2.07-2.37,3.55-2.65,4.44c-0.28,0.88-0.21,1.3,0.21,1.26c0.42-0.04,1.1-0.47,2.02-1.28C163.05,76.43,164,75.38,164.96,74.07z
	 M174.05,62.61c0.46-0.4,0.93-0.9,1.42-1.48c0.49-0.58,0.95-1.2,1.38-1.85c-1.35,0.99-2.43,1.85-3.25,2.58
	c-0.58,0.56-0.96,0.98-1.15,1.27c-0.18,0.29-0.24,0.46-0.16,0.52c0.08,0.06,0.28,0.01,0.6-0.17
	C173.2,63.31,173.59,63.02,174.05,62.61z M195.78,49.03c0.08,0.1,0.08,0.18,0,0.24c-0.08,0.06-0.16,0.06-0.24,0
	c-0.12-0.16-0.29-0.26-0.48-0.3c-0.2-0.03-0.4-0.04-0.61-0.02c-0.84,0.09-1.66,0.57-2.46,1.43c-0.8,0.87-1.53,1.88-2.21,3.03
	c-0.68,1.16-1.27,2.33-1.79,3.52c-0.51,1.19-0.91,2.16-1.19,2.9l-0.16,0.55c-0.07,0.33-0.24,0.5-0.51,0.51
	c-0.27,0.01-0.38-0.13-0.34-0.42c0.4-1.96,0.8-3.79,1.21-5.48s0.81-3.52,1.21-5.48c0.07-0.36,0.24-0.54,0.53-0.54
	c0.28,0.01,0.39,0.15,0.31,0.45c-0.28,1.38-0.56,2.65-0.82,3.82c-0.27,1.17-0.56,2.44-0.88,3.82c0.36-0.93,0.82-1.87,1.35-2.83
	c0.54-0.96,1.12-1.84,1.75-2.64c0.63-0.79,1.28-1.46,1.95-1.99c0.67-0.53,1.36-0.84,2.06-0.91c0.28-0.03,0.53-0.02,0.75,0.03
	C195.43,48.77,195.62,48.87,195.78,49.03z M206.41,50.21c-1.09,0.79-2.1,1.49-3.03,2.1c-0.93,0.61-1.78,1.14-2.55,1.57
	c-1.65,0.88-2.91,1.37-3.79,1.46c-0.74,0.08-1.16-0.2-1.26-0.83c-0.1-0.63-0.05-1.38,0.16-2.26c0.21-0.87,0.49-1.74,0.85-2.59
	c0.35-0.85,0.6-1.45,0.75-1.78c0.08-0.22,0.27-0.29,0.56-0.22c0.29,0.08,0.38,0.24,0.27,0.5c-0.15,0.3-0.41,0.83-0.79,1.6
	c-0.38,0.77-0.71,1.56-0.98,2.37c-0.27,0.81-0.41,1.51-0.42,2.1c-0.01,0.59,0.3,0.85,0.93,0.78c0.88-0.09,2.09-0.57,3.63-1.45
	c0.77-0.4,1.63-0.91,2.56-1.52c0.93-0.61,1.92-1.31,2.98-2.1L206.41,50.21z M198.88,45.56c-0.12-0.09-0.05-0.44,0.21-1.03
	c0.15-0.26,0.29-0.48,0.41-0.66c0.12-0.17,0.2-0.26,0.24-0.26c0.15,0.06,0.08,0.4-0.21,1.03c-0.11,0.26-0.23,0.48-0.36,0.65
	C199.05,45.46,198.95,45.55,198.88,45.56z M217.62,41.78c0.13-0.12,0.22-0.15,0.28-0.08c0.06,0.07,0.01,0.18-0.15,0.34
	c-0.36,0.32-0.77,0.85-1.24,1.6c-0.47,0.74-1.01,1.58-1.6,2.51c-0.59,0.93-1.23,1.91-1.9,2.94c-0.67,1.03-1.36,1.97-2.07,2.83
	c-0.71,0.86-1.44,1.57-2.2,2.15c-0.76,0.58-1.49,0.9-2.19,0.98c-0.46,0.05-0.76-0.08-0.92-0.38c-0.16-0.3-0.22-0.7-0.21-1.2
	c0.02-0.5,0.11-1.07,0.27-1.71c0.16-0.64,0.36-1.25,0.58-1.85c0.22-0.59,0.43-1.13,0.63-1.61c0.2-0.48,0.36-0.84,0.47-1.06
	c0.11-0.26,0.28-0.38,0.5-0.35s0.3,0.14,0.25,0.32c-0.11,0.3-0.36,0.86-0.75,1.7c-0.39,0.84-0.75,1.7-1.06,2.59
	c-0.31,0.89-0.49,1.67-0.53,2.35s0.23,0.99,0.79,0.93c0.67-0.07,1.36-0.39,2.08-0.97c0.72-0.57,1.44-1.29,2.15-2.14
	c0.71-0.86,1.39-1.79,2.05-2.8c0.66-1.01,1.28-1.98,1.88-2.92c0.59-0.93,1.14-1.78,1.62-2.54C216.84,42.64,217.26,42.1,217.62,41.78
	z M256.64,44.93c-1.16,0.83-2.41,1.9-3.77,3.19c-1.36,1.3-2.75,2.67-4.18,4.12c-1.43,1.45-2.87,2.91-4.33,4.4
	c-1.46,1.49-2.87,2.82-4.24,4.02c-1.37,1.19-2.67,2.2-3.92,3.02s-2.38,1.29-3.4,1.4c-0.74,0.08-1.29-0.05-1.67-0.38
	c-0.37-0.33-0.61-0.82-0.71-1.44c-0.1-0.63-0.1-1.34,0.02-2.13c0.11-0.79,0.26-1.6,0.44-2.42c0.18-0.82,0.38-1.59,0.61-2.3
	c0.23-0.72,0.42-1.31,0.58-1.79c0.53-1.69,1.14-3.46,1.81-5.31c0.68-1.85,1.35-3.62,2.02-5.33c0.67-1.7,1.29-3.25,1.86-4.65
	c0.56-1.39,1.02-2.48,1.36-3.26c-1.28,1.73-2.74,3.56-4.38,5.47c-1.65,1.91-3.37,3.69-5.17,5.34c-1.8,1.65-3.63,3.05-5.5,4.2
	c-1.87,1.16-3.68,1.83-5.44,2.01c-0.74,0.08-1.16-0.2-1.26-0.83c-0.1-0.63-0.05-1.38,0.16-2.26c0.21-0.87,0.49-1.74,0.85-2.59
	c0.35-0.85,0.6-1.45,0.75-1.78c0.08-0.22,0.27-0.29,0.56-0.22c0.29,0.08,0.38,0.24,0.27,0.5c-0.15,0.3-0.41,0.83-0.79,1.6
	c-0.38,0.77-0.71,1.56-0.98,2.37c-0.27,0.81-0.41,1.51-0.42,2.1c-0.01,0.59,0.3,0.85,0.93,0.78c1.76-0.18,3.59-0.89,5.51-2.12
	c1.91-1.23,3.81-2.73,5.68-4.49c1.88-1.76,3.66-3.64,5.35-5.65c1.69-2.01,3.17-3.88,4.45-5.61c0.28-0.67,0.67-1.52,1.17-2.55
	c0.5-1.03,1.03-2.13,1.6-3.31s1.17-2.37,1.81-3.57c0.64-1.2,1.24-2.29,1.82-3.26c0.57-0.97,1.1-1.76,1.59-2.38
	c0.49-0.62,0.89-0.95,1.2-0.98c0.32-0.03,0.37,0.27,0.15,0.92c-0.22,0.64-0.58,1.48-1.09,2.51c-0.51,1.03-1.14,2.16-1.88,3.4
	c-0.74,1.23-1.47,2.43-2.18,3.59c-0.71,1.16-1.36,2.19-1.94,3.08c-0.58,0.9-0.98,1.52-1.19,1.86c-0.17,0.37-0.56,1.28-1.15,2.71
	c-0.6,1.43-1.28,3.12-2.05,5.07c-0.77,1.95-1.57,4.05-2.4,6.3c-0.83,2.25-1.56,4.39-2.2,6.41c-0.14,0.37-0.31,0.89-0.53,1.57
	c-0.21,0.68-0.43,1.4-0.65,2.15c-0.22,0.75-0.41,1.52-0.56,2.3c-0.15,0.78-0.2,1.48-0.15,2.09c0.05,0.62,0.2,1.11,0.47,1.47
	c0.27,0.36,0.72,0.51,1.35,0.44c0.98-0.1,2.08-0.54,3.27-1.3s2.45-1.74,3.77-2.93c1.31-1.19,2.69-2.5,4.11-3.95
	c1.43-1.45,2.86-2.89,4.29-4.34c1.43-1.45,2.84-2.83,4.23-4.15c1.39-1.32,2.71-2.43,3.96-3.35L256.64,44.93z M220.49,43.29
	c-0.12-0.09-0.05-0.44,0.21-1.03c0.11-0.26,0.24-0.48,0.38-0.65s0.23-0.26,0.26-0.27c0.15,0.06,0.08,0.4-0.21,1.03
	c-0.11,0.26-0.23,0.48-0.36,0.65C220.66,43.19,220.56,43.28,220.49,43.29z M248.76,19.16c-0.21,0.02-0.49,0.29-0.85,0.81
	c-0.35,0.52-0.76,1.18-1.23,1.99c-0.47,0.81-0.94,1.72-1.42,2.71c-0.48,0.99-0.95,1.96-1.4,2.89c-0.45,0.94-0.87,1.81-1.24,2.61
	c-0.38,0.8-0.65,1.41-0.82,1.82c0.19-0.27,0.51-0.78,0.98-1.54c0.47-0.76,1-1.62,1.6-2.57c0.59-0.95,1.19-1.95,1.79-2.99
	c0.6-1.04,1.12-1.98,1.57-2.83c0.44-0.85,0.77-1.55,0.98-2.1C248.92,19.41,248.94,19.14,248.76,19.16z M269.53,43.52
	c-0.26,0.21-0.88,0.61-1.85,1.21c-0.97,0.6-2.05,1.24-3.26,1.92c-1.21,0.68-2.43,1.29-3.67,1.85s-2.26,0.89-3.06,1.01
	c-0.63,0.1-1.04,0.01-1.23-0.27c-0.19-0.28-0.22-0.66-0.09-1.14c0.13-0.47,0.39-1.01,0.79-1.6c0.4-0.59,0.87-1.15,1.4-1.67
	c0.53-0.52,1.09-0.97,1.67-1.35c0.58-0.38,1.14-0.6,1.66-0.65c0.81-0.08,1.17,0.12,1.08,0.61c-0.09,0.49-0.52,0.99-1.28,1.49
	c-0.46,0.33-1.04,0.63-1.74,0.9c-0.7,0.27-1.47,0.47-2.31,0.59c-0.28,0.38-0.51,0.77-0.71,1.14c-0.19,0.38-0.3,0.7-0.32,0.97
	c-0.03,0.27,0.05,0.47,0.22,0.59s0.47,0.16,0.89,0.12c0.73-0.11,1.72-0.45,2.96-1c1.24-0.56,2.46-1.17,3.67-1.85
	c1.21-0.68,2.29-1.32,3.26-1.92c0.97-0.6,1.57-0.98,1.8-1.15L269.53,43.52z M261.8,43.53c-0.63,0.07-1.3,0.35-1.99,0.85
	c-0.69,0.5-1.31,1.06-1.85,1.69c0.73-0.11,1.41-0.29,2.02-0.53c0.61-0.24,1.14-0.51,1.57-0.8c0.13-0.12,0.28-0.25,0.44-0.39
	c0.16-0.14,0.28-0.28,0.36-0.41c0.07-0.13,0.08-0.24,0.02-0.32C262.31,43.52,262.12,43.5,261.8,43.53z M285.29,41.92
	c-2.18,1.58-4.24,3.16-6.19,4.73c-1.95,1.57-3.93,3.28-5.94,5.13c-0.34,0.85-0.76,1.79-1.28,2.83c-0.51,1.03-1.07,2.08-1.67,3.16
	s-1.21,2.12-1.83,3.12c-0.62,1.01-1.23,1.9-1.82,2.67c-1.09,1.43-2.14,2.56-3.13,3.39c-1,0.83-1.73,1.25-2.21,1.25
	c-0.48,0-0.57-0.48-0.28-1.44c0.29-0.95,1.21-2.51,2.76-4.66c1.29-1.88,2.66-3.64,4.11-5.28c1.44-1.64,3.01-3.25,4.69-4.81
	c0.59-1.45,1.08-2.97,1.46-4.58c0.38-1.6,0.72-3.34,1.02-5.22c-0.35,0.43-0.77,0.91-1.26,1.44c-0.5,0.53-1.02,1.04-1.57,1.52
	c-0.36,0.32-0.86,0.69-1.51,1.09c-0.65,0.41-1.22,0.63-1.71,0.69c-0.67,0.07-0.96-0.23-0.87-0.89c0.09-0.67,0.41-1.41,0.96-2.23
	c0.55-0.82,1.25-1.61,2.1-2.35c0.85-0.75,1.71-1.17,2.59-1.26c0.67-0.07,1.12,0.2,1.36,0.82c0.05,0.17-0.04,0.34-0.27,0.51
	c-0.23,0.17-0.37,0.16-0.43-0.01c-0.15-0.45-0.49-0.64-1.02-0.59c-0.77,0.08-1.54,0.44-2.29,1.07c-0.75,0.63-1.37,1.29-1.84,1.98
	c-0.48,0.69-0.77,1.32-0.87,1.88c-0.1,0.56,0.09,0.82,0.59,0.76c0.21-0.02,0.47-0.1,0.77-0.24c0.31-0.14,0.61-0.29,0.91-0.47
	c0.3-0.17,0.58-0.34,0.83-0.51c0.25-0.17,0.44-0.31,0.57-0.43c0.65-0.57,1.26-1.16,1.84-1.79c0.57-0.63,0.98-1.15,1.22-1.57
	l0.05-0.06c0.02-0.14,0.09-0.27,0.2-0.37c0.11-0.1,0.22-0.16,0.33-0.17c0.11-0.01,0.2,0.02,0.27,0.08c0.08,0.06,0.11,0.2,0.1,0.42
	c-0.3,1.91-0.66,3.65-1.1,5.21c-0.44,1.56-0.96,3.06-1.55,4.51c1.04-0.96,2.03-1.85,3-2.66c0.96-0.81,1.92-1.61,2.87-2.38
	c0.95-0.77,1.91-1.52,2.88-2.25c0.97-0.72,1.98-1.48,3.04-2.26L285.29,41.92z M266.34,63.41c0.56-0.77,1.11-1.61,1.65-2.52
	c0.54-0.91,1.07-1.84,1.57-2.78c0.51-0.94,0.98-1.88,1.44-2.82c0.45-0.94,0.86-1.83,1.24-2.69c-1.59,1.48-3.05,3-4.4,4.57
	c-1.35,1.56-2.65,3.23-3.92,5c-1.49,2.07-2.37,3.55-2.65,4.44c-0.28,0.88-0.21,1.3,0.21,1.26c0.42-0.04,1.1-0.47,2.02-1.28
	C264.43,65.78,265.38,64.72,266.34,63.41z M295.72,40.82c-1.09,0.79-2.1,1.49-3.03,2.1c-0.93,0.61-1.78,1.14-2.55,1.57
	c-1.65,0.88-2.91,1.37-3.79,1.46c-0.74,0.08-1.16-0.2-1.26-0.83c-0.1-0.63-0.05-1.38,0.16-2.26c0.21-0.87,0.49-1.74,0.85-2.59
	c0.35-0.85,0.6-1.45,0.75-1.78c0.08-0.22,0.27-0.29,0.56-0.22c0.29,0.08,0.38,0.24,0.27,0.5c-0.15,0.3-0.41,0.83-0.79,1.6
	c-0.38,0.77-0.71,1.56-0.98,2.37c-0.27,0.81-0.41,1.51-0.42,2.1c-0.01,0.59,0.3,0.85,0.93,0.78c0.88-0.09,2.09-0.57,3.63-1.45
	c0.77-0.4,1.63-0.91,2.56-1.52c0.93-0.61,1.92-1.31,2.98-2.1L295.72,40.82z M288.2,36.17c-0.12-0.09-0.05-0.44,0.21-1.03
	c0.15-0.26,0.29-0.48,0.41-0.66c0.12-0.17,0.2-0.26,0.24-0.26c0.15,0.06,0.08,0.4-0.21,1.03c-0.11,0.26-0.23,0.48-0.36,0.65
	C288.37,36.08,288.27,36.17,288.2,36.17z M313.78,38.92c-0.6,0.38-1.47,0.74-2.61,1.07c-1.14,0.33-2.33,0.64-3.58,0.91
	c-1.25,0.27-2.45,0.52-3.6,0.72c-1.15,0.21-2.02,0.35-2.62,0.41c-0.02,0.53-0.14,1.07-0.36,1.61c-0.23,0.54-0.52,1.03-0.88,1.48
	c-0.36,0.45-0.78,0.83-1.27,1.15c-0.48,0.32-1,0.51-1.57,0.56c-1.12,0.12-1.86-0.16-2.19-0.84c-0.34-0.68-0.4-1.5-0.18-2.49
	c0.22-0.98,0.64-1.98,1.26-2.98c0.62-1.01,1.33-1.77,2.13-2.28c0.37-0.22,0.67-0.26,0.89-0.12c0.23,0.14,0.09,0.39-0.4,0.76
	c-0.69,0.53-1.33,1.25-1.93,2.15c-0.6,0.9-1.02,1.78-1.27,2.64c-0.25,0.86-0.26,1.58-0.04,2.16c0.22,0.58,0.81,0.82,1.75,0.72
	c0.53-0.06,1.01-0.22,1.44-0.5c0.43-0.28,0.81-0.63,1.14-1.05c0.33-0.43,0.59-0.9,0.78-1.41c0.19-0.52,0.32-1.03,0.37-1.53
	c-0.18,0.02-0.39,0.05-0.66,0.1c-0.26,0.05-0.54,0.07-0.82,0.06c-0.64,0.03-1.09-0.07-1.36-0.31c-0.27-0.24-0.39-0.49-0.35-0.76
	c0.04-0.27,0.22-0.54,0.53-0.8c0.31-0.26,0.73-0.42,1.26-0.48c0.6-0.06,1.03,0.1,1.31,0.5c0.27,0.4,0.4,0.85,0.38,1.35
	c0.6-0.06,1.46-0.19,2.6-0.38c1.13-0.19,2.33-0.42,3.58-0.7c1.25-0.27,2.44-0.58,3.58-0.91c1.14-0.33,2.01-0.69,2.61-1.07
	L313.78,38.92z M301.08,41.75c-0.04-0.42-0.17-0.8-0.39-1.13c-0.21-0.33-0.57-0.47-1.06-0.42c-0.42,0.04-0.77,0.16-1.03,0.35
	c-0.27,0.19-0.41,0.39-0.44,0.61c-0.03,0.22,0.07,0.4,0.3,0.55c0.23,0.15,0.61,0.22,1.14,0.2c0.28,0.01,0.56-0.01,0.82-0.06
	C300.68,41.8,300.9,41.77,301.08,41.75z"/>
</svg>
