<?xml version="1.0" standalone="no"?>
<!DOCTYPE svg PUBLIC "-//W3C//DTD SVG 1.1//EN" "http://www.w3.org/Graphics/SVG/1.1/DTD/svg11.dtd" >
<svg xmlns="http://www.w3.org/2000/svg">
<metadata></metadata>
<defs>
<font id="futuralightttregular" horiz-adv-x="1024" >
<font-face units-per-em="2048" ascent="1638" descent="-410" />
<missing-glyph horiz-adv-x="477" />
<glyph horiz-adv-x="2048" />
<glyph horiz-adv-x="2048" />
<glyph unicode="&#xd;" horiz-adv-x="477" />
<glyph unicode=" "  horiz-adv-x="477" />
<glyph unicode="&#x09;" horiz-adv-x="477" />
<glyph unicode="&#xa0;" horiz-adv-x="477" />
<glyph unicode="!" horiz-adv-x="532" d="M190 61q0 31 21.5 53.5t54.5 22.5q31 0 53.5 -22.5t22.5 -53.5q0 -33 -22.5 -53t-53.5 -22q-33 0 -54.5 21t-21.5 54zM221 244v1122h90v-1122h-90z" />
<glyph unicode="&#x22;" horiz-adv-x="573" d="M123 1366h90l-14 -551h-62zM360 1366h91l-15 -551h-61z" />
<glyph unicode="#" horiz-adv-x="1228" d="M94 453l12 77h242l49 330h-241l12 78h242l65 428h82l-65 -428h335l66 428h82l-66 -428h242l-12 -78h-242l-49 -330h242l-13 -77h-241l-68 -453h-82l68 453h-336l-68 -453h-82l68 453h-242zM430 530h336l49 330h-336z" />
<glyph unicode="$" horiz-adv-x="1048" d="M109 270l77 37q10 -33 31 -69.5t43 -61.5q39 -51 104.5 -83t145.5 -34v635l-51 25q-100 47 -148.5 83t-79.5 87q-25 37 -34 74.5t-9 80.5q0 139 89.5 235.5t232.5 104.5v183h82v-183q92 -10 164.5 -63t113.5 -131l-65 -55q-35 70 -91.5 112.5t-121.5 55.5v-553 q68 -33 117 -58.5t86 -50.5q76 -55 109.5 -118.5t35.5 -145.5q0 -139 -96 -255t-252 -138v-203h-82v196q-92 2 -172 36t-141 108q-31 33 -53.5 70.5t-34.5 78.5zM283 1049q0 -90 55 -150.5t172 -107.5v512q-106 -6 -166.5 -82t-60.5 -172zM592 66q115 23 184.5 110.5 t69.5 198.5q0 68 -34 121t-99 94q-14 6 -45 22t-76 41v-587z" />
<glyph unicode="%" horiz-adv-x="1245" d="M70 1110q0 115 75.5 191.5t200.5 76.5q123 0 199 -76.5t78 -191.5q-2 -117 -78 -192.5t-199 -75.5q-125 -2 -200.5 74.5t-75.5 193.5zM152 1110q0 -86 54 -140.5t140 -54.5q84 0 139.5 54.5t55.5 140.5q0 84 -55.5 139.5t-139.5 55.5q-86 -2 -140 -56.5t-54 -138.5z M188 2l807 1395l62 -33l-807 -1395zM623 256q0 115 75.5 191.5t200.5 76.5q123 0 200 -76.5t77 -191.5q0 -117 -77 -191.5t-200 -76.5q-125 0 -200.5 75.5t-75.5 192.5zM705 256q0 -86 54 -140.5t140 -54.5q84 0 139.5 54.5t55.5 140.5q0 84 -55.5 139.5t-139.5 55.5 q-86 0 -140 -55.5t-54 -139.5z" />
<glyph unicode="&#x26;" horiz-adv-x="1286" d="M135 326q0 123 60.5 217t201.5 186l146 94l-56 86q-47 70 -64 120t-17 95q0 111 77.5 189t190.5 78q104 0 176 -74t72 -180q0 -53 -20.5 -102.5t-59.5 -94.5q-27 -31 -66 -62.5t-108 -78.5l333 -451q39 39 75 80t85 102l80 -36q-45 -59 -92 -114.5t-96 -103.5l204 -276 h-114l-158 215l-24 -20q-158 -133 -265.5 -177.5t-203.5 -44.5q-156 0 -256.5 99.5t-100.5 253.5zM229 332q-2 -121 73 -200t192 -77q100 0 221 67t219 165l-342 467l-129 -84q-125 -82 -180.5 -160t-53.5 -178zM496 1118q0 -31 11 -62.5t50 -92.5l59 -95q47 27 99.5 70 t77.5 76q18 27 28 56.5t10 68.5q-2 70 -48 117t-117 49q-70 0 -120 -55.5t-50 -131.5z" />
<glyph unicode="'" horiz-adv-x="335" d="M123 1366h90l-14 -551h-62z" />
<glyph unicode="(" horiz-adv-x="569" d="M205 584q-2 248 36.5 498t106.5 440l78 -47q-66 -213 -96.5 -447.5t-30.5 -443.5q0 -211 30.5 -441.5t96.5 -451.5l-82 -47q-63 182 -101 432t-38 508z" />
<glyph unicode=")" horiz-adv-x="569" d="M143 -309q63 221 95 451.5t32 441.5q0 209 -32 443.5t-95 447.5l78 47q66 -190 105 -440.5t39 -497.5q0 -258 -39 -508t-101 -432z" />
<glyph unicode="*" horiz-adv-x="1122" d="M238 1227l28 84l256 -90l-6 272h90l-6 -272l256 90l29 -84l-262 -78l165 -217l-71 -51l-156 225l-155 -225l-72 51l166 217z" />
<glyph unicode="+" d="M68 635v78h403v372h82v-372h403v-78h-403v-373h-82v373h-403z" />
<glyph unicode="," horiz-adv-x="466" d="M78 -281l123 414l82 -24l-152 -410z" />
<glyph unicode="-" horiz-adv-x="573" d="M82 377v94h410v-94h-410z" />
<glyph unicode="." horiz-adv-x="413" d="M131 61q0 31 21.5 53.5t54.5 22.5q31 0 53.5 -22.5t22.5 -53.5q0 -33 -22.5 -54t-53.5 -21q-33 0 -54.5 21t-21.5 54z" />
<glyph unicode="/" horiz-adv-x="1179" d="M41 -324l1032 1846l66 -33l-1033 -1845z" />
<glyph unicode="0" horiz-adv-x="1122" d="M66 682q0 164 45 300t129 237q68 82 150.5 123.5t170.5 41.5q86 0 169 -42t153 -123q82 -100 127 -236.5t47 -300.5q0 -166 -46 -303t-128 -234q-72 -84 -156 -126t-166 -42q-84 0 -168 42t-153 126q-84 96 -129 233.5t-45 303.5zM160 682q0 -158 39 -277.5t108 -205.5 q53 -68 118.5 -104t135.5 -36q68 0 133.5 36t120.5 104q68 86 108 205.5t40 277.5q-2 141 -37 264t-111 219q-53 63 -116.5 100.5t-137.5 37.5q-76 0 -139.5 -37t-114.5 -101q-78 -96 -112.5 -219t-34.5 -264z" />
<glyph unicode="1" horiz-adv-x="1122" d="M344 1284l41 82h262v-1366h-90v1284h-213z" />
<glyph unicode="2" horiz-adv-x="1122" d="M123 0l524 578q68 74 96.5 110.5t53.5 73.5q39 59 58 116.5t22 116.5q0 129 -90.5 218.5t-227.5 89.5q-74 0 -133 -26t-102 -75q-41 -45 -61.5 -103.5t-18.5 -119.5h-90q-2 78 25.5 153.5t82.5 133.5q55 57 132 87.5t171 30.5q174 0 290 -111.5t116 -277.5 q-2 -74 -25.5 -142.5t-73.5 -137.5q-23 -31 -56.5 -72t-63.5 -76l-439 -485h652v-82h-842z" />
<glyph unicode="3" horiz-adv-x="1122" d="M156 332h90q0 -41 11 -79t34 -67q37 -57 105.5 -92t135.5 -35q125 0 216.5 94.5t91.5 223.5q0 84 -36 148.5t-93 101.5q-37 20 -82 31.5t-92 9.5v82q49 0 97 15t87 48q45 37 72.5 96.5t27.5 126.5q0 113 -70.5 190t-191.5 77q-68 -2 -116 -22.5t-81 -57.5 q-33 -35 -51 -84t-18 -99h-86q0 72 27.5 135.5t72.5 110.5q49 51 111.5 74.5t140.5 23.5q164 0 260 -99t96 -243q0 -115 -57 -202.5t-158 -126.5q109 -37 170.5 -127t63.5 -207q0 -172 -117 -287t-285 -115q-98 0 -188 46.5t-139 132.5q-25 39 -37 84t-12 92z" />
<glyph unicode="4" horiz-adv-x="1122" d="M25 260l825 1151v-1069h190v-82h-190v-260h-90v260h-735zM184 342h576v803z" />
<glyph unicode="5" horiz-adv-x="1122" d="M61 203l80 33q55 -86 141.5 -131.5t190.5 -45.5q168 0 278.5 111t110.5 283t-107.5 281.5t-277.5 111.5q-57 0 -109.5 -14.5t-103.5 -45.5l176 580h523v-82h-459l-115 -369q23 6 44.5 8.5t47.5 4.5q213 0 344 -133t131 -340q0 -217 -140 -346t-345 -132 q-135 0 -241.5 58.5t-168.5 167.5z" />
<glyph unicode="6" horiz-adv-x="1122" d="M74 463q0 78 22.5 148.5t65.5 129.5l454 643l70 -53l-303 -430q45 18 91 27.5t95 9.5q203 0 339 -135t136 -342q-2 -209 -139 -345t-348 -139q-209 0 -346 136.5t-137 349.5zM168 459q0 -172 110.5 -287t280.5 -113q168 0 279.5 115t111.5 285q0 172 -111.5 284.5 t-279.5 112.5q-172 -2 -281.5 -114.5t-109.5 -282.5z" />
<glyph unicode="7" horiz-adv-x="1122" d="M45 29l885 1255h-830v82h990l-977 -1389z" />
<glyph unicode="8" horiz-adv-x="1122" d="M166 362q0 115 58.5 210.5t164.5 136.5q-88 45 -139 125.5t-51 189.5q0 154 103.5 257t258.5 103q154 0 258.5 -103t104.5 -257q0 -109 -52.5 -189.5t-138.5 -125.5q104 -41 163.5 -136.5t59.5 -210.5q0 -174 -114.5 -278t-280.5 -107q-168 0 -281.5 105.5t-113.5 279.5z M260 362q0 -129 83 -216t218 -87q133 0 216 87t85 216q-2 133 -86 219.5t-215 88.5q-133 0 -218 -87t-83 -221zM293 1024q0 -121 77.5 -198.5t190.5 -77.5q111 -2 188.5 76.5t79.5 199.5q0 119 -77.5 197.5t-190.5 81.5q-115 0 -191.5 -80t-76.5 -199z" />
<glyph unicode="9" horiz-adv-x="1122" d="M78 903q0 205 137 343t350 138q207 0 345.5 -137t138.5 -346q0 -80 -24 -150.5t-64 -127.5l-455 -646l-70 54l303 432q-47 -20 -93 -28.5t-93 -8.5q-205 0 -340 134t-135 343zM172 905q0 -174 110.5 -286.5t280.5 -110.5q168 0 279.5 112.5t111.5 284.5 q-2 168 -112.5 282t-278.5 116q-170 0 -280.5 -115t-110.5 -283z" />
<glyph unicode=":" horiz-adv-x="413" d="M131 61q0 31 21.5 53.5t54.5 22.5q31 0 53.5 -22.5t22.5 -53.5q0 -33 -22.5 -54t-53.5 -21q-33 0 -54.5 21t-21.5 54zM131 778q0 31 21.5 53.5t54.5 22.5q31 -2 53.5 -23.5t22.5 -52.5q-2 -33 -23.5 -54.5t-52.5 -21.5q-33 0 -54.5 21.5t-21.5 54.5z" />
<glyph unicode=";" horiz-adv-x="466" d="M78 -281l123 414l82 -24l-152 -410zM135 778q0 31 21.5 53.5t54.5 22.5q31 0 53.5 -22.5t22.5 -53.5q0 -33 -22.5 -54.5t-53.5 -21.5q-33 0 -54.5 21.5t-21.5 54.5z" />
<glyph unicode="&#x3c;" d="M68 633v78l888 393v-84l-798 -348l798 -348v-84z" />
<glyph unicode="=" d="M68 489v78h888v-78h-888zM68 780v78h888v-78h-888z" />
<glyph unicode="&#x3e;" d="M68 240v84l798 348l-798 348v84l888 -393v-78z" />
<glyph unicode="?" horiz-adv-x="954" d="M152 1055q-2 80 20.5 136t69.5 101q41 39 102.5 62.5t134.5 23.5q68 0 131.5 -23.5t108.5 -68.5q43 -47 63.5 -105.5t20.5 -133.5q0 -72 -18.5 -124.5t-55.5 -93.5q-35 -39 -77 -63.5t-105 -40.5q-143 -41 -162.5 -50t-32.5 -20q-33 -27 -52 -65.5t-17 -85.5 q0 -41 13 -78t38 -61q25 -29 61.5 -44.5t83.5 -15.5q53 0 95 19.5t67 54.5q16 25 25.5 65.5t9.5 81.5h82q-2 -49 -13.5 -98t-29.5 -82q-37 -59 -98.5 -89t-135.5 -30q-61 0 -116.5 19.5t-90.5 54.5q-39 35 -60 90t-21 117q0 61 23.5 114.5t66.5 88.5q27 23 67.5 41t100.5 32 q117 29 150.5 47.5t55.5 42.5q27 29 39.5 72t12.5 96q0 63 -15.5 106.5t-46.5 78.5q-35 35 -79 51t-95 18q-55 -2 -100 -20.5t-74 -48.5q-27 -29 -43 -76t-14 -109q0 -23 3 -42t11 -39h-90q-8 23 -11 44t-3 50zM403 61q0 31 21.5 53.5t54.5 22.5q31 0 53.5 -22.5t22.5 -53.5 q0 -33 -22.5 -53t-53.5 -22q-33 0 -54.5 21t-21.5 54z" />
<glyph unicode="@" horiz-adv-x="1499" d="M66 678q0 297 203.5 499.5t502.5 202.5q268 -2 456.5 -171t188.5 -435q0 -209 -101.5 -349t-225.5 -140q-68 0 -109 41t-37 108q-43 -76 -111.5 -114.5t-146.5 -38.5q-131 0 -208 94t-77 235q0 174 101.5 298t257.5 124q94 -2 156 -51t85 -135l31 160h66l-88 -455 q-12 -59 -14.5 -73.5t-0.5 -26.5q0 -49 26 -79t71 -30q104 -2 183 128t81 304q0 242 -169 393.5t-415 151.5q-270 0 -453.5 -184.5t-183.5 -452.5q0 -199 102.5 -363.5t282.5 -234.5q59 -25 132 -38t153 -11q90 -2 197.5 19.5t181.5 58.5q27 12 41 18t35 19l24 -60 q-63 -33 -124.5 -55.5t-119.5 -34.5q-53 -10 -118.5 -18.5t-118.5 -8.5q-324 2 -530.5 199t-206.5 506zM473 612q0 -127 65.5 -196.5t157.5 -69.5q111 0 190 104.5t79 278.5q-2 104 -51.5 171t-147.5 67q-133 0 -213 -106.5t-80 -248.5z" />
<glyph unicode="A" horiz-adv-x="1200" d="M29 0l575 1407l567 -1407h-98l-182 449h-582l-182 -449h-98zM342 530h516l-256 648z" />
<glyph unicode="B" horiz-adv-x="1093" d="M184 0v1366h299q174 0 275.5 -94t101.5 -248q0 -96 -40 -173t-120 -126q131 -23 207 -116t76 -226q-2 -178 -118.5 -280.5t-305.5 -102.5h-375zM274 82h230q119 0 182.5 18.5t114.5 63.5q45 39 66.5 92t21.5 117q0 92 -36 155.5t-110 98.5q-45 20 -109.5 29.5t-146.5 9.5 h-213v-584zM274 748h218q63 0 105 12t81 45q41 35 64.5 87t25.5 122q-2 68 -25.5 123t-66.5 90q-39 29 -90 42t-137 15h-175v-536z" />
<glyph unicode="C" horiz-adv-x="1388" d="M111 680q0 295 205.5 498.5t502.5 205.5q137 0 254 -49t205 -129v-119q-88 102 -209 159t-252 57q-262 0 -437 -183.5t-175 -443.5q0 -258 176 -437.5t438 -179.5q127 0 248 55.5t211 151.5v-119q-90 -80 -207 -125t-248 -45q-303 2 -509 207q-204 203 -203 490v6z" />
<glyph unicode="D" horiz-adv-x="1265" d="M184 0v1366h271q160 0 284.5 -49t218.5 -141q90 -92 143.5 -223.5t53.5 -270.5q0 -141 -53 -271t-144 -221q-94 -94 -218.5 -142t-284.5 -48h-271zM274 82h179h6q264 0 432 166q170 168 170 434q0 262 -170 432t-438 170h-179v-1202z" />
<glyph unicode="E" horiz-adv-x="950" d="M184 0v1366h656v-82h-566v-496h553v-81h-553v-625h566v-82h-656z" />
<glyph unicode="F" horiz-adv-x="831" d="M184 0v1366h553v-82h-463v-496h451v-81h-451v-707h-90z" />
<glyph unicode="G" horiz-adv-x="1581" d="M111 680q0 301 205.5 502.5t506.5 201.5q121 0 223.5 -35.5t204.5 -111.5q51 -41 89 -82t75 -90l-72 -57q-25 39 -59.5 78.5t-71.5 72.5q-82 68 -183 106t-208 38q-262 0 -440 -183q-176 -180 -176 -438v-6v-6q0 -256 173 -432q175 -179 437 -179h9q140 0 266 61 q129 62 200 171q37 57 61.5 135t28.5 147h-483v82h573q-2 -127 -36.5 -243.5t-102.5 -204.5q-90 -115 -223 -172.5t-291 -57.5q-303 0 -505 199q-201 197 -201 498v6z" />
<glyph unicode="H" horiz-adv-x="1376" d="M184 0v1366h90v-580h828v580h90v-1366h-90v705h-828v-705h-90z" />
<glyph unicode="I" horiz-adv-x="458" d="M184 0v1366h90v-1366h-90z" />
<glyph unicode="J" horiz-adv-x="540" d="M-111 -137l64 49q29 -53 74 -84t96 -31q74 0 108.5 51.5t34.5 155.5v1362h90v-1362q0 -150 -63.5 -218.5t-173.5 -70.5q-82 0 -138.5 41t-91.5 107z" />
<glyph unicode="K" horiz-adv-x="1105" d="M184 0v1366h90v-643l646 643h118l-661 -653l700 -713h-123l-643 651l-37 -35v-616h-90z" />
<glyph unicode="L" horiz-adv-x="684" d="M184 0v1366h90v-1284h381v-82h-471z" />
<glyph unicode="M" horiz-adv-x="1835" d="M170 0l156 1413l592 -1263l591 1263l156 -1413h-90l-121 1098l-536 -1147l-537 1147l-121 -1098h-90z" />
<glyph unicode="N" horiz-adv-x="1605" d="M184 0v1380l1147 -1200v1186h90v-1401l-1147 1200v-1165h-90z" />
<glyph unicode="O" horiz-adv-x="1638" d="M111 680q0 295 203.5 498.5t504.5 205.5q299 0 504 -204.5t205 -499.5q-2 -297 -207 -500t-502 -203q-299 0 -503.5 203t-204.5 500zM205 680q0 -264 175 -442.5t439 -178.5q262 0 438.5 178.5t176.5 442.5q-2 262 -177.5 442.5t-437.5 180.5q-264 0 -439 -180.5 t-175 -442.5z" />
<glyph unicode="P" horiz-adv-x="913" d="M184 0v1366h265q174 0 286.5 -94t112.5 -262q0 -170 -109.5 -265.5t-287.5 -95.5h-177v-649h-90zM274 731h181q133 0 216 74t83 203q0 127 -83 200.5t-231 75.5h-166v-553z" />
<glyph unicode="Q" horiz-adv-x="1638" d="M111 680q0 295 203.5 499.5t504.5 204.5q297 0 503 -204.5t206 -499.5q-2 -141 -51.5 -266t-145.5 -226l176 -188h-118l-121 131q-94 -76 -208 -113.5t-241 -40.5q-299 2 -503.5 204t-204.5 499zM205 680q0 -262 175 -441.5t439 -179.5q106 0 205.5 33t185.5 101 l-342 366h119l285 -307q82 92 122 199.5t40 228.5q0 262 -176.5 442.5t-438.5 180.5q-264 0 -440 -181q-174 -178 -174 -436v-6z" />
<glyph unicode="R" horiz-adv-x="958" d="M184 0v1366h197q100 0 165.5 -16.5t123.5 -53.5q68 -47 104.5 -120.5t36.5 -171.5q0 -125 -61.5 -211t-167.5 -121q-39 -14 -82 -22q-34 -6 -68 -5h-18l446 -645h-102l-443 645h-41v-645h-90zM274 727h132h8q140 -1 220 71q83 74 83 208q0 84 -34 145t-87 92 q-37 18 -94.5 29.5t-114.5 11.5h-113v-557z" />
<glyph unicode="S" horiz-adv-x="1052" d="M111 270l77 37q10 -33 31 -69.5t43 -61.5q45 -57 112.5 -87t143.5 -30h6q134 -1 228 89q96 92 96 227q0 68 -34 121t-99 94q-25 12 -71 35.5t-183 93.5q-115 55 -158 90t-70 80q-25 37 -34 74.5t-9 80.5q0 150 98.5 244t252.5 96q104 0 191 -50t140 -144l-65 -55 q-41 76 -109.5 122t-158.5 46q-117 0 -185.5 -74t-68.5 -180q0 -84 43 -137.5t196 -127.5q195 -96 220.5 -111.5t52.5 -31.5q76 -55 110.5 -118.5t34.5 -145.5q0 -170 -125 -285t-301 -115q-96 0 -175 34t-142 110q-31 33 -53.5 70.5t-34.5 78.5z" />
<glyph unicode="T" horiz-adv-x="856" d="M29 1284v82h798v-82h-354v-1284h-90v1284h-354z" />
<glyph unicode="U" horiz-adv-x="1298" d="M184 512v854h90v-854v-30q0 -98 12 -152q14 -62 46 -113q49 -80 134 -119t183 -39q96 0 181 39t137 119q31 51 44 113.5t13 181.5v854h90v-854q-2 -139 -18.5 -213t-59.5 -137q-66 -94 -165 -139.5t-222 -45.5q-125 0 -224 45.5t-163 139.5q-44 63 -62 137 q-16 66 -16 185v28z" />
<glyph unicode="V" horiz-adv-x="1044" d="M29 1366h98l401 -1163l390 1163h98l-488 -1421z" />
<glyph unicode="W" horiz-adv-x="2015" d="M29 1366h98l377 -1159l493 1233l463 -1233l428 1159h99l-527 -1417l-463 1241l-508 -1241z" />
<glyph unicode="X" horiz-adv-x="962" d="M47 0l375 696l-359 670h99l309 -584l311 584h99l-357 -670l375 -696h-98l-330 614l-326 -614h-98z" />
<glyph unicode="Y" horiz-adv-x="1056" d="M29 1366h102l393 -690l402 690h102l-461 -782v-584h-90v584z" />
<glyph unicode="Z" horiz-adv-x="1134" d="M76 0l831 1284h-751v82h903l-832 -1284h809v-82h-960z" />
<glyph unicode="[" horiz-adv-x="569" d="M180 -328v1821h307v-82h-217v-1657h217v-82h-307z" />
<glyph unicode="\" horiz-adv-x="1179" d="M41 1489l65 33l1033 -1846l-66 -32z" />
<glyph unicode="]" horiz-adv-x="569" d="M82 -246h217v1657h-217v82h307v-1821h-307v82z" />
<glyph unicode="^" d="M76 782l381 584h110l381 -584h-94l-342 521l-342 -521h-94z" />
<glyph unicode="_" d="M0 -160h1024v-78h-1024v78z" />
<glyph unicode="`" d="M293 1219l88 51l188 -281l-61 -33z" />
<glyph unicode="a" horiz-adv-x="1056" d="M94 418q0 195 111.5 315.5t296.5 120.5q100 0 183 -41t142 -123v146h82v-836h-82v150q-55 -82 -139 -126t-186 -47q-172 0 -290 120t-118 321zM180 424q0 -152 88 -260.5t240 -108.5h5q145 1 231 107q86 108 87 262q0 154 -93 253t-232 99q-133 -2 -229.5 -96t-96.5 -256 z" />
<glyph unicode="b" horiz-adv-x="1056" d="M147 0v1493h82v-803q57 80 141.5 122t186.5 42q184 0 295 -123t111 -307q0 -190 -113 -318.5t-297 -128.5q-111 0 -192.5 46.5t-131.5 126.5v-150h-82zM225 428q0 -164 86 -268.5t240 -104.5q152 0 237.5 103.5t88.5 265.5q0 164 -94.5 258t-229.5 94t-231.5 -92 t-96.5 -256z" />
<glyph unicode="c" horiz-adv-x="905" d="M94 412q0 188 118 314t316 128q80 0 153 -27.5t136 -78.5v-109q-57 63 -131 100t-158 37q-154 0 -251 -104.5t-97 -257.5q0 -154 96.5 -256.5t247.5 -102.5h8q78 0 152 38q78 40 143 112v-111q-61 -55 -138 -84.5t-167 -32.5q-188 0 -308 123t-120 312z" />
<glyph unicode="d" horiz-adv-x="1056" d="M94 422q0 193 109.5 312.5t300.5 119.5q96 0 180 -41t143 -123v803h82v-1493h-82v150q-55 -82 -139 -127.5t-184 -45.5q-170 0 -290 117t-120 328zM180 424q0 -174 96.5 -271.5t231.5 -97.5q131 0 227 97.5t96 271.5q0 150 -88.5 251t-238.5 101q-137 0 -230.5 -93 t-93.5 -259z" />
<glyph unicode="e" horiz-adv-x="989" d="M94 414v7q0 199 119 315q121 118 287 118q172 0 286 -126q109 -119 109 -301v-19h-715q-1 -11 -1 -22q-1 -140 93 -232q100 -100 240 -99q98 0 173 51.5t118 139.5l69 -41q-55 -104 -148 -166t-218 -62q-190 2 -301 124t-111 313zM186 485h623q-16 125 -102 208t-207 83 q-125 0 -211.5 -83t-102.5 -208z" />
<glyph unicode="f" horiz-adv-x="438" d="M53 758v78h94v397v9q0 136 57 205q58 71 163 71q18 0 35.5 -3.5t35.5 -9.5v-75q-16 4 -30.5 7t-32.5 3q-74 0 -110 -52.5t-36 -170.5v-381h209v-78h-209v-758h-82v758h-94z" />
<glyph unicode="g" horiz-adv-x="1064" d="M88 -121h86q10 -129 98 -204.5t226 -75.5q154 0 246 103t92 314v127q-61 -84 -148.5 -125t-181.5 -41q-168 2 -290 118t-122 323q0 186 115 311t307 125q100 -2 182 -44t138 -120v146h82v-820q0 -236 -112 -364.5t-308 -130.5q-172 2 -288 97t-122 261zM180 414v-7 q0 -149 88 -251q88 -101 230 -101h6q150 0 242 104.5t94 262.5q0 150 -91 252t-241 102t-239 -106.5t-89 -255.5z" />
<glyph unicode="h" horiz-adv-x="905" d="M147 0v1493h82v-788q39 70 103.5 109.5t152.5 39.5q78 0 137.5 -33t94.5 -84q18 -33 28.5 -81t12.5 -130v-526h-82v526q0 66 -8.5 104t-24.5 64q-27 39 -69 59.5t-95 22.5q-72 -2 -123 -31.5t-82 -85.5q-25 -41 -35 -95t-10 -130v-434h-82z" />
<glyph unicode="i" horiz-adv-x="376" d="M115 1114q0 33 20.5 54.5t52.5 21.5q31 0 52.5 -21.5t21.5 -54.5q0 -35 -21.5 -55.5t-52.5 -20.5q-33 -2 -53 19.5t-20 56.5zM147 0v836h82v-836h-82z" />
<glyph unicode="j" horiz-adv-x="376" d="M115 1114q0 33 20.5 54.5t52.5 21.5q31 0 52.5 -21.5t21.5 -54.5q0 -35 -21.5 -55.5t-52.5 -20.5q-33 -2 -53 19.5t-20 56.5zM147 -489v1325h82v-1325h-82z" />
<glyph unicode="k" horiz-adv-x="811" d="M147 0v1493h82v-1016l344 359h107l-352 -363l467 -473h-111l-412 414l-43 -43v-371h-82z" />
<glyph unicode="l" horiz-adv-x="376" d="M147 0v1493h82v-1493h-82z" />
<glyph unicode="m" horiz-adv-x="1335" d="M147 0v836h82v-105q35 59 88.5 91t128.5 32q86 0 145.5 -41t88.5 -111q35 74 98.5 113t149.5 39q57 -2 105 -19.5t83 -50.5q35 -39 53.5 -92t18.5 -135v-557h-82v557q0 66 -12.5 105.5t-36.5 66.5q-25 23 -55.5 35t-69.5 12q-104 0 -163.5 -67.5t-59.5 -204.5v-504h-82 v537q0 123 -50.5 181t-134.5 58q-106 0 -159.5 -82t-53.5 -211v-483h-82z" />
<glyph unicode="n" horiz-adv-x="905" d="M147 0v836h82v-131q39 70 103.5 109.5t152.5 39.5q78 0 137.5 -33t94.5 -84q18 -33 28.5 -81t12.5 -130v-526h-82v526q0 66 -8.5 104t-24.5 64q-27 39 -69 59.5t-95 22.5q-72 -2 -123 -31.5t-82 -85.5q-25 -41 -35 -95t-10 -130v-434h-82z" />
<glyph unicode="o" horiz-adv-x="1064" d="M94 416q0 186 125 312t313 126q186 0 312.5 -126t126.5 -312q0 -188 -126 -313.5t-313 -125.5q-188 0 -313 125t-125 314zM180 416q0 -154 100 -257.5t252 -103.5h6q146 1 246 103q102 104 101 258q0 152 -101.5 256t-251.5 104q-152 0 -253 -104q-99 -102 -99 -250v-6z " />
<glyph unicode="p" horiz-adv-x="1056" d="M147 -489v1325h82v-146q57 80 141.5 122t186.5 42q184 0 295 -123t111 -307q0 -190 -113 -318.5t-297 -128.5q-111 0 -193 46.5t-131 126.5v-639h-82zM225 428q0 -164 86 -268.5t240 -104.5q152 0 237.5 103.5t88.5 265.5q0 164 -94.5 258t-229.5 94t-231.5 -92 t-96.5 -256z" />
<glyph unicode="q" horiz-adv-x="1056" d="M94 422q0 193 109.5 312.5t300.5 119.5q96 0 180 -41t143 -123v146h82v-1325h-82v639q-55 -82 -139 -127.5t-184 -45.5q-170 0 -290 117t-120 328zM180 424q0 -174 96.5 -271.5t231.5 -97.5q131 0 227 97.5t96 271.5q0 150 -88.5 251t-238.5 101q-137 0 -230.5 -93 t-93.5 -259z" />
<glyph unicode="r" horiz-adv-x="532" d="M147 0v836h82v-109q25 55 72 90t113 37q20 0 43.5 -6t44.5 -14l-41 -74q-12 8 -27.5 12t-34.5 4q-90 0 -130 -81t-40 -246v-449h-82z" />
<glyph unicode="s" horiz-adv-x="700" d="M78 199l80 24q20 -82 78 -126q55 -42 125 -42h6q80 0 133 51.5t53 133.5q0 59 -34 95t-126 75q-119 47 -154.5 70.5t-54.5 49.5q-18 23 -27.5 50.5t-9.5 58.5q0 94 62.5 154.5t161.5 60.5q74 -2 131 -35.5t88 -99.5l-70 -37q-20 45 -60 69.5t-85 24.5q-61 0 -101.5 -38 t-40.5 -95q0 -43 26 -73.5t138 -73.5q115 -47 145.5 -68.5t53.5 -48.5q20 -29 31.5 -60.5t11.5 -74.5q0 -121 -76 -194t-196 -73q-106 0 -185.5 58.5t-103.5 163.5z" />
<glyph unicode="t" horiz-adv-x="397" d="M61 758v78h93v299h82v-299h145v-78h-145v-758h-82v758h-93z" />
<glyph unicode="u" horiz-adv-x="897" d="M147 309v527h82v-504q0 -80 12.5 -128t41.5 -81q27 -35 68.5 -51.5t97.5 -16.5h11q47 -1 84 15q42 18 70 53q27 33 40.5 81t13.5 128v504h82v-527q0 -82 -16.5 -136t-47.5 -93q-41 -51 -102.5 -77t-134.5 -26q-76 0 -137.5 26t-100.5 77q-33 39 -49 93q-15 48 -15 119v17 z" />
<glyph unicode="v" horiz-adv-x="798" d="M16 836h90l295 -695l291 695h90l-381 -887z" />
<glyph unicode="w" horiz-adv-x="1376" d="M16 836h90l289 -691l289 742l289 -742l297 691h90l-387 -887l-289 741l-289 -741z" />
<glyph unicode="x" horiz-adv-x="819" d="M16 0l338 438l-309 398h100l265 -344l260 344h100l-303 -398l336 -438h-101l-292 385l-293 -385h-101z" />
<glyph unicode="y" horiz-adv-x="876" d="M16 836h95l350 -744l305 744h94l-557 -1325h-94l205 475z" />
<glyph unicode="z" horiz-adv-x="925" d="M37 0l684 758h-578v78h746l-676 -758h672v-78h-848z" />
<glyph unicode="{" horiz-adv-x="569" d="M82 553v59q61 16 91 59.5t30 145.5v397q-2 88 14 135.5t49 77.5q33 33 87.5 48.5t113.5 17.5h25v-82q-45 4 -91.5 -10.5t-68.5 -38.5q-23 -25 -31 -59.5t-8 -94.5v-397q-2 -109 -33 -157t-98 -72q66 -25 97.5 -83.5t33.5 -154.5v-373q0 -61 9 -104t30 -66 q23 -27 68.5 -39t91.5 -8v-82h-19q-80 0 -129 18.5t-80 51.5q-33 35 -47 92t-14 154v360q0 94 -30 141.5t-91 63.5z" />
<glyph unicode="|" d="M471 -512v2048h82v-2048h-82z" />
<glyph unicode="}" horiz-adv-x="569" d="M78 -246q43 -4 89 8.5t71 38.5q18 23 28 66t10 104v373q0 96 32 154.5t100 83.5q-70 25 -101 72.5t-31 156.5v397q0 59 -9 94t-29 60q-25 25 -71 39t-89 10v82h24q57 0 111.5 -16.5t89.5 -49.5q31 -31 46.5 -77.5t17.5 -135.5v-397q-2 -102 27.5 -145.5t92.5 -59.5v-59 q-63 -16 -91.5 -63.5t-28.5 -141.5v-360q-2 -96 -16.5 -153.5t-45.5 -92.5q-33 -33 -82 -51.5t-127 -18.5h-18v82z" />
<glyph unicode="~" horiz-adv-x="1228" d="M127 1253q18 37 44 74t52 64q35 35 78 53t96 18q35 0 80 -14t152 -68q88 -47 131 -61t80 -14q39 0 70.5 12t62.5 43q18 18 37.5 46t36.5 58l55 -32q-16 -33 -37 -65t-43 -54q-43 -45 -91 -65.5t-104 -20.5q-51 0 -115.5 23.5t-160.5 78.5q-68 35 -98.5 45t-61.5 10 q-39 0 -70.5 -13t-60.5 -40q-25 -23 -45.5 -52t-32.5 -58z" />
<glyph unicode="&#xa1;" horiz-adv-x="532" d="M190 977q0 31 21.5 53.5t54.5 22.5q31 0 53.5 -22.5t22.5 -53.5q-2 -33 -23.5 -54.5t-52.5 -21.5q-33 0 -54.5 21.5t-21.5 54.5zM221 -328v1123h90v-1123h-90z" />
<glyph unicode="&#xa2;" horiz-adv-x="1118" d="M193 692q0 174 105 295t275 143v211h78v-208q68 -2 134.5 -28t129.5 -77v-108q-57 59 -124.5 95t-139.5 40v-717q74 2 143.5 39t131.5 108v-110q-61 -55 -132 -84t-143 -31v-233h-78v233q-172 23 -276 142.5t-104 289.5zM279 694q0 -139 82.5 -238.5t211.5 -117.5v715 q-133 -25 -213.5 -122t-80.5 -237z" />
<glyph unicode="&#xa3;" horiz-adv-x="1118" d="M139 45q53 57 114.5 87t129.5 30q51 45 83 100t32 117q0 14 -2 26.5t-7 26.5h-221v82h201q-16 35 -30.5 62.5t-114.5 189.5q-63 98 -81 154.5t-18 111.5q0 145 105.5 246.5t257.5 101.5t250 -103t100 -259h-90q2 127 -74 203.5t-184 76.5q-117 0 -194 -78.5t-77 -189.5 q0 -45 15.5 -93t62.5 -120q43 -72 61.5 -101.5t33.5 -51.5q20 -37 35.5 -69t35.5 -81h248v-82h-229q2 -14 4 -28.5t2 -34.5q0 -63 -29 -119.5t-78 -106.5l133 -45q66 -25 93.5 -31t54.5 -4q59 -2 110.5 37t81.5 105l74 -45q-45 -86 -113.5 -136.5t-142.5 -50.5 q-25 2 -55.5 7.5t-167.5 50.5q-94 31 -123 36t-51 7q-45 0 -88 -22.5t-99 -71.5z" />
<glyph unicode="&#xa4;" horiz-adv-x="1363" d="M147 1194l50 49l184 -182q61 57 140 86t161 29q80 0 159 -29t142 -86l184 182l50 -49l-185 -184q55 -61 83 -135t28 -160q0 -80 -26.5 -151.5t-86.5 -141.5l187 -186l-50 -50l-186 187q-61 -55 -135 -84t-160 -29q-90 0 -165 27.5t-134 81.5l-184 -185l-49 52l184 182 q-59 63 -87 141t-28 158q-2 80 25.5 154.5t83.5 138.5zM301 717q0 -160 111.5 -271.5t269.5 -111.5q158 -2 270.5 110.5t112.5 272.5q0 158 -112.5 271.5t-270.5 113.5t-270.5 -114t-110.5 -271z" />
<glyph unicode="&#xa5;" horiz-adv-x="1118" d="M61 1366h105l389 -686l397 686h105l-285 -483h250v-82h-297l-125 -211h422v-82h-424v-508h-90v508h-410v82h406l-121 211h-285v82h238z" />
<glyph unicode="&#xa6;" d="M471 225h82v-737h-82v737zM471 799v737h82v-737h-82z" />
<glyph unicode="&#xa7;" horiz-adv-x="1122" d="M205 575q0 111 55 197t168 131q-84 35 -137 108.5t-51 180.5q0 141 91 227t247 86q121 0 200.5 -56t106.5 -140q6 -25 12 -70t8 -86h-90q2 33 -3 67.5t-13 63.5q-25 66 -81 101.5t-140 37.5q-115 -2 -179.5 -63.5t-64.5 -171.5q0 -84 54 -145.5t220 -110.5 q82 -27 127 -49.5t80 -51.5q49 -45 74.5 -108.5t28.5 -144.5q0 -113 -57.5 -199t-168.5 -127q92 -37 146.5 -113t56.5 -184q0 -156 -95 -231.5t-239 -77.5q-117 2 -189.5 44t-103.5 111q-16 37 -25.5 93.5t-4.5 105.5h90q-2 -37 3 -77t15 -66q23 -63 81 -96t134 -33 q109 0 174.5 62.5t65.5 166.5q0 90 -55.5 153.5t-167.5 96.5q-168 47 -207 69.5t-68 51.5q-51 47 -74.5 108.5t-23.5 138.5zM299 578q0 -115 72.5 -190t189.5 -75q115 0 188.5 75t73.5 190q0 113 -73.5 188.5t-188.5 75.5q-117 -2 -190.5 -77t-71.5 -187z" />
<glyph unicode="&#xa8;" d="M268 1077q0 29 21.5 51.5t52.5 22.5q29 0 50.5 -22.5t23.5 -51.5q-2 -31 -23.5 -52t-50.5 -21q-31 0 -52.5 21t-21.5 52zM608 1077q0 29 21.5 51.5t52.5 22.5q29 0 51.5 -22.5t22.5 -51.5q0 -31 -22.5 -52t-51.5 -21q-31 0 -52.5 21t-21.5 52z" />
<glyph unicode="&#xa9;" horiz-adv-x="1515" d="M55 682q0 291 205 497.5t498 206.5q291 -2 496.5 -207.5t205.5 -496.5t-205.5 -496.5t-496.5 -205.5q-293 0 -498 205.5t-205 496.5zM125 682q-2 -266 184.5 -453.5t448.5 -187.5q260 0 446.5 187.5t186.5 453.5q-2 264 -187.5 453.5t-445.5 189.5q-262 0 -447.5 -189.5 t-185.5 -453.5zM383 674q0 172 114.5 286.5t288.5 114.5q74 0 141 -27.5t124 -76.5v-109q-49 63 -117 101t-150 38q-141 0 -232 -94t-91 -235q0 -139 92 -231.5t233 -92.5q74 0 142.5 33t122.5 100v-106q-59 -49 -126 -75t-139 -26q-174 0 -288.5 113t-114.5 287z" />
<glyph unicode="&#xaa;" horiz-adv-x="692" d="M61 1081q0 127 73 206t196 79q68 0 123 -27.5t92 -78.5v94h53v-549h-53v98q-37 -53 -93.5 -82.5t-121.5 -27.5q-111 0 -190 75.5t-79 212.5zM76 608v70h522v-70h-522zM119 1083q-2 -104 56 -172.5t159 -68.5q98 0 156.5 69.5t58.5 171.5q0 104 -60.5 169t-154.5 65 q-100 0 -157.5 -65.5t-57.5 -168.5z" />
<glyph unicode="&#xab;" horiz-adv-x="712" d="M66 424l266 307l53 -49l-221 -258l221 -258l-53 -49zM283 424l266 307l53 -49l-221 -258l221 -258l-53 -49z" />
<glyph unicode="&#xac;" d="M68 469v78h888v-547h-82v469h-806z" />
<glyph unicode="&#xad;" horiz-adv-x="573" d="M82 377v94h410v-94h-410z" />
<glyph unicode="&#xae;" horiz-adv-x="1515" d="M55 682q0 291 205 497.5t498 206.5q291 -2 496.5 -207.5t205.5 -496.5t-205.5 -496.5t-496.5 -205.5q-293 0 -498 205.5t-205 496.5zM125 682q-2 -266 184.5 -453.5t448.5 -187.5q260 0 446.5 187.5t186.5 453.5q-2 264 -187.5 453.5t-445.5 189.5q-262 0 -447.5 -189.5 t-185.5 -453.5zM608 276v758h127q123 -2 182.5 -49t59.5 -158q0 -70 -33 -115.5t-98 -70.5q-27 -10 -41 -11t-33 -5l242 -349h-82l-240 351h-14v-351h-70zM678 690h70q82 0 119.5 37t37.5 102q-2 68 -35.5 105t-132.5 37h-59v-281z" />
<glyph unicode="&#xaf;" d="M236 1010v80h552v-80h-552z" />
<glyph unicode="&#xb0;" d="M236 1114q0 117 76.5 192.5t199.5 75.5q121 0 198.5 -75.5t77.5 -192.5q0 -119 -77.5 -194.5t-198.5 -73.5q-123 0 -199.5 74.5t-76.5 193.5zM301 1114q-2 -92 56.5 -151.5t154.5 -59.5q94 0 152.5 59.5t58.5 151.5q0 90 -58.5 150.5t-152.5 60.5q-96 0 -153.5 -60.5 t-57.5 -150.5z" />
<glyph unicode="&#xb1;" d="M68 156v77h888v-77h-888zM68 694v78h403v371h82v-371h403v-78h-403v-370h-82v370h-403z" />
<glyph unicode="&#xb2;" horiz-adv-x="675" d="M76 547l299 346q27 31 48 58.5t36 49.5q20 35 30.5 71t12.5 73q0 68 -45 113t-119 45q-43 0 -74 -14.5t-53 -37.5q-23 -25 -34 -54.5t-9 -61.5h-74q-2 47 14.5 92t51.5 80q33 33 79 50t101 19q106 -2 175 -66.5t69 -164.5q0 -45 -13.5 -88t-40.5 -82q-10 -14 -32.5 -45 t-32.5 -43l-225 -266h340v-74h-504z" />
<glyph unicode="&#xb3;" horiz-adv-x="675" d="M98 748h74q0 -20 7 -41t18 -35q18 -29 54 -45.5t73 -16.5q66 0 112.5 49.5t46.5 122.5q-2 43 -21.5 78t-60.5 55q-23 10 -53.5 15.5t-60.5 5.5v74q33 0 64.5 9t54.5 25q29 20 47 53t20 72q-2 55 -37 94.5t-96 39.5q-33 0 -57.5 -10.5t-42.5 -28.5t-27.5 -43t-9.5 -50h-74 q0 39 15.5 79t43.5 69q27 27 66 42t86 15q98 0 156.5 -59.5t58.5 -145.5q0 -70 -35 -122t-94 -74q66 -20 102.5 -74.5t36.5 -124.5q0 -104 -69.5 -171.5t-171.5 -67.5q-63 0 -116.5 29.5t-80.5 76.5q-14 20 -21.5 48t-7.5 57z" />
<glyph unicode="&#xb4;" d="M436 989l189 281l88 -51l-215 -263z" />
<glyph unicode="&#xb5;" d="M147 -336v1172h82v-424q-2 -115 17.5 -174.5t62.5 -100.5q39 -43 88 -63.5t103 -18.5q121 -2 207 100.5t88 280.5v400h82v-836h-82v184q-14 -39 -36 -70.5t-52 -60.5q-45 -41 -95.5 -57t-115.5 -19q-90 0 -158 42t-109 124v-479h-82z" />
<glyph unicode="&#xb6;" horiz-adv-x="1087" d="M37 997q0 168 108.5 268.5t329.5 100.5h473v-68h-108v-1507h-74v1507h-240v-1507h-73v846h-35q-166 -2 -274.5 99.5t-106.5 260.5z" />
<glyph unicode="&#xb7;" horiz-adv-x="409" d="M106 696q0 41 28 69t71 30q41 -2 69.5 -30t28.5 -69q0 -43 -28.5 -70.5t-69.5 -27.5q-43 0 -71 27.5t-28 70.5z" />
<glyph unicode="&#xb8;" d="M377 -365l170 263l100 -41l-201 -254z" />
<glyph unicode="&#xb9;" horiz-adv-x="675" d="M184 1292l25 74h180v-819h-78v745h-127z" />
<glyph unicode="&#xba;" horiz-adv-x="700" d="M61 1079q0 127 82 207t207 80q123 0 206 -80t83 -207q0 -129 -83 -207.5t-206 -78.5q-125 0 -207 78.5t-82 207.5zM76 608v70h547v-70h-547zM119 1079q0 -102 65.5 -170.5t165.5 -66.5q98 -2 165 66.5t67 170.5q0 100 -67 169t-165 69q-100 0 -165.5 -68.5t-65.5 -169.5z " />
<glyph unicode="&#xbb;" horiz-adv-x="712" d="M111 166l221 258l-221 258l53 49l266 -307l-266 -307zM328 166l221 258l-221 258l53 49l266 -307l-266 -307z" />
<glyph unicode="&#xbc;" horiz-adv-x="1556" d="M184 1292l25 74h180v-819h-78v745h-127zM385 2l807 1395l61 -33l-807 -1395zM897 156l496 690v-617h114v-73h-114v-156h-78v156h-418zM1040 229h275v389z" />
<glyph unicode="&#xbd;" horiz-adv-x="1556" d="M184 1292l25 74h180v-819h-78v745h-127zM324 2l806 1395l62 -33l-807 -1395zM956 0l299 346q27 31 48.5 58.5t35.5 50.5q20 35 31.5 70.5t11.5 72.5q-2 68 -46 113t-117 45q-43 -2 -74 -15.5t-53 -35.5q-23 -25 -34 -54.5t-9 -62.5h-74q-2 47 14.5 92t50.5 80 q33 33 79 51t102 18q106 0 174.5 -65.5t68.5 -165.5q0 -45 -13 -88t-40 -82q-10 -14 -32.5 -45t-32.5 -43l-226 -266h340v-74h-504z" />
<glyph unicode="&#xbe;" horiz-adv-x="1556" d="M98 748h74q0 -20 7 -41t18 -35q18 -29 54 -45.5t73 -16.5q66 0 112.5 49.5t46.5 122.5q-2 43 -21.5 78t-60.5 55q-23 10 -53.5 15.5t-60.5 5.5v74q33 0 64.5 9t54.5 25q29 20 47 53t20 72q-2 55 -37 94.5t-96 39.5q-33 0 -57.5 -10.5t-42.5 -28.5t-27.5 -43t-9.5 -50h-74 q0 39 15.5 79t43.5 69q27 27 66 42t86 15q98 0 156.5 -59.5t58.5 -145.5q0 -70 -35 -122t-94 -74q66 -20 102.5 -74.5t36.5 -124.5q0 -104 -69.5 -171.5t-171.5 -67.5q-63 0 -116.5 29.5t-80.5 76.5q-14 20 -21.5 48t-7.5 57zM426 2l807 1395l61 -33l-807 -1395zM897 156 l496 690v-617h114v-73h-114v-156h-78v156h-418zM1040 229h275v389z" />
<glyph unicode="&#xbf;" horiz-adv-x="954" d="M152 -8q0 70 17 122t56 95q33 37 75 61.5t108 42.5q141 39 160.5 48.5t33.5 21.5q31 25 50.5 63.5t19.5 88.5q0 39 -14.5 75.5t-36.5 63.5q-27 27 -64 43t-82 16q-55 -2 -97 -21.5t-65 -52.5q-18 -27 -27 -67.5t-7 -79.5h-82q0 47 11 96t32 84q35 57 96 88t137 31 q59 -2 114.5 -21.5t92.5 -52.5q37 -37 59.5 -92t22.5 -115q0 -63 -24.5 -116.5t-65.5 -85.5q-29 -25 -70 -43.5t-98 -30.5q-119 -31 -153 -49.5t-54 -40.5q-29 -31 -40 -74t-11 -94q0 -63 14 -106.5t47 -77.5q33 -35 77 -52.5t97 -17.5q53 2 98.5 20.5t75.5 49.5 q25 29 41.5 75.5t16.5 108.5q-2 20 -5 39.5t-10 42.5h90q6 -25 10.5 -46.5t4.5 -47.5q0 -80 -22.5 -136.5t-67.5 -101.5q-43 -39 -104.5 -62.5t-133.5 -23.5q-70 0 -133 23.5t-106 68.5q-45 47 -64.5 105.5t-19.5 134.5zM399 977q0 31 21.5 53.5t54.5 22.5q31 0 53.5 -22.5 t22.5 -53.5q0 -33 -22.5 -54.5t-53.5 -21.5q-33 -2 -54.5 20.5t-21.5 55.5z" />
<glyph unicode="&#xc0;" horiz-adv-x="1200" d="M29 0l575 1407l567 -1407h-98l-182 449h-582l-182 -449h-98zM342 530h516l-256 648zM362 1698l103 51l237 -272l-65 -37z" />
<glyph unicode="&#xc1;" horiz-adv-x="1200" d="M29 0l575 1407l567 -1407h-98l-182 449h-582l-182 -449h-98zM342 530h516l-256 648zM498 1477l237 272l103 -51l-275 -258z" />
<glyph unicode="&#xc2;" horiz-adv-x="1200" d="M29 0l575 1407l567 -1407h-98l-182 449h-582l-182 -449h-98zM334 1534l266 184l266 -184l-69 -55l-197 131l-197 -131zM342 530h516l-256 648z" />
<glyph unicode="&#xc3;" horiz-adv-x="1200" d="M29 0l575 1407l567 -1407h-98l-182 449h-582l-182 -449h-98zM334 1513q8 20 21.5 42t25.5 36q18 18 41.5 30.5t50.5 14.5q23 -2 51.5 -9t79.5 -25q72 -31 88.5 -34t32.5 -3q14 0 25.5 4t25.5 20q10 12 17.5 24.5t13.5 28.5l59 -45q-10 -27 -24.5 -49t-32.5 -39 q-23 -18 -46.5 -26t-47.5 -8q-20 0 -46 6t-73 28q-63 27 -84 32t-35 5q-18 0 -32.5 -7t-24.5 -21q-6 -8 -13.5 -22t-13.5 -28zM342 530h516l-256 648z" />
<glyph unicode="&#xc4;" horiz-adv-x="1200" d="M29 0l575 1407l567 -1407h-98l-182 449h-582l-182 -449h-98zM332 1597q0 31 22.5 54.5t55.5 23.5q31 0 53 -23.5t24 -54.5q0 -33 -23.5 -55t-53.5 -22q-33 0 -55.5 22t-22.5 55zM342 530h516l-256 648zM713 1597q0 31 22.5 53.5t54.5 24.5q31 0 54.5 -23.5t23.5 -54.5 q-2 -33 -24.5 -55t-53.5 -22q-33 0 -55 22t-22 55z" />
<glyph unicode="&#xc5;" horiz-adv-x="1200" d="M29 0l575 1407l567 -1407h-98l-182 449h-582l-182 -449h-98zM342 530h516l-256 648zM436 1612q0 66 48 115t116 49q66 0 115 -49.5t49 -114.5q0 -68 -49 -116t-115 -48q-68 0 -117 48t-47 116zM516 1612q-2 -39 21.5 -62.5t62.5 -21.5q37 0 60.5 22.5t23.5 61.5 q0 37 -23.5 59.5t-60.5 24.5q-39 -2 -62.5 -24.5t-21.5 -59.5z" />
<glyph unicode="&#xc6;" horiz-adv-x="1744" d="M29 0l551 1366h591l35 -82h-563l203 -496h549l35 -81h-549l254 -625h559l37 -82h-660l-182 449h-584l-178 -449h-98zM338 530h516l-260 644z" />
<glyph unicode="&#xc7;" horiz-adv-x="1390" d="M111 680q0 295 205.5 498.5t502.5 205.5q137 0 254 -49t205 -129v-119q-88 102 -209 159t-252 57q-262 0 -437 -183.5t-175 -443.5q0 -258 176 -437.5t438 -179.5q127 0 248 55.5t211 151.5v-119q-90 -80 -207 -125t-248 -45q-303 2 -508.5 207t-203.5 496zM611 -375 l180 273l114 -52l-221 -260z" />
<glyph unicode="&#xc8;" horiz-adv-x="950" d="M184 0v1366h656v-82h-566v-496h553v-81h-553v-625h566v-82h-656zM294 1698l103 51l237 -272l-65 -37z" />
<glyph unicode="&#xc9;" horiz-adv-x="950" d="M184 0v1366h656v-82h-566v-496h553v-81h-553v-625h566v-82h-656zM410 1477l237 272l103 -51l-275 -258z" />
<glyph unicode="&#xca;" horiz-adv-x="950" d="M184 0v1366h656v-82h-566v-496h553v-81h-553v-625h566v-82h-656zM246 1534l266 184l266 -184l-69 -55l-197 131l-197 -131z" />
<glyph unicode="&#xcb;" horiz-adv-x="950" d="M184 0v1366h656v-82h-566v-496h553v-81h-553v-625h566v-82h-656zM244 1597q0 31 22.5 54.5t55.5 23.5q31 0 53 -23.5t24 -54.5q0 -33 -23.5 -55t-53.5 -22q-33 0 -55.5 22t-22.5 55zM625 1597q0 31 22.5 53.5t54.5 24.5q31 0 54.5 -23.5t23.5 -54.5q-2 -33 -24.5 -55 t-53.5 -22q-33 0 -55 22t-22 55z" />
<glyph unicode="&#xcc;" horiz-adv-x="458" d="M10 1714l115 35l184 -279l-84 -30zM184 0v1366h90v-1366h-90z" />
<glyph unicode="&#xcd;" horiz-adv-x="458" d="M150 1470l182 279l117 -35l-218 -274zM184 0v1366h90v-1366h-90z" />
<glyph unicode="&#xce;" horiz-adv-x="458" d="M-6 1536l235 182l236 -182l-72 -55l-164 121l-163 -123zM184 0v1366h90v-1366h-90z" />
<glyph unicode="&#xcf;" horiz-adv-x="458" d="M20 1597q0 31 23 53.5t55 24.5q31 0 54.5 -23.5t23.5 -54.5q0 -33 -23.5 -56t-54.5 -21q-33 0 -55.5 22t-22.5 55zM184 0v1366h90v-1366h-90zM283 1597q0 31 22.5 54.5t54.5 23.5q31 0 53.5 -23.5t24.5 -54.5q0 -33 -23.5 -55t-54.5 -22q-33 0 -55 22t-22 55z" />
<glyph unicode="&#xd0;" horiz-adv-x="1265" d="M0 707v81h184v578h271q160 0 284.5 -49t218.5 -141q90 -92 143.5 -223.5t53.5 -270.5q0 -141 -53 -271t-144 -221q-94 -94 -218.5 -142t-284.5 -48h-271v707h-184zM274 82h179q268 -2 438 166t170 434q0 262 -170 432t-438 170h-179v-496h279v-81h-279v-625z" />
<glyph unicode="&#xd1;" horiz-adv-x="1605" d="M184 0v1380l1147 -1200v1186h90v-1401l-1147 1200v-1165h-90zM537 1513q8 20 21.5 42t25.5 36q18 18 41.5 30.5t50.5 14.5q23 -2 51.5 -9t79.5 -25q72 -31 88.5 -34t32.5 -3q14 0 25.5 4t25.5 20q10 12 17.5 24.5t13.5 28.5l59 -45q-10 -27 -24.5 -49t-32.5 -39 q-23 -18 -46.5 -26t-47.5 -8q-20 0 -46 6t-73 28q-63 27 -84 32t-35 5q-18 0 -32.5 -7t-24.5 -21q-6 -8 -13.5 -22t-13.5 -28z" />
<glyph unicode="&#xd2;" horiz-adv-x="1638" d="M111 680q0 295 203.5 498.5t504.5 205.5q299 0 504 -204.5t205 -499.5q-2 -297 -207 -500t-502 -203q-299 0 -503.5 203t-204.5 500zM205 680q0 -264 175 -442.5t439 -178.5q262 0 438.5 178.5t176.5 442.5q-2 262 -177.5 442.5t-437.5 180.5q-264 0 -439 -180.5 t-175 -442.5zM581 1698l103 51l237 -272l-65 -37z" />
<glyph unicode="&#xd3;" horiz-adv-x="1638" d="M111 680q0 295 203.5 498.5t504.5 205.5q299 0 504 -204.5t205 -499.5q-2 -297 -207 -500t-502 -203q-299 0 -503.5 203t-204.5 500zM205 680q0 -264 175 -442.5t439 -178.5q262 0 438.5 178.5t176.5 442.5q-2 262 -177.5 442.5t-437.5 180.5q-264 0 -439 -180.5 t-175 -442.5zM717 1477l237 272l103 -51l-275 -258z" />
<glyph unicode="&#xd4;" horiz-adv-x="1638" d="M111 680q0 295 203.5 498.5t504.5 205.5q299 0 504 -204.5t205 -499.5q-2 -297 -207 -500t-502 -203q-299 0 -503.5 203t-204.5 500zM205 680q0 -264 175 -442.5t439 -178.5q262 0 438.5 178.5t176.5 442.5q-2 262 -177.5 442.5t-437.5 180.5q-264 0 -439 -180.5 t-175 -442.5zM553 1534l266 184l266 -184l-69 -55l-197 131l-197 -131z" />
<glyph unicode="&#xd5;" horiz-adv-x="1638" d="M111 680q0 295 203.5 498.5t504.5 205.5q299 0 504 -204.5t205 -499.5q-2 -297 -207 -500t-502 -203q-299 0 -503.5 203t-204.5 500zM205 680q0 -264 175 -442.5t439 -178.5q262 0 438.5 178.5t176.5 442.5q-2 262 -177.5 442.5t-437.5 180.5q-264 0 -439 -180.5 t-175 -442.5zM553 1513q8 20 21.5 42t25.5 36q18 18 41.5 30.5t50.5 14.5q23 -2 51.5 -9t79.5 -25q72 -31 88.5 -34t32.5 -3q14 0 25.5 4t25.5 20q10 12 17.5 24.5t13.5 28.5l59 -45q-10 -27 -24.5 -49t-32.5 -39q-23 -18 -46.5 -26t-47.5 -8q-20 0 -46 6t-73 28 q-63 27 -84 32t-35 5q-18 0 -32.5 -7t-24.5 -21q-6 -8 -13.5 -22t-13.5 -28z" />
<glyph unicode="&#xd6;" horiz-adv-x="1638" d="M111 680q0 295 203.5 498.5t504.5 205.5q299 0 504 -204.5t205 -499.5q-2 -297 -207 -500t-502 -203q-299 0 -503.5 203t-204.5 500zM205 680q0 -264 175 -442.5t439 -178.5q262 0 438.5 178.5t176.5 442.5q-2 262 -177.5 442.5t-437.5 180.5q-264 0 -439 -180.5 t-175 -442.5zM551 1597q0 31 22.5 54.5t55.5 23.5q31 0 53 -23.5t24 -54.5q0 -33 -23.5 -55t-53.5 -22q-33 0 -55.5 22t-22.5 55zM932 1597q0 31 22.5 53.5t54.5 24.5q31 0 54.5 -23.5t23.5 -54.5q-2 -33 -24.5 -55t-53.5 -22q-33 0 -55 22t-22 55z" />
<glyph unicode="&#xd7;" d="M137 354l320 320l-320 319l56 56l319 -320l319 320l56 -56l-320 -319l320 -320l-56 -55l-319 319l-319 -319z" />
<glyph unicode="&#xd8;" horiz-adv-x="1638" d="M111 680q0 295 204.5 498.5t503.5 205.5q135 0 254 -44t219 -132l160 162l55 -55l-159 -160q84 -96 132 -217t48 -258q0 -295 -206 -499t-503 -204q-135 0 -255 43t-218 132l-160 -162l-55 53l162 162q-94 100 -138 220t-44 255zM205 680q-2 -121 35.5 -224.5 t113.5 -189.5l877 883q-86 76 -189.5 113.5t-222.5 40.5q-264 0 -439 -180.5t-175 -442.5zM408 211q84 -76 187 -114t224 -38q262 0 438.5 179.5t176.5 441.5q0 121 -39 223.5t-109 188.5z" />
<glyph unicode="&#xd9;" horiz-adv-x="1300" d="M184 512v854h90v-854q-2 -119 11.5 -181.5t46.5 -113.5q49 -80 134 -119t183 -39q96 0 181 39t137 119q31 51 44 113.5t13 181.5v854h90v-854q-2 -139 -18.5 -213t-59.5 -137q-66 -94 -165 -139.5t-222 -45.5q-125 0 -224 45.5t-163 139.5q-45 63 -62.5 137t-15.5 213z M411 1698l103 51l237 -272l-65 -37z" />
<glyph unicode="&#xda;" horiz-adv-x="1300" d="M184 512v854h90v-854q-2 -119 11.5 -181.5t46.5 -113.5q49 -80 134 -119t183 -39q96 0 181 39t137 119q31 51 44 113.5t13 181.5v854h90v-854q-2 -139 -18.5 -213t-59.5 -137q-66 -94 -165 -139.5t-222 -45.5q-125 0 -224 45.5t-163 139.5q-45 63 -62.5 137t-15.5 213z M547 1477l237 272l103 -51l-275 -258z" />
<glyph unicode="&#xdb;" horiz-adv-x="1300" d="M184 512v854h90v-854q-2 -119 11.5 -181.5t46.5 -113.5q49 -80 134 -119t183 -39q96 0 181 39t137 119q31 51 44 113.5t13 181.5v854h90v-854q-2 -139 -18.5 -213t-59.5 -137q-66 -94 -165 -139.5t-222 -45.5q-125 0 -224 45.5t-163 139.5q-45 63 -62.5 137t-15.5 213z M383 1534l266 184l266 -184l-69 -55l-197 131l-197 -131z" />
<glyph unicode="&#xdc;" horiz-adv-x="1300" d="M184 512v854h90v-854q-2 -119 11.5 -181.5t46.5 -113.5q49 -80 134 -119t183 -39q96 0 181 39t137 119q31 51 44 113.5t13 181.5v854h90v-854q-2 -139 -18.5 -213t-59.5 -137q-66 -94 -165 -139.5t-222 -45.5q-125 0 -224 45.5t-163 139.5q-45 63 -62.5 137t-15.5 213z M381 1597q0 31 22.5 54.5t55.5 23.5q31 0 53 -23.5t24 -54.5q0 -33 -23.5 -55t-53.5 -22q-33 0 -55.5 22t-22.5 55zM762 1597q0 31 22.5 53.5t54.5 24.5q31 0 54.5 -23.5t23.5 -54.5q-2 -33 -24.5 -55t-53.5 -22q-33 0 -55 22t-22 55z" />
<glyph unicode="&#xdd;" horiz-adv-x="1056" d="M29 1366h102l393 -690l402 690h102l-461 -782v-584h-90v584zM426 1477l237 272l103 -51l-275 -258z" />
<glyph unicode="&#xde;" horiz-adv-x="913" d="M184 0v1366h90v-246h175q174 0 286.5 -94t112.5 -262q0 -170 -109.5 -266.5t-287.5 -94.5h-177v-403h-90zM274 485h181q133 0 216 74t83 203q0 127 -83 200.5t-231 75.5h-166v-553z" />
<glyph unicode="&#xdf;" horiz-adv-x="1011" d="M57 758v78h90v362q-2 147 77 233.5t218 86.5q131 0 214 -82t83 -209q0 -92 -44 -157.5t-115 -94.5q51 -20 94 -43t80 -53q82 -74 123 -173.5t41 -205.5q-2 -106 -45.5 -203.5t-127.5 -171.5q-66 -57 -146.5 -91t-170.5 -44v82q72 8 136.5 36.5t121.5 77.5 q76 63 110.5 144.5t34.5 173.5q0 104 -47 197.5t-133 152.5q-51 33 -109.5 53.5t-113.5 24.5v72q102 4 163.5 66.5t61.5 158.5q-2 96 -60 153.5t-155 57.5q-106 0 -158.5 -64.5t-50.5 -177.5v-1198h-82v758h-90z" />
<glyph unicode="&#xe0;" horiz-adv-x="1056" d="M94 418q0 195 111.5 315.5t296.5 120.5q100 0 183 -41t142 -123v146h82v-836h-82v150q-55 -82 -139 -126t-186 -47q-172 0 -290 120t-118 321zM180 424q0 -152 88 -260.5t240 -108.5q150 -2 236.5 106.5t86.5 262.5t-93 253t-232 99q-133 -2 -229.5 -96t-96.5 -256z M334 1219l88 51l188 -281l-61 -33z" />
<glyph unicode="&#xe1;" horiz-adv-x="1056" d="M94 418q0 195 111.5 315.5t296.5 120.5q100 0 183 -41t142 -123v146h82v-836h-82v150q-55 -82 -139 -126t-186 -47q-172 0 -290 120t-118 321zM180 424q0 -152 88 -260.5t240 -108.5q150 -2 236.5 106.5t86.5 262.5t-93 253t-232 99q-133 -2 -229.5 -96t-96.5 -256z M452 989l189 281l88 -51l-215 -263z" />
<glyph unicode="&#xe2;" horiz-adv-x="1056" d="M94 418q0 195 111.5 315.5t296.5 120.5q100 0 183 -41t142 -123v146h82v-836h-82v150q-55 -82 -139 -126t-186 -47q-172 0 -290 120t-118 321zM180 424q0 -152 88 -260.5t240 -108.5q150 -2 236.5 106.5t86.5 262.5t-93 253t-232 99q-133 -2 -229.5 -96t-96.5 -256z M280 1008l250 192l250 -192l-66 -52l-184 140l-184 -140z" />
<glyph unicode="&#xe3;" horiz-adv-x="1056" d="M94 418q0 195 111.5 315.5t296.5 120.5q100 0 183 -41t142 -123v146h82v-836h-82v150q-55 -82 -139 -126t-186 -47q-172 0 -290 120t-118 321zM180 424q0 -152 88 -260.5t240 -108.5q150 -2 236.5 106.5t86.5 262.5t-93 253t-232 99q-133 -2 -229.5 -96t-96.5 -256z M291 1036q6 20 18.5 42t28.5 36q18 18 43 27.5t51 11.5q20 0 45 -6t78 -29q59 -27 80.5 -32t40.5 -5q18 -2 30.5 4.5t24.5 20.5q6 8 14.5 22.5t14.5 28.5l51 -41q-8 -25 -22.5 -46t-30.5 -36q-20 -16 -44 -25.5t-48 -9.5q-20 -2 -46 6.5t-73 28.5q-63 25 -82.5 31t-38.5 6 q-20 0 -34.5 -7t-22.5 -17t-15.5 -24t-9.5 -26z" />
<glyph unicode="&#xe4;" horiz-adv-x="1056" d="M94 418q0 195 111.5 315.5t296.5 120.5q100 0 183 -41t142 -123v146h82v-836h-82v150q-55 -82 -139 -126t-186 -47q-172 0 -290 120t-118 321zM180 424q0 -152 88 -260.5t240 -108.5q150 -2 236.5 106.5t86.5 262.5t-93 253t-232 99q-133 -2 -229.5 -96t-96.5 -256z M307 1077q0 29 21.5 51.5t52.5 22.5q29 0 50.5 -22.5t23.5 -51.5q-2 -31 -23.5 -52t-50.5 -21q-31 0 -52.5 21t-21.5 52zM647 1077q0 29 21.5 51.5t52.5 22.5q29 0 51.5 -22.5t22.5 -51.5q0 -31 -22.5 -52t-51.5 -21q-31 0 -52.5 21t-21.5 52z" />
<glyph unicode="&#xe5;" horiz-adv-x="1056" d="M94 418q0 195 111.5 315.5t296.5 120.5q100 0 183 -41t142 -123v146h82v-836h-82v150q-55 -82 -139 -126t-186 -47q-172 0 -290 120t-118 321zM180 424q0 -152 88 -260.5t240 -108.5q150 -2 236.5 106.5t86.5 262.5t-93 253t-232 99q-133 -2 -229.5 -96t-96.5 -256z M383 1124q0 66 45 111t113 47q66 0 112 -46t46 -112q0 -68 -46 -112.5t-112 -44.5q-68 0 -113 44.5t-45 112.5zM457 1124q-2 -39 21.5 -62.5t62.5 -21.5q37 0 60.5 22.5t23.5 61.5q0 37 -23.5 60.5t-60.5 23.5q-39 0 -61.5 -23.5t-22.5 -60.5z" />
<glyph unicode="&#xe6;" horiz-adv-x="1622" d="M92 238q0 113 94.5 187.5t272.5 76.5q88 0 151.5 -20.5t116.5 -65.5q10 147 -66.5 253.5t-224.5 106.5q-66 0 -140.5 -20.5t-143.5 -55.5v84q70 35 143.5 51.5t144.5 18.5q119 -2 206 -61.5t128 -171.5q51 106 145.5 169.5t213.5 63.5q160 0 275.5 -116.5t121.5 -331.5 h-717q2 -158 93 -255.5t231 -95.5q94 0 171.5 50.5t129.5 138.5l69 -49q-70 -109 -167 -162t-205 -56q-119 0 -207 55.5t-137 153.5q-35 -104 -126.5 -155t-220.5 -54q-168 0 -260 76t-92 185zM178 238q0 -78 68.5 -130.5t197.5 -52.5q127 0 202 53.5t75 137.5 q0 78 -69.5 127t-194.5 51q-137 0 -208 -53.5t-71 -132.5zM823 483h621q-20 125 -107.5 209t-206.5 84q-121 0 -206 -84t-101 -209z" />
<glyph unicode="&#xe7;" horiz-adv-x="905" d="M94 412q0 188 118 314t316 128q80 0 153 -27.5t136 -78.5v-109q-57 63 -131 100t-158 37q-154 0 -251 -104.5t-97 -257.5q0 -154 96.5 -256.5t247.5 -102.5q82 -2 160 38t143 112v-111q-61 -55 -138 -84.5t-167 -32.5q-188 0 -308 123t-120 312zM318 -365l170 263 l100 -41l-201 -254z" />
<glyph unicode="&#xe8;" horiz-adv-x="997" d="M94 414q-2 205 119 322.5t287 117.5q172 0 286.5 -125.5t108.5 -320.5h-715q-8 -154 92.5 -253.5t239.5 -99.5q98 0 173 51.5t118 139.5l69 -41q-55 -104 -148 -166t-218 -62q-190 2 -301 124t-111 313zM186 485h623q-16 125 -102 208t-207 83q-125 0 -211.5 -83 t-102.5 -208zM293 1219l88 51l188 -281l-61 -33z" />
<glyph unicode="&#xe9;" horiz-adv-x="997" d="M94 414q-2 205 119 322.5t287 117.5q172 0 286.5 -125.5t108.5 -320.5h-715q-8 -154 92.5 -253.5t239.5 -99.5q98 0 173 51.5t118 139.5l69 -41q-55 -104 -148 -166t-218 -62q-190 2 -301 124t-111 313zM186 485h623q-16 125 -102 208t-207 83q-125 0 -211.5 -83 t-102.5 -208zM422 989l189 281l88 -51l-215 -263z" />
<glyph unicode="&#xea;" horiz-adv-x="997" d="M94 414q-2 205 119 322.5t287 117.5q172 0 286.5 -125.5t108.5 -320.5h-715q-8 -154 92.5 -253.5t239.5 -99.5q98 0 173 51.5t118 139.5l69 -41q-55 -104 -148 -166t-218 -62q-190 2 -301 124t-111 313zM186 485h623q-16 125 -102 208t-207 83q-125 0 -211.5 -83 t-102.5 -208zM262 1008l250 192l250 -192l-66 -52l-184 140l-184 -140z" />
<glyph unicode="&#xeb;" horiz-adv-x="997" d="M94 414q-2 205 119 322.5t287 117.5q172 0 286.5 -125.5t108.5 -320.5h-715q-8 -154 92.5 -253.5t239.5 -99.5q98 0 173 51.5t118 139.5l69 -41q-55 -104 -148 -166t-218 -62q-190 2 -301 124t-111 313zM186 485h623q-16 125 -102 208t-207 83q-125 0 -211.5 -83 t-102.5 -208zM254 1077q0 29 21.5 51.5t52.5 22.5q29 0 50.5 -22.5t23.5 -51.5q-2 -31 -23.5 -52t-50.5 -21q-31 0 -52.5 21t-21.5 52zM594 1077q0 29 21.5 51.5t52.5 22.5q29 0 51.5 -22.5t22.5 -51.5q0 -31 -22.5 -52t-51.5 -21q-31 0 -52.5 21t-21.5 52z" />
<glyph unicode="&#xec;" horiz-adv-x="376" d="M-31 1219l88 51l188 -281l-61 -33zM147 0v836h82v-836h-82z" />
<glyph unicode="&#xed;" horiz-adv-x="376" d="M112 989l189 281l88 -51l-215 -263zM147 0v836h82v-836h-82z" />
<glyph unicode="&#xee;" horiz-adv-x="376" d="M-16 1018l204 176l205 -176l-61 -53l-144 122l-143 -122zM147 0v836h82v-836h-82z" />
<glyph unicode="&#xef;" horiz-adv-x="376" d="M0 1077q0 29 21.5 51.5t52.5 22.5q29 0 51 -22.5t22 -51.5q0 -31 -22.5 -52t-50.5 -21q-31 0 -52.5 21t-21.5 52zM145 0v836h82v-836h-82zM229 1077q0 29 21.5 51.5t52.5 22.5q29 0 51.5 -22.5t22.5 -51.5q-2 -31 -23.5 -53.5t-50.5 -19.5q-31 -2 -52.5 20t-21.5 53z" />
<glyph unicode="&#xf0;" horiz-adv-x="1056" d="M94 434q0 193 124 327t319 134q98 -2 173.5 -44t127.5 -116h4q-27 106 -88.5 210t-141.5 179l-356 -116v77l287 95q-70 47 -153 78t-175 45l10 75q66 -8 131.5 -25.5t122.5 -41.5q39 -18 80 -43t80 -56l324 107v-78l-261 -86q43 -45 81 -97t71 -112q51 -102 79 -223 t30 -246q-2 -96 -20.5 -171t-55.5 -134q-61 -98 -157.5 -146.5t-199.5 -48.5q-190 0 -314 133.5t-122 323.5zM180 430q0 -158 98.5 -267.5t251.5 -107.5q139 0 243 104.5t104 286.5q-2 158 -94.5 263.5t-245.5 107.5q-156 0 -256.5 -109.5t-100.5 -277.5z" />
<glyph unicode="&#xf1;" horiz-adv-x="905" d="M147 0v836h82v-131q39 70 103.5 109.5t152.5 39.5q78 0 137.5 -33t94.5 -84q18 -33 28.5 -81t12.5 -130v-526h-82v526q0 66 -8.5 104t-24.5 64q-27 39 -69 59.5t-95 22.5q-72 -2 -123 -31.5t-82 -85.5q-25 -41 -35 -95t-10 -130v-434h-82zM193 1036q6 20 18.5 42t28.5 36 q18 18 43 27.5t51 11.5q20 0 45 -6t78 -29q59 -27 80.5 -32t40.5 -5q18 -2 30.5 4.5t24.5 20.5q6 8 14.5 22.5t14.5 28.5l51 -41q-8 -25 -22.5 -46t-30.5 -36q-20 -16 -44 -25.5t-48 -9.5q-20 -2 -46 6.5t-73 28.5q-63 25 -82.5 31t-38.5 6q-20 0 -34.5 -7t-22.5 -17 t-15.5 -24t-9.5 -26z" />
<glyph unicode="&#xf2;" horiz-adv-x="1064" d="M94 416q0 186 125 312t313 126q186 0 312.5 -126t126.5 -312q0 -188 -126 -313.5t-313 -125.5q-188 0 -313 125t-125 314zM180 416q0 -154 100 -257.5t252 -103.5q150 -2 251.5 102.5t101.5 258.5q0 152 -101.5 256t-251.5 104q-152 0 -253 -104.5t-99 -255.5zM354 1219 l88 51l188 -281l-61 -33z" />
<glyph unicode="&#xf3;" horiz-adv-x="1064" d="M94 416q0 186 125 312t313 126q186 0 312.5 -126t126.5 -312q0 -188 -126 -313.5t-313 -125.5q-188 0 -313 125t-125 314zM180 416q0 -154 100 -257.5t252 -103.5q150 -2 251.5 102.5t101.5 258.5q0 152 -101.5 256t-251.5 104q-152 0 -253 -104.5t-99 -255.5zM436 989 l189 281l88 -51l-215 -263z" />
<glyph unicode="&#xf4;" horiz-adv-x="1064" d="M94 416q0 186 125 312t313 126q186 0 312.5 -126t126.5 -312q0 -188 -126 -313.5t-313 -125.5q-188 0 -313 125t-125 314zM180 416q0 -154 100 -257.5t252 -103.5q150 -2 251.5 102.5t101.5 258.5q0 152 -101.5 256t-251.5 104q-152 0 -253 -104.5t-99 -255.5zM282 1008 l250 192l250 -192l-66 -52l-184 140l-184 -140z" />
<glyph unicode="&#xf5;" horiz-adv-x="1064" d="M94 416q0 186 125 312t313 126q186 0 312.5 -126t126.5 -312q0 -188 -126 -313.5t-313 -125.5q-188 0 -313 125t-125 314zM180 416q0 -154 100 -257.5t252 -103.5q150 -2 251.5 102.5t101.5 258.5q0 152 -101.5 256t-251.5 104q-152 0 -253 -104.5t-99 -255.5zM272 1036 q6 20 18.5 42t28.5 36q18 18 43 27.5t51 11.5q20 0 45 -6t78 -29q59 -27 80.5 -32t40.5 -5q18 -2 30.5 4.5t24.5 20.5q6 8 14.5 22.5t14.5 28.5l51 -41q-8 -25 -22.5 -46t-30.5 -36q-20 -16 -44 -25.5t-48 -9.5q-20 -2 -46 6.5t-73 28.5q-63 25 -82.5 31t-38.5 6 q-20 0 -34.5 -7t-22.5 -17t-15.5 -24t-9.5 -26z" />
<glyph unicode="&#xf6;" horiz-adv-x="1064" d="M94 416q0 186 125 312t313 126q186 0 312.5 -126t126.5 -312q0 -188 -126 -313.5t-313 -125.5q-188 0 -313 125t-125 314zM180 416q0 -154 100 -257.5t252 -103.5q150 -2 251.5 102.5t101.5 258.5q0 152 -101.5 256t-251.5 104q-152 0 -253 -104.5t-99 -255.5zM288 1077 q0 29 21.5 51.5t52.5 22.5q29 0 50.5 -22.5t23.5 -51.5q-2 -31 -23.5 -52t-50.5 -21q-31 0 -52.5 21t-21.5 52zM628 1077q0 29 21.5 51.5t52.5 22.5q29 0 51.5 -22.5t22.5 -51.5q0 -31 -22.5 -52t-51.5 -21q-31 0 -52.5 21t-21.5 52z" />
<glyph unicode="&#xf7;" d="M68 635v78h888v-78h-888zM440 287q0 29 20.5 50t51.5 21q29 0 50.5 -21.5t21.5 -49.5q0 -31 -21.5 -51.5t-50.5 -20.5q-31 0 -51.5 20.5t-20.5 51.5zM440 1061q-2 29 19.5 50.5t52.5 21.5q29 0 50.5 -21.5t21.5 -50.5q0 -31 -21.5 -51.5t-50.5 -20.5q-31 0 -51.5 20.5 t-20.5 51.5z" />
<glyph unicode="&#xf8;" horiz-adv-x="1067" d="M82 27l111 108q-47 57 -72 129t-25 152q0 184 126 311t313 127q80 0 150.5 -25.5t127.5 -70.5l109 108l51 -51l-109 -106q51 -59 79 -134t30 -159q0 -186 -127 -312.5t-311 -126.5q-84 0 -160 28t-135 81l-107 -109zM182 416q0 -63 17.5 -119.5t52.5 -101.5l504 505 q-47 35 -103.5 55.5t-117.5 20.5q-152 0 -252.5 -104.5t-100.5 -255.5zM299 145q45 -43 104.5 -66.5t131.5 -23.5q150 -2 250 102.5t102 258.5q0 66 -20.5 125t-59.5 108z" />
<glyph unicode="&#xf9;" horiz-adv-x="899" d="M147 309v527h82v-504q0 -80 12.5 -128t41.5 -81q27 -35 68.5 -51.5t97.5 -16.5q53 -2 95 15.5t70 52.5q27 33 40.5 81t13.5 128v504h82v-527q0 -82 -16.5 -136t-47.5 -93q-41 -51 -102.5 -77t-134.5 -26q-76 0 -137.5 26t-100.5 77q-33 39 -49.5 93t-14.5 136zM252 1219 l88 51l188 -281l-61 -33z" />
<glyph unicode="&#xfa;" horiz-adv-x="899" d="M147 309v527h82v-504q0 -80 12.5 -128t41.5 -81q27 -35 68.5 -51.5t97.5 -16.5q53 -2 95 15.5t70 52.5q27 33 40.5 81t13.5 128v504h82v-527q0 -82 -16.5 -136t-47.5 -93q-41 -51 -102.5 -77t-134.5 -26q-76 0 -137.5 26t-100.5 77q-33 39 -49.5 93t-14.5 136zM373 989 l189 281l88 -51l-215 -263z" />
<glyph unicode="&#xfb;" horiz-adv-x="899" d="M147 309v527h82v-504q0 -80 12.5 -128t41.5 -81q27 -35 68.5 -51.5t97.5 -16.5q53 -2 95 15.5t70 52.5q27 33 40.5 81t13.5 128v504h82v-527q0 -82 -16.5 -136t-47.5 -93q-41 -51 -102.5 -77t-134.5 -26q-76 0 -137.5 26t-100.5 77q-33 39 -49.5 93t-14.5 136zM199 1008 l250 192l250 -192l-66 -52l-184 140l-184 -140z" />
<glyph unicode="&#xfc;" horiz-adv-x="899" d="M147 309v527h82v-504q0 -80 12.5 -128t41.5 -81q27 -35 68.5 -51.5t97.5 -16.5q53 -2 95 15.5t70 52.5q27 33 40.5 81t13.5 128v504h82v-527q0 -82 -16.5 -136t-47.5 -93q-41 -51 -102.5 -77t-134.5 -26q-76 0 -137.5 26t-100.5 77q-33 39 -49.5 93t-14.5 136zM205 1077 q0 29 21.5 51.5t52.5 22.5q29 0 50.5 -22.5t23.5 -51.5q-2 -31 -23.5 -52t-50.5 -21q-31 0 -52.5 21t-21.5 52zM545 1077q0 29 21.5 51.5t52.5 22.5q29 0 51.5 -22.5t22.5 -51.5q0 -31 -22.5 -52t-51.5 -21q-31 0 -52.5 21t-21.5 52z" />
<glyph unicode="&#xfd;" horiz-adv-x="876" d="M16 836h95l350 -744l305 744h94l-557 -1325h-94l205 475zM362 989l189 281l88 -51l-215 -263z" />
<glyph unicode="&#xfe;" horiz-adv-x="1056" d="M147 -489v1982h82v-803q57 80 141.5 122t186.5 42q184 0 295 -123t111 -307q0 -190 -113 -318.5t-297 -128.5q-111 0 -193 46.5t-131 126.5v-639h-82zM225 428q0 -164 86 -268.5t240 -104.5q152 0 237.5 103.5t88.5 265.5q0 164 -94.5 258t-229.5 94t-231.5 -92 t-96.5 -256z" />
<glyph unicode="&#xff;" horiz-adv-x="876" d="M16 836h95l350 -744l305 744h94l-557 -1325h-94l205 475zM194 1077q0 29 21.5 51.5t52.5 22.5q29 0 50.5 -22.5t23.5 -51.5q-2 -31 -23.5 -52t-50.5 -21q-31 0 -52.5 21t-21.5 52zM534 1077q0 29 21.5 51.5t52.5 22.5q29 0 51.5 -22.5t22.5 -51.5q0 -31 -22.5 -52 t-51.5 -21q-31 0 -52.5 21t-21.5 52z" />
<glyph unicode="&#x152;" horiz-adv-x="2195" d="M109 680q0 291 207.5 497.5t502.5 206.5q197 0 357.5 -99t255.5 -275v356h653v-82h-563v-496h549v-81h-549v-625h563v-82h-653v350q-94 -174 -256 -273.5t-355 -99.5q-293 0 -504 207t-208 496zM203 680q0 -256 180 -438.5t434 -182.5q250 0 432.5 183.5t182.5 437.5 q0 256 -179.5 439.5t-431.5 183.5q-258 0 -439 -183.5t-179 -439.5z" />
<glyph unicode="&#x153;" horiz-adv-x="1779" d="M94 414q0 182 128 311t310 129q80 -2 157 -30.5t142 -86.5q27 -27 48.5 -55.5t44.5 -73.5q43 115 140 180.5t222 65.5q174 -2 288 -124.5t112 -317.5h-715q-2 -160 92 -258.5t237 -98.5q92 0 169 48.5t122 144.5l68 -41q-53 -104 -147.5 -167t-219.5 -63q-133 0 -228 67 t-140 181q-20 -37 -42 -67.5t-46 -55.5q-61 -61 -142.5 -93t-163.5 -32q-180 0 -308 128t-128 309zM180 416q0 -154 99.5 -257.5t248.5 -103.5q150 0 253.5 102.5t103.5 252.5q-2 154 -103.5 260t-251.5 106t-251 -104.5t-99 -255.5zM977 489h622q-20 131 -106 209t-205 78 t-206 -77t-105 -210z" />
<glyph unicode="&#x178;" horiz-adv-x="1056" d="M29 1366h102l393 -690l402 690h102l-461 -782v-584h-90v584zM260 1597q0 31 22.5 54.5t55.5 23.5q31 0 53 -23.5t24 -54.5q0 -33 -23.5 -55t-53.5 -22q-33 0 -55.5 22t-22.5 55zM641 1597q0 31 22.5 53.5t54.5 24.5q31 0 54.5 -23.5t23.5 -54.5q-2 -33 -24.5 -55 t-53.5 -22q-33 0 -55 22t-22 55z" />
<glyph unicode="&#x2c6;" d="M262 1008l250 192l250 -192l-66 -52l-184 140l-184 -140z" />
<glyph unicode="&#x2dc;" d="M252 1036q6 20 18.5 42t28.5 36q18 18 43 27.5t51 11.5q20 0 45 -6t78 -29q59 -27 80.5 -32t40.5 -5q18 -2 30.5 4.5t24.5 20.5q6 8 14.5 22.5t14.5 28.5l51 -41q-8 -25 -22.5 -46t-30.5 -36q-20 -16 -44 -25.5t-48 -9.5q-20 -2 -46 6.5t-73 28.5q-63 25 -82.5 31 t-38.5 6q-20 0 -34.5 -7t-22.5 -17t-15.5 -24t-9.5 -26z" />
<glyph unicode="&#x2000;" horiz-adv-x="888" />
<glyph unicode="&#x2001;" horiz-adv-x="1776" />
<glyph unicode="&#x2002;" horiz-adv-x="888" />
<glyph unicode="&#x2003;" horiz-adv-x="1776" />
<glyph unicode="&#x2004;" horiz-adv-x="592" />
<glyph unicode="&#x2005;" horiz-adv-x="444" />
<glyph unicode="&#x2006;" horiz-adv-x="296" />
<glyph unicode="&#x2007;" horiz-adv-x="296" />
<glyph unicode="&#x2008;" horiz-adv-x="222" />
<glyph unicode="&#x2009;" horiz-adv-x="355" />
<glyph unicode="&#x200a;" horiz-adv-x="98" />
<glyph unicode="&#x2010;" horiz-adv-x="573" d="M82 377v94h410v-94h-410z" />
<glyph unicode="&#x2011;" horiz-adv-x="573" d="M82 377v94h410v-94h-410z" />
<glyph unicode="&#x2012;" horiz-adv-x="573" d="M82 377v94h410v-94h-410z" />
<glyph unicode="&#x2013;" d="M102 385v78h820v-78h-820z" />
<glyph unicode="&#x2014;" horiz-adv-x="1433" d="M102 385v78h1229v-78h-1229z" />
<glyph unicode="&#x2018;" horiz-adv-x="466" d="M131 1034l152 410l53 -21l-123 -413z" />
<glyph unicode="&#x2019;" horiz-adv-x="520" d="M131 1030l123 414l82 -25l-152 -409z" />
<glyph unicode="&#x201a;" horiz-adv-x="520" d="M131 -281l123 414l82 -24l-152 -410z" />
<glyph unicode="&#x201c;" horiz-adv-x="704" d="M131 1034l152 410l53 -21l-123 -413zM369 1034l151 410l53 -21l-122 -413z" />
<glyph unicode="&#x201d;" horiz-adv-x="757" d="M131 1030l123 414l82 -25l-152 -409zM369 1030l123 414l81 -25l-151 -409z" />
<glyph unicode="&#x201e;" horiz-adv-x="757" d="M131 -281l123 414l82 -24l-152 -410zM369 -281l123 414l81 -24l-151 -410z" />
<glyph unicode="&#x2022;" horiz-adv-x="1368" d="M397 696q0 117 84 202t203 85q117 0 202 -85t85 -202q0 -119 -85 -203.5t-202 -82.5q-119 0 -203 83.5t-84 202.5z" />
<glyph unicode="&#x2026;" horiz-adv-x="1241" d="M131 61q0 31 21.5 53.5t54.5 22.5q31 0 53.5 -22.5t22.5 -53.5q0 -33 -22.5 -54t-53.5 -21q-33 0 -54.5 21t-21.5 54zM545 61q0 31 21.5 53.5t54.5 22.5q31 0 53 -22.5t22 -53.5q-2 -33 -23.5 -53t-51.5 -22q-33 0 -54.5 21t-21.5 54zM958 61q-2 31 20.5 53.5t55.5 22.5 q31 0 53.5 -22.5t22.5 -53.5q0 -33 -22.5 -54t-53.5 -21q-33 0 -54.5 21t-21.5 54z" />
<glyph unicode="&#x202f;" horiz-adv-x="355" />
<glyph unicode="&#x2039;" horiz-adv-x="495" d="M66 424l266 307l53 -49l-221 -258l221 -258l-53 -49z" />
<glyph unicode="&#x203a;" horiz-adv-x="495" d="M111 166l221 258l-221 258l53 49l266 -307l-266 -307z" />
<glyph unicode="&#x205f;" horiz-adv-x="444" />
<glyph unicode="&#x20ac;" horiz-adv-x="1388" d="M-12 508l32 82h97q-4 23 -6 45t0 45q0 29 2 59.5t8 61.5h-133l32 82h119q68 238 263.5 369.5t416.5 131.5q137 0 254 -49t205 -129l-41 -76q-80 78 -189.5 125.5t-230.5 47.5q-190 0 -353 -112t-228 -308h903l-33 -82h-889q-8 -33 -10 -63.5t-2 -61.5q-2 -23 0 -44.5 t6 -41.5h813l-33 -82h-766q49 -190 215 -319.5t379 -129.5q127 0 248 55.5t211 151.5v-119q-92 -82 -209 -126t-246 -44q-252 0 -442.5 148.5t-249.5 382.5h-143z" />
<glyph unicode="&#x2122;" horiz-adv-x="1474" d="M0 1292v74h463v-74h-191v-704h-82v704h-190zM543 588l92 839l334 -712l336 712l92 -839h-78l-64 567l-286 -612l-287 612l-61 -567h-78z" />
<glyph unicode="&#xe000;" horiz-adv-x="839" d="M0 0v840h840v-840h-840z" />
<glyph unicode="&#xfb01;" horiz-adv-x="905" d="M53 758v78h94v333q0 84 8.5 133.5t37.5 90.5q43 61 103 93t157 32q94 0 154.5 -32t105.5 -93q27 -41 35 -90.5t10 -133.5v-34h-82v34q-2 76 -10.5 114t-24.5 67q-29 43 -75 65.5t-113 24.5q-70 0 -116 -23.5t-73 -66.5q-18 -29 -26.5 -67t-8.5 -114v-333h209v-78h-209 v-758h-82v758h-94zM676 0v836h82v-836h-82z" />
<glyph unicode="&#xfb02;" horiz-adv-x="905" d="M53 758v78h94v333q0 84 8.5 133.5t37.5 90.5q43 61 103 93t157 32q94 0 154.5 -32t105.5 -93q27 -41 35 -90.5t10 -133.5v-1169h-82v1169q-2 76 -10.5 114t-24.5 67q-29 43 -75 66.5t-113 23.5q-66 0 -114 -22.5t-75 -67.5q-23 -35 -32 -86.5t-3 -94.5v-333h209v-78h-209 v-758h-82v758h-94z" />
</font>
</defs>
</svg>
